MeshVersionFormatted 3

Dimension
3

Vertices
857
0	0	0		1
0.01	0	0		1
0.02	0	0		1
0.03	0	0		1
0.04	0	0		1
0.05	0	0		1
0.06	0	0		1
0.07	0	0		1
0.08	0	0		1
0.09	0	0		1
0.1	0	0		1
0.11	0	0		1
0.12	0	0		1
0.13	0	0		1
0.14	0	0		1
0.15	0	0		1
0.16	0	0		1
0.17	0	0		1
0.18	0	0		1
0.19	0	0		1
0.2	0	0		1
0.21	0	0		1
0.22	0	0		1
0.23	0	0		1
0.24	0	0		1
0.25	0	0		1
0.26	0	0		1
0	0.26	0		1
0	0.25	0		1
0	0.24	0		1
0	0.23	0		1
0	0.22	0		1
0	0.21	0		1
0	0.2	0		1
0	0.19	0		1
0	0.18	0		1
0	0.17	0		1
0	0.16	0		1
0	0.15	0		1
0	0.14	0		1
0	0.13	0		1
0	0.12	0		1
0	0.11	0		1
0	0.1	0		1
0	0.09	0		1
0	0.08	0		1
0	0.07	0		1
0	0.06	0		1
0	0.05	0		1
0	0.04	0		1
0	0.03	0		1
0	0.02	0		1
0	0.01	0		1
0.2648	0.00768029	0		1
0.00889646	0.255147	0		1
0.204927	0.00842004	0		1
0.00866025	0.195	0		1
0.154439	0.00713043	0		1
0.00897525	0.145508	0		1
0.105	0.00866025	0		1
0.00866025	0.105	0		1
0.00866025	0.065	0		1
0.0650731	0.00842004	0		1
0.00868244	0.225463	0		1
0.234439	0.00713043	0		1
0.00866025	0.035	0		1
0.0342181	0.00919503	0		1
0.124927	0.00842004	0		1
0.00841488	0.124502	0		1
0.00866025	0.085	0		1
0.00845103	0.165	0		1
0.085	0.00866025	0		1
0.1848	0.00768029	0		1
0.00843696	0.0153868	0		1
0.255	0.246558	0		1
0.25	0.255218	0		1
0.245	0.246558	0		1
0.24	0.255218	0		1
0.235	0.246558	0		1
0.23	0.255218	0		1
0.225	0.246558	0		1
0.25	0.237898	0		1
0.22	0.255218	0		1
0.215	0.246558	0		1
0.21	0.255218	0		1
0.205	0.246558	0		1
0.2	0.255218	0		1
0.195	0.246558	0		1
0.2	0.237898	0		1
0.19	0.255218	0		1
0.19	0.237898	0		1
0.195	0.229237	0		1
0.185	0.229237	0		1
0.19	0.220577	0		1
0.18	0.220577	0		1
0.185	0.211917	0		1
0.175	0.211917	0		1
0.18	0.203257	0		1
0.17	0.220577	0		1
0.17	0.203257	0		1
0.175	0.194596	0		1
0.165	0.194596	0		1
0.17	0.185936	0		1
0.18	0.185936	0		1
0.175	0.177276	0		1
0.185	0.177276	0		1
0.165	0.177276	0		1
0.17	0.168616	0		1
0.16	0.168616	0		1
0.195	0.263878	0		1
0.185	0.263878	0		1
0.165	0.159955	0		1
0.155	0.159955	0		1
0.16	0.151295	0		1
0.15	0.151295	0		1
0.145	0.159955	0		1
0.14	0.151295	0		1
0.135	0.159955	0		1
0.145	0.142635	0		1
0.135	0.142635	0		1
0.14	0.133975	0		1
0.13	0.133975	0		1
0.135	0.125314	0		1
0.125	0.125314	0		1
0.13	0.116654	0		1
0.14	0.116654	0		1
0.12	0.116654	0		1
0.115	0.125314	0		1
0.11	0.116654	0		1
0.105	0.125314	0		1
0.17	0.151295	0		1
0.135	0.107994	0		1
0.145	0.107994	0		1
0.1	0.116654	0		1
0.105	0.107994	0		1
0.26	0.116654	0		1
0.255	0.107994	0		1
0.14	0.0993336	0		1
0.15	0.0993336	0		1
0.095	0.107994	0		1
0.095	0.125314	0		1
0.1	0.0993336	0		1
0.25	0.116654	0		1
0.245	0.107994	0		1
0.09	0.0993336	0		1
0.145	0.0906733	0		1
0.155	0.0906733	0		1
0.095	0.0906733	0		1
0.085	0.0906733	0		1
0.195	0.211917	0		1
0.235	0.263878	0		1
0.24	0.116654	0		1
0.235	0.107994	0		1
0.24	0.0993336	0		1
0.23	0.0993336	0		1
0.235	0.0906733	0		1
0.225	0.0906733	0		1
0.08	0.0993336	0		1
0.26	0.168616	0		1
0.22	0.0993336	0		1
0.23	0.0820131	0		1
0.22	0.0820131	0		1
0.09	0.0820131	0		1
0.08	0.0820131	0		1
0.15	0.0820131	0		1
0.16	0.0820131	0		1
0.16	0.0993336	0		1
0.225	0.0733528	0		1
0.215	0.0733528	0		1
0.155	0.0733528	0		1
0.145	0.0733528	0		1
0.085	0.0733528	0		1
0.075	0.0733528	0		1
0.255	0.177276	0		1
0.25	0.168616	0		1
0.1	0.133975	0		1
0.09	0.133975	0		1
0.095	0.142635	0		1
0.085	0.142635	0		1
0.09	0.151295	0		1
0.08	0.151295	0		1
0.085	0.159955	0		1
0.075	0.159955	0		1
0.08	0.168616	0		1
0.075	0.142635	0		1
0.07	0.168616	0		1
0.075	0.177276	0		1
0.085	0.177276	0		1
0.08	0.185936	0		1
0.09	0.185936	0		1
0.085	0.194596	0		1
0.095	0.194596	0		1
0.09	0.203257	0		1
0.08	0.203257	0		1
0.085	0.211917	0		1
0.095	0.211917	0		1
0.09	0.220577	0		1
0.1	0.220577	0		1
0.095	0.229237	0		1
0.085	0.229237	0		1
0.09	0.237898	0		1
0.1	0.237898	0		1
0.095	0.246558	0		1
0.085	0.246558	0		1
0.09	0.255218	0		1
0.08	0.255218	0		1
0.085	0.263878	0		1
0.075	0.263878	0		1
0.105	0.246558	0		1
0.07	0.255218	0		1
0.245	0.177276	0		1
0.24	0.168616	0		1
0.065	0.177276	0		1
0.22	0.0646926	0		1
0.23	0.0646926	0		1
0.21	0.0646926	0		1
0.15	0.0646926	0		1
0.14	0.0646926	0		1
0.08	0.0646926	0		1
0.07	0.0646926	0		1
0.065	0.0733528	0		1
0.06	0.0646926	0		1
0.06	0.168616	0		1
0.16	0.0646926	0		1
0.09	0.0646926	0		1
0.235	0.177276	0		1
0.23	0.168616	0		1
0.24	0.185936	0		1
0.055	0.177276	0		1
0.215	0.0560323	0		1
0.205	0.0560323	0		1
0.145	0.0560323	0		1
0.135	0.0560323	0		1
0.075	0.0560323	0		1
0.055	0.0733528	0		1
0.205	0.0733528	0		1
0.05	0.0646926	0		1
0.05	0.168616	0		1
0.225	0.177276	0		1
0.205	0.229237	0		1
0.15	0.116654	0		1
0.13	0.0646926	0		1
0.1	0.185936	0		1
0.105	0.211917	0		1
0.11	0.237898	0		1
0.115	0.246558	0		1
0.12	0.237898	0		1
0.125	0.246558	0		1
0.12	0.255218	0		1
0.075	0.211917	0		1
0.23	0.116654	0		1
0.125	0.0560323	0		1
0.23	0.237898	0		1
0.055	0.0560323	0		1
0.18	0.255218	0		1
0.26	0.151295	0		1
0.16	0.203257	0		1
0.155	0.177276	0		1
0.235	0.125314	0		1
0.225	0.125314	0		1
0.13	0.237898	0		1
0.13	0.255218	0		1
0.125	0.263878	0		1
0.22	0.168616	0		1
0.14	0.0473721	0		1
0.15	0.0473721	0		1
0.045	0.0560323	0		1
0.05	0.0473721	0		1
0.045	0.177276	0		1
0.05	0.185936	0		1
0.21	0.0473721	0		1
0.2	0.0473721	0		1
0.22	0.0473721	0		1
0.045	0.0733528	0		1
0.05	0.0820131	0		1
0.195	0.0560323	0		1
0.19	0.0473721	0		1
0.105	0.0906733	0		1
0.1	0.151295	0		1
0.135	0.263878	0		1
0.14	0.255218	0		1
0.23	0.133975	0		1
0.22	0.133975	0		1
0.215	0.125314	0		1
0.21	0.133975	0		1
0.205	0.125314	0		1
0.2	0.133975	0		1
0.195	0.125314	0		1
0.0404236	0.0476166	0		1
0.04	0.185936	0		1
0.045	0.194596	0		1
0.04	0.0820131	0		1
0.045	0.0906733	0		1
0.04	0.168616	0		1
0.045	0.159955	0		1
0.215	0.0387118	0		1
0.225	0.0387118	0		1
0.0450706	0.0387526	0		1
0.0550118	0.0387186	0		1
0.195	0.0387118	0		1
0.185	0.0387118	0		1
0.145	0.0387118	0		1
0.135	0.0387118	0		1
0.155	0.0387118	0		1
0.215	0.177276	0		1
0.22	0.185936	0		1
0.165	0.142635	0		1
0.125	0.229237	0		1
0.135	0.229237	0		1
0.13	0.220577	0		1
0.24	0.0820131	0		1
0.2	0.116654	0		1
0.19	0.116654	0		1
0.195	0.107994	0		1
0.135	0.0906733	0		1
0.085	0.125314	0		1
0.12	0.0646926	0		1
0.115	0.0560323	0		1
0.205	0.142635	0		1
0.21	0.168616	0		1
0.21	0.185936	0		1
0.215	0.194596	0		1
0.035	0.159955	0		1
0.04	0.151295	0		1
0.0351871	0.0907814	0		1
0.0400312	0.0993516	0		1
0.0500052	0.0993366	0		1
0.0450061	0.107997	0		1
0.0550005	0.107994	0		1
0.0500011	0.116655	0		1
0.0400012	0.116655	0		1
0.22	0.0300515	0		1
0.0500137	0.0300595	0		1
0.14	0.0300515	0		1
0.0350816	0.194643	0		1
0.0400136	0.203264	0		1
0.0306921	0.185751	0		1
0.0360663	0.0558617	0		1
0.035	0.263878	0		1
0.0307288	0.203699	0		1
0.0351055	0.211979	0		1
0.0450198	0.211929	0		1
0.0400209	0.220589	0		1
0.05	0.220577	0		1
0.0450035	0.229239	0		1
0.0550006	0.229238	0		1
0.0500007	0.237898	0		1
0.0400007	0.237898	0		1
0.0345611	0.039335	0		1
0.185	0.107994	0		1
0.19	0.0993336	0		1
0.18	0.116654	0		1
0.14	0.220577	0		1
0.135	0.211917	0		1
0.145	0.229237	0		1
0.185	0.0560323	0		1
0.115	0.263878	0		1
0.125	0.142635	0		1
0.255	0.125314	0		1
0.05	0.151295	0		1
0.065	0.263878	0		1
0.07	0.203257	0		1
0.235	0.159955	0		1
0.195	0.142635	0		1
0.0600003	0.116654	0		1
0.0550002	0.125314	0		1
0.26	0.203257	0		1
0.255	0.211917	0		1
0.23	0.0300515	0		1
0.235	0.0387118	0		1
0.24	0.0300515	0		1
0.245	0.0387118	0		1
0.25	0.0300515	0		1
0.255	0.0387118	0		1
0.25	0.0473721	0		1
0.26	0.0473721	0		1
0.255	0.0560323	0		1
0.26	0.0300515	0		1
0.0600042	0.030054	0		1
0.13	0.0300515	0		1
0.0308106	0.0826948	0		1
0.03	0.151295	0		1
0.035	0.142635	0		1
0.0299406	0.0994792	0		1
0.0297402	0.220589	0		1
0.19	0.0300515	0		1
0.18	0.0300515	0		1
0.175	0.0387118	0		1
0.175	0.142635	0		1
0.11	0.0646926	0		1
0.0650027	0.0387133	0		1
0.0700012	0.0300522	0		1
0.0750006	0.0387122	0		1
0.0800003	0.0300517	0		1
0.0850002	0.0387119	0		1
0.0900001	0.0300516	0		1
0.095	0.0387118	0		1
0.1	0.0300516	0		1
0.105	0.0387118	0		1
0.11	0.0300516	0		1
0.1	0.0473721	0		1
0.2	0.0993336	0		1
0.2	0.0300515	0		1
0.18	0.0993336	0		1
0.185	0.0906733	0		1
0.15	0.133975	0		1
0.105	0.194596	0		1
0.11	0.185936	0		1
0.115	0.194596	0		1
0.12	0.185936	0		1
0.115	0.177276	0		1
0.125	0.177276	0		1
0.13	0.185936	0		1
0.125	0.211917	0		1
0.215	0.263878	0		1
0.225	0.194596	0		1
0.22	0.203257	0		1
0.23	0.203257	0		1
0.225	0.211917	0		1
0.045	0.263878	0		1
0.24	0.133975	0		1
0.155	0.194596	0		1
0.12	0.0473721	0		1
0.18	0.237898	0		1
0.19	0.0646926	0		1
0.18	0.0646926	0		1
0.235	0.211917	0		1
0.25	0.203257	0		1
0.03	0.168616	0		1
0.115	0.0733528	0		1
0.225	0.142635	0		1
0.14	0.168616	0		1
0.0600009	0.0993341	0		1
0.12	0.168616	0		1
0.11	0.168616	0		1
0.115	0.159955	0		1
0.215	0.159955	0		1
0.205	0.159955	0		1
0.06	0.255218	0		1
0.065	0.246558	0		1
0.19	0.185936	0		1
0.065	0.125314	0		1
0.06	0.133975	0		1
0.15	0.220577	0		1
0.155	0.229237	0		1
0.15	0.237898	0		1
0.16	0.237898	0		1
0.155	0.246558	0		1
0.07	0.116654	0		1
0.26	0.220577	0		1
0.17	0.133975	0		1
0.215	0.211917	0		1
0.22	0.220577	0		1
0.205	0.194596	0		1
0.25	0.220577	0		1
0.17	0.0300515	0		1
0.16	0.0473721	0		1
0.18	0.151295	0		1
0.0248606	0.26386	0		1
0.0299768	0.255215	0		1
0.0252552	0.142488	0		1
0.0300425	0.13395	0		1
0.175	0.0560323	0		1
0.175	0.0906733	0		1
0.26	0.0646926	0		1
0.25	0.0646926	0		1
0.255	0.0733528	0		1
0.13	0.203257	0		1
0.105	0.0733528	0		1
0.065	0.211917	0		1
0.07	0.220577	0		1
0.15	0.203257	0		1
0.11	0.220577	0		1
0.255	0.194596	0		1
0.06	0.203257	0		1
0.065	0.194596	0		1
0.05	0.133975	0		1
0.185	0.0733528	0		1
0.145	0.194596	0		1
0.0450002	0.246558	0		1
0.175	0.0733528	0		1
0.18	0.133975	0		1
0.165	0.246558	0		1
0.16	0.255218	0		1
0.2	0.168616	0		1
0.195	0.159955	0		1
0.245	0.0217779	0		1
0.135	0.0217779	0		1
0.174719	0.0215533	0		1
0.195	0.0213913	0		1
0.224719	0.0215533	0		1
0.055003	0.0217796	0		1
0.075	0.0213913	0		1
0.095	0.0213913	0		1
0.214953	0.0218049	0		1
0.164953	0.0218049	0		1
0.045041	0.0216	0		1
0.144719	0.0216178	0		1
0.020254	0.134306	0		1
0.024468	0.124597	0		1
0.018641	0.150857	0		1
0.125	0.0216083	0		1
0.219384	0.0143568	0		1
0.169384	0.0143568	0		1
0.139392	0.014363	0		1
0.05	0.012731	0		1
0.02	0.255218	0		1
0.0249961	0.246557	0		1
0.015	0.246558	0		1
0.020185	0.238005	0		1
0.0149836	0.264107	0		1
0.00967757	0.236888	0		1
0.115	0.0387118	0		1
0.105	0.0560323	0		1
0.165	0.229237	0		1
0.17	0.0993336	0		1
0.155	0.211917	0		1
0.0400071	0.133971	0		1
0.135	0.177276	0		1
0.26	0.0820131	0		1
0.255	0.0906733	0		1
0.0700006	0.0473724	0		1
0.12	0.203257	0		1
0.105	0.159955	0		1
0.1	0.168616	0		1
0.11	0.151295	0		1
0.105	0.142635	0		1
0.12	0.151295	0		1
0.125	0.194596	0		1
0.00862304	0.0250645	0		1
0.0172771	0.0200752	0		1
0.0162879	0.0092116	0		1
0.0255675	0.0150301	0		1
0.0254529	0.0250317	0		1
0.0347052	0.0208531	0		1
0.095	0.159955	0		1
0.204998	0.0216094	0		1
0.145	0.246558	0		1
0.0650004	0.0216085	0		1
0.11	0.203257	0		1
0.0171961	0.0300286	0		1
0.0172768	0.0400048	0		1
0.00865297	0.0450008	0		1
0.0172291	0.0500009	0		1
0.0254891	0.0446967	0		1
0.00864381	0.0550003	0		1
0.0172196	0.0600002	0		1
0.0172174	0.0698506	0		1
0.0255555	0.0658828	0		1
0.00864308	0.0749751	0		1
0.0167325	0.0797543	0		1
0.0167644	0.0892788	0		1
0.00856757	0.0948798	0		1
0.0190512	0.0996266	0		1
0.0171823	0.110142	0		1
0.00859235	0.114919	0		1
0.085	0.0213913	0		1
0.095	0.0733528	0		1
0.085	0.0560323	0		1
0.095	0.0560323	0		1
0.11	0.0473721	0		1
0.0800001	0.0473721	0		1
0.0650002	0.107994	0		1
0.075	0.107994	0		1
0.055001	0.0906739	0		1
0.0650003	0.0906735	0		1
0.105	0.0213913	0		1
0.115	0.0215998	0		1
0.0402433	0.0301142	0		1
0.0650001	0.0560324	0		1
0.149953	0.0300893	0		1
0.154657	0.0220529	0		1
0.11	0.0993336	0		1
0.115	0.0906733	0		1
0.12	0.0993336	0		1
0.125	0.0906733	0		1
0.115	0.107994	0		1
0.209992	0.0301568	0		1
0.01003	0.134771	0		1
0.0600002	0.0820132	0		1
0.00866025	0.155	0		1
0.2	0.220577	0		1
0.184673	0.0219628	0		1
0.145	0.125314	0		1
0.155	0.125314	0		1
0.16	0.116654	0		1
0.165	0.125314	0		1
0.17	0.116654	0		1
0.105	0.229237	0		1
0.245	0.0733528	0		1
0.1	0.203257	0		1
0.225	0.0560323	0		1
0.235	0.0560323	0		1
0.19	0.203257	0		1
0.185	0.194596	0		1
0.145	0.263878	0		1
0.155	0.263878	0		1
0.16	0.133975	0		1
0.195	0.0906733	0		1
0.205	0.0906733	0		1
0.21	0.0993336	0		1
0.21	0.237898	0		1
0.185	0.142635	0		1
0.125	0.107994	0		1
0.234673	0.0220314	0		1
0.165	0.0733528	0		1
0.155	0.0560323	0		1
0.165	0.0560323	0		1
0.095	0.263878	0		1
0.055	0.159955	0		1
0.06	0.151295	0		1
0.175	0.159955	0		1
0.185	0.159955	0		1
0.18	0.168616	0		1
0.00862538	0.175	0		1
0.0187621	0.169335	0		1
0.0169917	0.180184	0		1
0.00859963	0.185031	0		1
0.0166284	0.190016	0		1
0.0165922	0.199982	0		1
0.00853886	0.204997	0		1
0.01665	0.209578	0		1
0.00862686	0.215002	0		1
0.0186868	0.22032	0		1
0.115	0.229237	0		1
0.165	0.0906733	0		1
0.254719	0.0216178	0		1
0.249392	0.014363	0		1
0.264673	0.0219735	0		1
0.205	0.107994	0		1
0.21	0.116654	0		1
0.13	0.0473721	0		1
0.235	0.194596	0		1
0.0300303	0.237915	0		1
0.14	0.0820131	0		1
0.245	0.159955	0		1
0.24	0.151295	0		1
0.09	0.168616	0		1
0.22	0.116654	0		1
0.25	0.0993336	0		1
0.1	0.255218	0		1
0.204999	0.0387294	0		1
0.155	0.107994	0		1
0.13	0.0993336	0		1
0.25	0.151295	0		1
0.135	0.246558	0		1
0.23	0.0473721	0		1
0.26	0.237898	0		1
0.225	0.159955	0		1
0.155	0.142635	0		1
0.115	0.00866025	0		1
0.105	0.263878	0		1
0.08	0.237898	0		1
0.15	0.255218	0		1
0.245	0.263878	0		1
0.24	0.237898	0		1
0.235	0.229237	0		1
0.22	0.237898	0		1
0.26	0.185936	0		1
0.095	0.00866025	0		1
0.194977	0.00816624	0		1
0.11	0.255218	0		1
0.08	0.220577	0		1
0.21	0.203257	0		1
0.18	0.0473721	0		1
0.225	0.107994	0		1
0.225	0.263878	0		1
0.14	0.237898	0		1
0.11	0.133975	0		1
0.205	0.177276	0		1
0.2	0.185936	0		1
0.215	0.142635	0		1
0.185	0.246558	0		1
0.23	0.185936	0		1
0.205	0.263878	0		1
0.075	0.194596	0		1
0.255	0.159955	0		1
0.245	0.125314	0		1
0.0600025	0.0473735	0		1
0.175	0.263878	0		1
0.24	0.0473721	0		1
0.16	0.185936	0		1
0.09	0.116654	0		1
0.2	0.0646926	0		1
0.0351602	0.107927	0		1
0.105	0.177276	0		1
0.165	0.211917	0		1
0.095	0.177276	0		1
0.065	0.159955	0		1
0.075	0.00866025	0		1
0.125	0.0733528	0		1
0.15	0.168616	0		1
0.15	0.185936	0		1
0.0352608	0.177161	0		1
0.025	0.159955	0		1
0.125	0.0387118	0		1
0.075	0.246558	0		1
0.12	0.133975	0		1
0.08	0.133975	0		1
0.07	0.151295	0		1
0.0342541	0.072247	0		1
0.135	0.0733528	0		1
0.215	0.107994	0		1
0.12	0.220577	0		1
0.0500056	0.20326	0		1
0.26	0.133975	0		1
0.255	0.142635	0		1
0.075	0.229237	0		1
0.0650001	0.229237	0		1
0.0600001	0.220577	0		1
0.26	0.0993336	0		1
0.195	0.0733528	0		1
0.215	0.0906733	0		1
0.25	0.185936	0		1
0.115	0.211917	0		1
0.07	0.185936	0		1
0.21	0.0820131	0		1
0.040545	0.064196	0		1
0.245	0.194596	0		1
0.25	0.133975	0		1
0.24	0.203257	0		1
0.245	0.0560323	0		1
0.06	0.185936	0		1
0.0700001	0.0820131	0		1
0.235	0.0733528	0		1
0.245	0.211917	0		1
0.24	0.0646926	0		1
0.07	0.237898	0		1
0.0550009	0.194597	0		1
0.13	0.0820131	0		1
0.0750001	0.0906734	0		1
0.055	0.263878	0		1
0.25	0.0820131	0		1
0.245	0.142635	0		1
0.0550043	0.211919	0		1
0.0700003	0.0993337	0		1
0.1	0.0820131	0		1
0.09	0.0473721	0		1
0.2	0.0820131	0		1
0.235	0.142635	0		1
0.23	0.151295	0		1
0.1	0.0646926	0		1
0.085	0.107994	0		1
0.13	0.151295	0		1
0.245	0.0906733	0		1
0.13	0.168616	0		1
0.19	0.0820131	0		1
0.22	0.151295	0		1
0.115	0.142635	0		1
0.18	0.0820131	0		1
0.21	0.151295	0		1
0.145	0.177276	0		1
0.2	0.151295	0		1
0.12	0.0820131	0		1
0.0600001	0.237898	0		1
0.11	0.0820131	0		1
0.0550002	0.246558	0		1
0.135	0.194596	0		1
0.0500001	0.255218	0		1
0.14	0.203257	0		1
0.145	0.211917	0		1
0.125	0.159955	0		1
0.08	0.116654	0		1
0.16	0.220577	0		1
0.12	0.0300515	0		1
0.075	0.125314	0		1
0.175	0.229237	0		1
0.0450012	0.142634	0		1
0.17	0.237898	0		1
0.0399962	0.255218	0		1
0.0450016	0.125314	0		1
0.07	0.133975	0		1
0.035	0.24656	0		1
0.0349201	0.12519	0		1
0.065	0.142635	0		1
0.0349659	0.229245	0		1
0.025	0.229237	0		1
0.14	0.185936	0		1
0.030557	0.116124	0		1
0.0550002	0.142635	0		1
0.175	0.246558	0		1
0.17	0.255218	0		1
0.165	0.263878	0		1
0.23	0.220577	0		1
0.225	0.229237	0		1
0.255	0.229237	0		1
0.245	0.229237	0		1
0.24	0.220577	0		1
0.215	0.229237	0		1
0.21	0.220577	0		1
0.205	0.211917	0		1
0.2	0.203257	0		1
0.195	0.194596	0		1
0.19	0.168616	0		1
0.195	0.177276	0		1
0.19	0.151295	0		1
0.175	0.125314	0		1
0.19	0.133975	0		1
0.185	0.125314	0		1
0.165	0.107994	0		1
0.16	0.0300515	0		1
0.175	0.107994	0		1
0.165	0.0387118	0		1
0.17	0.0820131	0		1
0.17	0.0646926	0		1
0.17	0.0473721	0		1
0.0253407	0.0348636	0		1
0.0162505	0.119407	0		1
0.0267215	0.0554673	0		1
0.0253704	0.194877	0		1
0.025775	0.177417	0		1
0.0246101	0.0758377	0		1
0.0259098	0.107651	0		1
0.025802	0.212169	0		1
0.0159493	0.160021	0		1
0.0163514	0.229953	0		1
0.0261227	0.0913215	0		1
0.0166025	0.141633	0		1
0.244805	0.00714746	0		1
0.214885	0.00736136	0		1
0.164804	0.00714642	0		1
0.134886	0.0073624	0		1
0.0429613	0.00738088	0		1
0.179763	0.0144866	0		1
0.229702	0.0144105	0		1
0.259764	0.0145002	0		1
0.0570146	0.00724034	0		1
0.149701	0.0144259	0		1
0.025	0.00669873	0		1
0.00675595	0.245652	0		1
0.199984	0.0149439	0		1
0.189866	0.0147719	0		1
0.119988	0.0150608	0		1
0.07	0.0150258	0		1
0.11	0.0150258	0		1
0.08	0.0150258	0		1
0.09	0.0150258	0		1
0.1	0.0150258	0		1
0.254793	0.00728183	0		1
0.224735	0.00720985	0		1
0.174792	0.00727835	0		1
0.144736	0.00721363	0		1
0.060127	0.0148381	0		1
0.239668	0.0144768	0		1
0.21	0.0150506	0		1
0.159656	0.0144862	0		1
0.13	0.0150506	0		1
0.0320683	0.0300849	0		1
0.00732051	0.00732051	0		1
0.0411575	0.014531	0		1
0.0160351	0.127333	0		1
0.0325414	0.0488394	0		1
0.0227943	0.205	0		1
0.0228735	0.115584	0		1
0.0230483	0.0841787	0		1
0.022709	0.185	0		1
0.0329497	0.0629896	0		1

Triangles
1581
31	64	512	1
429	616	695	1
59	501	581	1
385	624	777	1
384	554	817	1
385	624	814	1
384	554	813	1
30	31	512	1
429	616	811	1
64	512	816	1
59	501	818	1
2	3	532	1
6	506	823	1
6	506	827	1
616	695	815	1
67	533	535	1
552	554	817	1
2	532	849	1
549	701	812	1
549	701	857	1
497	535	569	1
624	777	816	1
501	581	815	1
583	824	832	1
572	828	846	1
605	825	844	1
15	822	842	1
18	821	841	1
23	820	840	1
26	819	839	1
622	624	814	1
349	545	807	1
554	555	813	1
499	579	818	1
499	579	851	1
535	569	848	1
58	828	846	1
65	825	844	1
505	822	842	1
504	821	841	1
503	820	840	1
628	819	839	1
73	824	832	1
616	617	811	1
67	533	829	1
571	572	801	1
224	608	805	1
166	606	804	1
458	603	796	1
496	572	801	1
464	516	626	1
167	516	626	1
463	665	806	1
463	608	805	1
613	614	794	1
481	606	804	1
441	595	793	1
400	568	765	1
463	608	806	1
445	515	764	1
423	513	696	1
502	568	765	1
423	513	561	1
364	603	796	1
401	514	560	1
353	444	761	1
401	514	561	1
99	515	764	1
444	517	761	1
587	588	797	1
304	571	801	1
225	560	742	1
486	613	794	1
167	643	800	1
318	423	561	1
224	606	805	1
508	634	773	1
514	560	742	1
441	671	793	1
166	626	804	1
412	519	746	1
318	514	561	1
400	513	765	1
70	551	552	1
352	588	797	1
399	513	561	1
399	401	561	1
526	528	749	1
61	554	555	1
432	519	746	1
559	560	738	1
167	516	800	1
444	445	764	1
424	767	769	1
70	550	551	1
516	800	802	1
46	47	550	1
62	547	548	1
44	45	553	1
62	546	547	1
61	553	554	1
401	560	738	1
513	696	765	1
353	354	761	1
48	62	546	1
393	522	562	1
42	43	556	1
393	395	562	1
358	528	749	1
469	558	737	1
176	178	527	1
352	797	799	1
225	558	742	1
234	522	562	1
482	603	798	1
410	413	529	1
48	49	546	1
348	634	773	1
482	798	799	1
46	70	550	1
477	518	768	1
383	518	768	1
458	613	796	1
515	767	769	1
44	61	553	1
99	515	767	1
451	587	598	1
409	410	529	1
45	70	553	1
47	62	550	1
234	522	570	1
279	524	526	1
64	623	624	1
42	69	556	1
409	523	529	1
279	524	536	1
331	771	774	1
444	517	764	1
32	33	623	1
585	587	598	1
409	523	540	1
412	434	746	1
158	564	736	1
49	543	546	1
354	468	760	1
43	61	556	1
178	279	527	1
434	436	762	1
575	576	644	1
278	737	756	1
315	576	644	1
32	64	623	1
342	344	735	1
74	531	532	1
563	564	736	1
49	50	543	1
406	585	598	1
163	558	737	1
220	222	570	1
244	540	715	1
344	346	710	1
346	709	710	1
51	66	530	1
33	621	623	1
176	527	669	1
547	548	549	1
70	552	553	1
526	527	749	1
469	558	742	1
575	604	644	1
154	640	745	1
559	562	738	1
531	532	533	1
575	577	604	1
182	184	638	1
530	531	541	1
61	555	556	1
74	530	531	1
279	526	527	1
33	34	621	1
531	534	541	1
220	234	570	1
182	536	638	1
291	705	729	1
66	530	541	1
160	601	703	1
333	497	569	1
52	53	74	1
180	182	536	1
254	570	679	1
52	74	530	1
407	540	591	1
180	279	536	1
601	630	703	1
62	548	550	1
523	540	715	1
235	275	580	1
392	493	539	1
298	333	569	1
281	538	646	1
524	525	536	1
296	332	578	1
57	618	619	1
222	254	570	1
35	57	618	1
57	619	620	1
495	537	578	1
161	311	725	1
221	235	580	1
492	497	506	1
407	409	540	1
525	536	638	1
245	247	625	1
396	494	557	1
105	106	614	1
449	563	564	1
275	565	580	1
268	298	299	1
600	601	713	1
254	268	679	1
296	578	642	1
298	299	333	1
101	104	595	1
406	584	585	1
413	758	778	1
332	495	578	1
365	449	563	1
333	379	492	1
232	266	607	1
498	571	572	1
334	498	571	1
105	108	614	1
379	392	539	1
278	573	574	1
34	57	621	1
50	66	543	1
119	406	650	1
123	126	584	1
184	188	638	1
126	241	584	1
416	633	674	1
224	607	608	1
379	492	539	1
299	333	379	1
41	69	579	1
104	441	595	1
172	225	558	1
247	308	625	1
344	710	735	1
244	540	591	1
275	293	565	1
234	559	562	1
266	457	607	1
142	278	573	1
38	71	581	1
533	534	535	1
127	129	577	1
552	553	554	1
394	396	557	1
50	51	66	1
127	577	604	1
542	544	545	1
406	598	650	1
522	570	679	1
92	240	582	1
600	713	717	1
610	611	689	1
387	489	583	1
35	36	618	1
106	614	794	1
311	590	725	1
573	575	577	1
268	289	298	1
219	234	559	1
71	615	616	1
228	633	674	1
198	473	589	1
379	391	392	1
488	498	505	1
475	705	729	1
398	494	567	1
192	407	591	1
230	273	592	1
394	493	557	1
392	394	493	1
241	584	585	1
333	492	497	1
163	172	558	1
172	219	225	1
51	52	530	1
37	71	615	1
304	457	803	1
225	559	560	1
548	550	551	1
392	393	394	1
302	334	571	1
574	575	576	1
432	519	752	1
252	423	632	1
244	473	715	1
271	296	642	1
400	567	568	1
592	593	647	1
245	589	625	1
329	365	563	1
129	135	577	1
334	488	498	1
98	101	595	1
217	232	607	1
131	458	612	1
142	148	278	1
135	142	573	1
573	574	575	1
433	565	566	1
84	86	602	1
566	580	724	1
261	646	668	1
398	399	400	1
327	329	433	1
394	395	396	1
396	398	494	1
538	646	668	1
232	265	266	1
112	131	612	1
398	400	567	1
593	647	681	1
170	224	606	1
265	266	302	1
473	589	625	1
371	487	605	1
219	225	559	1
396	397	398	1
40	59	579	1
165	166	170	1
121	123	584	1
192	193	591	1
329	433	563	1
365	442	449	1
266	302	304	1
47	48	62	1
284	286	631	1
302	304	571	1
389	482	603	1
223	238	610	1
241	585	586	1
123	125	126	1
214	230	592	1
487	627	628	1
39	59	581	1
360	610	611	1
158	731	736	1
147	166	626	1
198	199	589	1
489	496	504	1
43	44	61	1
45	46	70	1
119	121	406	1
238	295	610	1
138	139	146	1
135	573	577	1
126	132	133	1
147	165	166	1
408	409	410	1
241	586	643	1
457	607	608	1
132	133	138	1
293	327	565	1
146	147	165	1
243	407	408	1
402	601	630	1
41	42	69	1
295	360	610	1
115	119	650	1
98	594	595	1
412	413	519	1
565	566	580	1
299	379	391	1
166	170	606	1
391	392	393	1
458	612	613	1
170	217	224	1
125	126	132	1
133	138	139	1
410	411	412	1
39	40	59	1
373	487	627	1
96	98	594	1
615	616	617	1
351	405	599	1
86	89	602	1
254	267	268	1
112	114	131	1
358	528	744	1
92	94	582	1
139	146	147	1
386	403	490	1
190	192	243	1
192	243	407	1
383	462	518	1
353	355	444	1
160	601	713	1
284	631	639	1
403	578	642	1
407	408	409	1
188	190	688	1
198	244	473	1
94	96	150	1
101	103	104	1
298	349	569	1
314	402	630	1
196	198	244	1
247	248	261	1
89	92	240	1
393	394	395	1
37	38	71	1
436	526	528	1
251	260	639	1
611	689	700	1
402	599	600	1
586	587	588	1
399	400	513	1
108	112	612	1
108	612	614	1
295	324	360	1
121	406	584	1
473	625	704	1
245	246	247	1
273	592	647	1
302	303	334	1
410	412	413	1
104	105	106	1
387	456	489	1
300	403	642	1
327	433	565	1
300	386	403	1
386	387	583	1
209	245	246	1
300	301	386	1
217	224	607	1
271	273	296	1
334	380	488	1
309	310	353	1
491	495	503	1
389	451	482	1
203	209	641	1
403	490	537	1
36	37	615	1
332	369	491	1
103	104	105	1
34	35	57	1
202	209	245	1
172	173	219	1
389	458	603	1
397	398	399	1
230	271	273	1
261	308	309	1
327	328	329	1
445	447	515	1
214	215	592	1
163	164	172	1
296	297	332	1
314	351	402	1
395	396	397	1
217	218	232	1
246	247	248	1
232	233	265	1
585	586	587	1
94	150	582	1
355	444	445	1
468	529	758	1
89	240	602	1
309	353	355	1
344	345	346	1
131	307	389	1
329	330	365	1
31	32	64	1
230	231	271	1
351	402	599	1
40	41	579	1
342	343	344	1
369	371	605	1
147	167	626	1
408	410	411	1
411	412	434	1
215	592	593	1
156	161	311	1
273	296	297	1
168	214	215	1
36	615	618	1
456	489	496	1
170	171	217	1
219	220	234	1
38	39	581	1
369	491	605	1
371	373	487	1
96	150	594	1
260	284	639	1
126	133	241	1
365	366	442	1
193	196	591	1
214	216	230	1
293	326	327	1
114	131	307	1
286	312	631	1
148	149	163	1
272	277	300	1
310	353	354	1
297	332	369	1
307	389	451	1
202	203	209	1
248	262	646	1
144	154	640	1
297	370	647	1
336	341	342	1
363	636	637	1
386	490	583	1
306	416	674	1
196	197	198	1
196	244	591	1
188	189	190	1
104	106	441	1
131	389	458	1
168	169	214	1
227	363	649	1
312	314	630	1
271	272	642	1
332	491	495	1
273	297	647	1
112	113	114	1
142	145	148	1
416	418	633	1
190	191	192	1
301	386	387	1
247	261	308	1
252	318	423	1
308	309	310	1
351	404	405	1
77	82	656	1
199	201	202	1
135	140	142	1
199	202	589	1
222	237	254	1
184	187	188	1
81	253	658	1
161	162	168	1
133	241	643	1
123	124	125	1
57	620	621	1
156	157	161	1
121	122	123	1
212	363	636	1
84	602	658	1
106	441	795	1
231	271	272	1
402	600	601	1
119	120	121	1
447	448	483	1
312	313	314	1
154	155	156	1
445	446	447	1
108	109	112	1
178	180	279	1
277	300	301	1
314	350	351	1
266	304	457	1
369	370	371	1
620	621	622	1
622	623	624	1
636	637	645	1
202	245	589	1
139	167	643	1
418	419	427	1
139	147	167	1
146	315	635	1
193	195	196	1
617	618	619	1
416	417	418	1
98	100	101	1
96	97	98	1
92	93	94	1
94	95	96	1
101	102	103	1
272	300	642	1
371	372	373	1
354	760	761	1
216	230	231	1
312	630	631	1
144	153	154	1
105	107	108	1
343	344	345	1
248	261	646	1
201	202	203	1
345	346	347	1
630	631	703	1
286	288	312	1
89	91	92	1
115	117	119	1
315	576	730	1
197	198	199	1
508	510	634	1
265	302	303	1
356	463	665	1
289	298	349	1
341	342	343	1
165	170	171	1
169	214	216	1
243	686	688	1
403	537	578	1
138	146	315	1
264	320	437	1
306	322	416	1
246	248	249	1
212	227	363	1
162	168	169	1
404	405	464	1
395	562	738	1
129	134	135	1
354	414	468	1
133	139	643	1
434	435	436	1
175	212	636	1
227	264	649	1
328	329	330	1
544	546	547	1
195	196	197	1
297	369	370	1
355	445	446	1
448	483	484	1
468	523	529	1
446	447	448	1
436	524	526	1
155	156	157	1
157	161	162	1
370	371	372	1
191	192	193	1
330	365	366	1
264	437	649	1
189	190	191	1
326	327	328	1
187	188	189	1
469	737	756	1
188	638	688	1
366	442	443	1
171	217	218	1
380	488	502	1
460	508	773	1
612	613	614	1
303	334	380	1
86	88	89	1
153	154	155	1
259	282	421	1
350	351	404	1
128	130	669	1
288	312	313	1
79	81	253	1
77	79	656	1
313	314	350	1
218	232	233	1
387	388	456	1
531	533	534	1
417	418	419	1
322	416	417	1
272	276	277	1
320	437	438	1
383	461	462	1
12	13	651	1
307	451	598	1
324	382	383	1
103	105	107	1
615	617	618	1
355	446	668	1
81	84	658	1
125	132	604	1
106	794	795	1
261	309	668	1
295	323	324	1
362	475	476	1
259	421	678	1
462	499	500	1
346	347	755	1
310	354	414	1
79	253	656	1
508	509	510	1
253	656	657	1
160	666	703	1
66	541	542	1
336	342	705	1
203	204	205	1
132	604	644	1
158	564	743	1
146	165	635	1
114	115	650	1
199	200	201	1
238	294	295	1
113	114	115	1
356	426	463	1
109	112	113	1
93	94	95	1
95	96	97	1
97	98	100	1
473	704	715	1
525	686	688	1
621	622	623	1
411	434	435	1
91	92	93	1
347	348	480	1
122	123	124	1
130	176	669	1
233	252	632	1
243	408	686	1
120	121	122	1
88	89	91	1
251	639	666	1
100	101	102	1
125	127	604	1
414	468	523	1
107	108	109	1
347	755	757	1
117	119	120	1
124	125	127	1
336	340	341	1
211	226	228	1
260	283	284	1
11	12	60	1
144	152	153	1
231	272	276	1
446	538	668	1
164	172	173	1
184	186	187	1
438	485	486	1
140	142	145	1
286	287	288	1
284	285	286	1
291	335	336	1
149	163	164	1
306	321	322	1
250	470	471	1
175	211	212	1
419	452	453	1
212	226	227	1
169	216	236	1
301	387	388	1
239	305	306	1
385	776	777	1
134	135	140	1
362	476	676	1
250	471	663	1
264	305	320	1
428	719	721	1
639	666	703	1
182	183	184	1
270	290	291	1
542	543	544	1
24	25	65	1
227	239	264	1
435	436	524	1
193	194	195	1
155	157	160	1
201	203	204	1
114	307	650	1
209	246	662	1
448	538	654	1
21	22	56	1
446	448	538	1
152	251	259	1
173	219	220	1
237	254	267	1
145	148	149	1
229	269	270	1
285	287	319	1
197	199	200	1
282	283	431	1
13	14	68	1
180	181	182	1
259	260	282	1
313	350	352	1
132	138	644	1
267	268	289	1
309	355	668	1
276	277	356	1
320	438	485	1
321	322	454	1
417	419	452	1
152	153	251	1
397	399	401	1
19	20	73	1
258	682	693	1
211	212	226	1
190	243	688	1
257	472	517	1
143	144	152	1
345	347	348	1
305	306	321	1
103	107	682	1
283	284	285	1
287	319	364	1
404	464	516	1
178	179	180	1
251	259	260	1
239	264	305	1
260	282	283	1
226	227	239	1
285	286	287	1
10	11	660	1
341	343	385	1
102	257	422	1
233	265	632	1
422	472	479	1
293	325	326	1
370	647	681	1
422	682	693	1
116	118	432	1
200	201	653	1
382	383	461	1
509	510	512	1
16	17	58	1
323	324	382	1
633	719	721	1
191	193	194	1
130	141	176	1
223	610	689	1
20	21	661	1
176	177	178	1
507	508	509	1
294	295	323	1
307	598	650	1
370	372	681	1
391	393	522	1
423	632	696	1
461	462	499	1
81	83	84	1
91	93	424	1
322	417	664	1
525	638	688	1
9	10	72	1
84	85	86	1
86	87	88	1
201	204	653	1
153	155	666	1
308	625	704	1
79	80	81	1
77	78	79	1
276	356	425	1
356	425	426	1
194	195	250	1
195	197	663	1
233	242	252	1
425	426	478	1
335	336	340	1
194	250	362	1
275	292	293	1
426	478	481	1
411	435	686	1
153	251	666	1
257	422	472	1
277	356	665	1
100	102	257	1
186	187	213	1
318	390	514	1
321	454	671	1
252	317	318	1
283	431	672	1
95	97	99	1
183	184	186	1
216	231	684	1
290	291	335	1
320	485	670	1
102	103	682	1
115	116	117	1
408	411	686	1
210	440	697	1
88	91	673	1
277	301	665	1
366	443	477	1
165	171	635	1
362	470	475	1
269	270	290	1
8	9	690	1
328	330	331	1
417	452	664	1
181	182	183	1
305	320	670	1
435	524	525	1
107	109	258	1
308	310	704	1
290	335	337	1
216	236	684	1
141	177	316	1
155	160	666	1
239	306	674	1
250	362	470	1
138	315	644	1
372	375	681	1
179	180	181	1
186	213	223	1
143	152	678	1
91	424	673	1
113	115	116	1
152	259	678	1
235	274	275	1
197	200	663	1
107	258	682	1
226	228	674	1
179	181	185	1
321	670	671	1
322	454	664	1
223	229	238	1
294	323	429	1
238	269	294	1
265	303	632	1
231	276	684	1
305	321	670	1
177	178	179	1
195	250	663	1
418	427	721	1
283	285	672	1
213	223	229	1
229	238	269	1
268	299	679	1
189	191	676	1
218	233	242	1
102	422	682	1
127	128	129	1
382	461	501	1
88	90	673	1
141	176	177	1
116	117	118	1
317	390	430	1
242	317	691	1
120	122	358	1
285	319	672	1
129	130	134	1
301	388	665	1
11	60	660	1
435	525	686	1
566	724	731	1
325	326	384	1
543	544	546	1
20	73	661	1
12	60	651	1
124	127	128	1
183	186	689	1
566	731	736	1
130	134	141	1
21	56	661	1
242	252	317	1
292	293	325	1
257	517	687	1
128	129	130	1
471	709	710	1
276	425	684	1
317	318	390	1
226	239	674	1
145	149	158	1
157	160	713	1
477	518	771	1
405	599	747	1
211	228	714	1
422	479	693	1
97	100	687	1
270	291	729	1
347	480	757	1
390	430	469	1
191	194	676	1
518	771	774	1
10	72	660	1
631	639	703	1
292	325	381	1
116	432	692	1
220	221	222	1
310	414	704	1
169	236	717	1
317	430	691	1
274	292	701	1
7	8	63	1
194	362	676	1
593	681	722	1
134	140	683	1
303	380	696	1
326	328	685	1
97	99	687	1
141	316	683	1
466	722	727	1
236	684	712	1
13	68	651	1
109	113	692	1
222	235	237	1
274	275	292	1
186	223	689	1
405	464	750	1
100	257	687	1
161	168	725	1
291	336	705	1
204	653	697	1
326	384	685	1
173	220	221	1
128	669	698	1
228	714	719	1
213	716	723	1
204	206	697	1
171	218	702	1
187	213	716	1
122	124	698	1
134	141	683	1
323	382	695	1
221	222	235	1
109	258	692	1
235	237	274	1
342	705	735	1
299	391	679	1
323	429	695	1
177	316	699	1
157	162	713	1
113	116	692	1
242	691	702	1
471	663	708	1
294	429	694	1
425	684	712	1
470	471	710	1
290	337	694	1
200	663	708	1
328	331	685	1
269	290	694	1
200	653	708	1
269	294	694	1
181	185	700	1
476	676	716	1
179	185	699	1
122	358	698	1
189	676	716	1
218	242	702	1
177	179	699	1
181	183	700	1
274	701	718	1
382	501	695	1
391	522	679	1
708	709	728	1
599	600	739	1
183	689	700	1
433	563	736	1
9	72	690	1
187	189	716	1
414	523	715	1
414	704	715	1
66	542	543	1
124	128	698	1
267	289	338	1
162	169	717	1
292	381	701	1
148	163	737	1
303	632	696	1
171	635	702	1
471	708	709	1
421	678	720	1
228	633	719	1
229	270	723	1
375	681	722	1
311	590	733	1
425	478	712	1
388	665	806	1
637	645	734	1
594	595	793	1
593	722	727	1
480	757	759	1
162	713	717	1
221	580	724	1
418	633	721	1
215	725	727	1
476	716	723	1
237	274	718	1
237	267	718	1
427	721	726	1
4	5	67	1
8	63	690	1
405	747	750	1
315	635	730	1
150	594	792	1
653	708	728	1
637	734	740	1
215	593	727	1
590	725	727	1
311	733	745	1
173	221	724	1
267	338	718	1
360	768	780	1
431	740	741	1
437	649	748	1
437	438	751	1
428	721	726	1
164	173	724	1
213	229	723	1
154	156	745	1
240	582	790	1
470	475	735	1
363	649	741	1
282	431	740	1
236	717	739	1
168	215	725	1
150	582	791	1
395	397	738	1
149	158	731	1
594	792	793	1
475	705	735	1
438	751	753	1
466	590	727	1
434	746	762	1
438	486	753	1
440	697	728	1
475	476	729	1
270	723	729	1
653	697	728	1
574	576	754	1
472	479	760	1
117	118	744	1
600	717	739	1
149	164	731	1
164	724	731	1
599	739	747	1
150	791	792	1
120	358	744	1
145	158	743	1
421	720	734	1
390	469	742	1
140	683	743	1
278	574	756	1
476	723	729	1
118	744	762	1
437	748	751	1
649	741	748	1
582	790	791	1
433	566	736	1
635	702	730	1
691	702	730	1
148	278	737	1
470	710	735	1
637	740	741	1
421	734	740	1
574	754	756	1
397	401	738	1
282	421	740	1
481	606	805	1
258	693	752	1
683	743	763	1
468	758	760	1
236	712	739	1
427	784	788	1
363	637	741	1
390	514	742	1
156	311	745	1
432	692	752	1
140	145	743	1
117	120	744	1
436	528	762	1
449	564	763	1
118	432	746	1
576	730	754	1
669	698	749	1
527	669	749	1
479	758	778	1
431	672	748	1
447	483	769	1
324	383	768	1
712	739	747	1
431	741	748	1
691	730	754	1
478	747	750	1
478	712	747	1
442	449	766	1
528	744	762	1
413	529	758	1
693	752	778	1
442	443	772	1
95	99	767	1
478	481	750	1
93	424	767	1
380	696	765	1
358	698	749	1
449	763	766	1
443	772	775	1
672	748	751	1
319	751	753	1
319	672	751	1
564	743	763	1
258	692	752	1
462	500	774	1
517	687	764	1
319	364	753	1
366	477	771	1
330	331	771	1
634	776	777	1
348	634	776	1
413	519	778	1
479	758	760	1
345	348	776	1
343	385	776	1
472	517	761	1
430	691	754	1
477	768	780	1
709	728	755	1
346	709	755	1
442	766	772	1
440	755	757	1
430	754	756	1
331	685	779	1
519	752	778	1
430	469	756	1
439	440	757	1
440	728	755	1
611	700	775	1
316	683	763	1
316	763	766	1
658	785	789	1
360	611	780	1
611	775	780	1
380	502	765	1
424	673	781	1
99	687	764	1
93	95	767	1
324	360	768	1
316	699	766	1
447	515	769	1
588	800	802	1
472	760	761	1
483	769	781	1
118	746	762	1
330	366	771	1
348	480	773	1
699	766	772	1
185	699	772	1
185	772	775	1
352	588	802	1
462	518	774	1
482	797	799	1
343	345	776	1
185	700	775	1
510	634	777	1
331	774	779	1
500	774	779	1
479	693	778	1
443	775	780	1
364	603	798	1
483	781	782	1
424	769	781	1
419	453	784	1
464	626	804	1
443	477	780	1
656	657	787	1
451	587	797	1
240	602	789	1
657	784	788	1
480	770	773	1
255	673	781	1
253	658	785	1
670	671	795	1
441	671	795	1
427	726	788	1
287	364	798	1
313	352	799	1
304	801	803	1
586	643	800	1
453	785	789	1
457	608	806	1
388	456	803	1
350	352	802	1
404	516	802	1
426	481	805	1
464	750	804	1
486	613	796	1
486	753	796	1
657	787	788	1
253	657	785	1
419	427	784	1
453	784	785	1
240	789	790	1
82	656	787	1
455	726	788	1
602	658	789	1
452	453	790	1
452	790	791	1
452	664	791	1
454	664	792	1
664	791	792	1
454	671	793	1
454	792	793	1
485	486	794	1
485	670	795	1
485	794	795	1
451	482	797	1
287	288	798	1
288	313	799	1
288	798	799	1
455	787	788	1
657	784	785	1
586	588	800	1
456	496	801	1
350	404	802	1
426	463	805	1
457	803	806	1
364	753	796	1
388	803	806	1
481	750	804	1
453	789	790	1
456	801	803	1
534	541	807	1
542	545	807	1
349	545	852	1
541	542	807	1
69	556	808	1
547	549	809	1
544	545	809	1
335	337	810	1
67	535	850	1
555	556	808	1
337	694	811	1
548	551	812	1
685	779	813	1
549	809	857	1
340	341	814	1
619	620	810	1
544	547	809	1
59	579	818	1
71	616	815	1
510	512	816	1
325	381	817	1
335	340	810	1
551	812	855	1
69	579	851	1
64	624	816	1
461	501	818	1
55	509	830	1
338	809	857	1
25	26	819	1
22	23	820	1
17	18	821	1
14	15	822	1
5	6	823	1
489	583	824	1
491	605	825	1
498	572	828	1
6	7	827	1
4	67	829	1
534	535	848	1
381	701	812	1
500	779	854	1
24	65	840	1
19	73	841	1
16	58	842	1
492	506	843	1
495	503	845	1
487	628	844	1
488	505	847	1
496	504	846	1
1	53	849	1
1	2	849	1
74	532	849	1
289	349	852	1
701	718	857	1
501	695	815	1
500	808	854	1
429	694	811	1
548	549	812	1
381	812	855	1
337	810	856	1
620	810	853	1
384	685	813	1
341	385	814	1
340	810	853	1
71	581	815	1
510	777	816	1
325	384	817	1
497	506	850	1
619	810	856	1
3	532	829	1
30	512	830	1
545	809	852	1
349	569	848	1
628	819	844	1
503	820	845	1
505	822	847	1
504	821	846	1
73	824	841	1
65	825	840	1
506	827	843	1
58	828	842	1
499	500	851	1
461	499	818	1
29	30	830	1
497	535	850	1
349	807	848	1
25	65	819	1
22	56	820	1
17	58	821	1
14	68	822	1
5	67	823	1
489	504	824	1
491	503	825	1
7	63	827	1
498	505	828	1
3	4	829	1
532	533	829	1
500	808	851	1
509	512	830	1
337	811	856	1
338	809	852	1
56	831	845	1
68	833	847	1
63	834	843	1
490	537	831	1
490	583	832	1
490	831	832	1
502	568	833	1
567	568	835	1
494	567	838	1
568	833	835	1
494	557	837	1
567	835	838	1
493	539	834	1
493	557	836	1
494	837	838	1
557	836	837	1
493	834	836	1
73	661	832	1
56	661	831	1
661	831	832	1
68	651	833	1
60	651	835	1
651	833	835	1
60	835	838	1
60	660	838	1
72	660	837	1
72	690	836	1
63	690	834	1
72	836	837	1
660	837	838	1
690	834	836	1
537	831	845	1
502	833	847	1
539	834	843	1
23	24	840	1
18	19	841	1
15	16	842	1
492	539	843	1
496	572	846	1
495	537	845	1
487	605	844	1
488	502	847	1
534	807	848	1
340	814	853	1
779	813	854	1
53	74	849	1
69	808	851	1
551	552	855	1
381	817	855	1
506	823	850	1
289	338	852	1
620	622	853	1
617	619	856	1
338	718	857	1
617	811	856	1
555	808	854	1
555	813	854	1
622	814	853	1
67	823	850	1
65	819	844	1
56	820	845	1
58	821	846	1
68	822	847	1
504	824	841	1
503	825	840	1
505	828	842	1
63	827	843	1
552	817	855	1
55	507	509	1
521	640	745	1
281	538	654	1
262	281	646	1
636	645	677	1
373	378	627	1
248	249	262	1
209	641	662	1
203	205	641	1
137	144	640	1
372	373	374	1
75	77	82	1
460	507	508	1
175	636	677	1
448	484	654	1
210	439	440	1
137	143	144	1
246	249	662	1
372	374	375	1
466	467	590	1
174	175	211	1
204	205	206	1
83	84	85	1
80	81	83	1
78	79	80	1
87	88	90	1
85	86	87	1
76	77	78	1
143	359	678	1
90	255	673	1
206	210	697	1
377	466	722	1
174	211	714	1
474	714	719	1
368	428	726	1
428	474	719	1
375	377	722	1
359	678	720	1
467	590	733	1
521	733	745	1
368	455	726	1
707	720	734	1
645	707	734	1
480	759	770	1
439	757	759	1
483	484	782	1
460	770	773	1
255	781	782	1
455	786	787	1
82	786	787	1
29	55	830	1
627	628	826	1
26	27	839	1
628	826	839	1
55	507	511	1
521	640	711	1
484	597	654	1
281	596	654	1
641	652	662	1
256	645	677	1
262	280	281	1
28	29	55	1
378	627	629	1
373	374	378	1
205	609	641	1
249	262	263	1
367	428	474	1
75	82	648	1
374	375	376	1
76	78	655	1
80	83	667	1
205	206	207	1
87	90	110	1
78	80	151	1
83	85	415	1
85	87	675	1
465	466	467	1
367	368	428	1
375	376	377	1
159	174	175	1
368	450	455	1
377	465	466	1
256	645	707	1
136	143	359	1
249	357	662	1
136	137	143	1
90	111	255	1
459	460	507	1
159	175	677	1
75	76	77	1
206	208	210	1
210	361	439	1
137	640	711	1
174	659	714	1
474	659	714	1
706	707	720	1
359	706	720	1
520	521	733	1
467	520	733	1
420	759	770	1
339	460	770	1
439	732	759	1
484	782	783	1
255	680	782	1
450	455	786	1
82	648	786	1
627	629	826	1
27	54	839	1
54	826	839	1


End