 MeshVersionFormatted 2
 Dimension
 3
 Vertices
 513
                    0                         0                         0      1
                    1                         0                         0      2
                    1                         1                         0      3
                    0                         1                         0      4
      0.0499999999999                         0                         0      1
    0.099999999999815                         0                         0      1
      0.1499999999997                         0                         0      1
     0.19999999999956                         0                         0      1
     0.24999999999941                         0                         0      1
     0.29999999999927                         0                         0      1
     0.34999999999912                         0                         0      1
     0.39999999999897                         0                         0      1
     0.44999999999883                         0                         0      1
     0.49999999999869                         0                         0      1
     0.54999999999882                         0                         0      1
     0.59999999999895                         0                         0      1
     0.64999999999908                         0                         0      1
     0.69999999999921                         0                         0      1
     0.74999999999934                         0                         0      1
     0.79999999999947                         0                         0      1
     0.84999999999961                         0                         0      1
     0.89999999999974                         0                         0      1
     0.94999999999987                         0                         0      1
                    1           0.0499999999999                         0      2
                    1         0.099999999999815                         0      2
                    1           0.1499999999997                         0      2
                    1          0.19999999999956                         0      2
                    1          0.24999999999941                         0      2
                    1          0.29999999999927                         0      2
                    1          0.34999999999912                         0      2
                    1          0.39999999999897                         0      2
                    1          0.44999999999883                         0      2
                    1          0.49999999999869                         0      2
                    1          0.54999999999882                         0      2
                    1          0.59999999999895                         0      2
                    1          0.64999999999908                         0      2
                    1          0.69999999999921                         0      2
                    1          0.74999999999934                         0      2
                    1          0.79999999999947                         0      2
                    1          0.84999999999961                         0      2
                    1          0.89999999999974                         0      2
                    1          0.94999999999987                         0      2
     0.94999999999979                         1                         0      3
     0.89999999999958                         1                         0      3
     0.84999999999965                         1                         0      3
                  0.8                         1                         0      3
     0.75000000000035                         1                         0      3
     0.70000000000069                         1                         0      3
     0.65000000000104                         1                         0      3
     0.60000000000139                         1                         0      3
     0.55000000000173                         1                         0      3
     0.50000000000206                         1                         0      3
     0.45000000000187                         1                         0      3
     0.40000000000166                         1                         0      3
     0.35000000000146                         1                         0      3
     0.30000000000125                         1                         0      3
     0.25000000000104                         1                         0      3
     0.20000000000083                         1                         0      3
     0.15000000000062                         1                         0      3
     0.10000000000042                         1                         0      3
    0.050000000000208                         1                         0      3
                    0          0.94999999999979                         0      4
                    0          0.89999999999958                         0      4
                    0          0.84999999999965                         0      4
                    0                       0.8                         0      4
                    0          0.75000000000035                         0      4
                    0          0.70000000000069                         0      4
                    0          0.65000000000104                         0      4
                    0          0.60000000000139                         0      4
                    0          0.55000000000173                         0      4
                    0          0.50000000000206                         0      4
                    0          0.45000000000187                         0      4
                    0          0.40000000000166                         0      4
                    0          0.35000000000146                         0      4
                    0          0.30000000000125                         0      4
                    0          0.25000000000104                         0      4
                    0          0.20000000000083                         0      4
                    0          0.15000000000062                         0      4
                    0          0.10000000000042                         0      4
                    0         0.050000000000208                         0      4
     0.47500000000197          0.95669872981084                         0      1
    0.050466564200387          0.47718827909724                         0      1
     0.52499999999875         0.043301270189216                         0      1
     0.96600758030792          0.52345026416867                         0      1
    0.043301270188922          0.67500000000087                         0      1
     0.67500000000096          0.95669872981132                         0      1
     0.32499999999919         0.043301270189096                         0      1
     0.95612928731094          0.32551510295776                         0      1
     0.32500000000202           0.9566987298107                         0      1
    0.042255350435948          0.32500000000144                         0      1
     0.96282187599645          0.67427343968717                         0      1
     0.67499999999914         0.043301270189336                         0      1
     0.82499999999984          0.95669872981118                         0      1
    0.044427151035995          0.82546009995068                         0      1
    0.041882175550228          0.17803471351391                         0      1
     0.82700217866453          0.04191013759588                         0      1
     0.17500000000136          0.95669872981071                         0      1
     0.95165750576805          0.82976030255924                         0      1
      0.9555728489641          0.17453990004897                         0      1
     0.17499999999963         0.043301270189096                         0      1
     0.42719972597589         0.044644999797099                         0      1
     0.95513167151137           0.4225429761625                         0      1
    0.039571394316416          0.57609504069261                         0      1
     0.57500000000154          0.95669872981106                         0      1
     0.92306624326998          0.95781518477922                         0      1
    0.045284862372255          0.92040871904685                         0      1
    0.042408199997359         0.074918568268314                         0      1
     0.92306624327003         0.042184815220848                         0      1
     0.42500000000189          0.95669872981082                         0      1
     0.45000000000206          0.91339745962181                         0      1
      0.4000000000023          0.91339745962165                         0      1
     0.42500000000233          0.87009618943275                         0      1
     0.47500000000209          0.87009618943292                         0      1
     0.45000000000232          0.82679491924387                         0      1
     0.50000000000207          0.82679491924404                         0      1
     0.47500000000231          0.78349364905498                         0      1
     0.52500000000201          0.78349364905514                         0      1
     0.50000000000229          0.74019237886607                         0      1
     0.45000000000257          0.74019237886592                         0      1
     0.47500000000256            0.696891108677                         0      1
      0.5250000000023          0.69689110867715                         0      1
     0.50000000000256          0.65358983848808                         0      1
     0.55000000000231          0.65358983848823                         0      1
     0.52500000000256          0.61028856829914                         0      1
     0.47500000000281            0.610288568299                         0      1
     0.50000000000281          0.56698729811006                         0      1
     0.55000000000256          0.56698729811021                         0      1
     0.52500000000281          0.52368602792111                         0      1
     0.47500000000304          0.52368602792097                         0      1
     0.50000000000306          0.48038475773201                         0      1
     0.45000000000327          0.48038475773187                         0      1
     0.55000000000281          0.48038475773216                         0      1
     0.47500000000329           0.4370834875429                         0      1
      0.4250000000035          0.43708348754275                         0      1
     0.40000000000347          0.48038475773174                         0      1
      0.3750000000037          0.43708348754261                         0      1
     0.45000000000352          0.39378221735377                         0      1
     0.35000000000367           0.4803847577316                         0      1
     0.32500000000389          0.43708348754246                         0      1
     0.30000000000387          0.48038475773146                         0      1
     0.27500000000407          0.43708348754233                         0      1
      0.3000000000041          0.39378221735331                         0      1
     0.32500000000365          0.52368602792057                         0      1
     0.27500000000386          0.52368602792044                         0      1
     0.30000000000363          0.56698729810953                         0      1
     0.25000000000388           0.5669872981094                         0      1
     0.27500000000364          0.61028856829846                         0      1
     0.25000000000423          0.39378221735318                         0      1
     0.27500000000429          0.35048094716414                         0      1
     0.57500000000205          0.69689110867731                         0      1
     0.60000000000206          0.65358983848838                         0      1
     0.62500000000181          0.69689110867747                         0      1
     0.65000000000183          0.65358983848853                         0      1
     0.67500000000158          0.69689110867767                         0      1
     0.70000000000161          0.65358983848868                         0      1
     0.72500000000138          0.69689110867785                         0      1
     0.75000000000142          0.65358983848883                         0      1
     0.72500000000164           0.6102885682997                         0      1
     0.50000000000333          0.39378221735392                         0      1
     0.47500000000355          0.35048094716478                         0      1
     0.52500000000339          0.35048094716493                         0      1
      0.5000000000036          0.30717967697577                         0      1
     0.55000000000346          0.30717967697593                         0      1
     0.52500000000365          0.26387840678676                         0      1
      0.4750000000038          0.26387840678661                         0      1
     0.57500000000352          0.26387840678691                         0      1
     0.60000000000333           0.3071796769761                         0      1
      0.6250000000034          0.26387840678706                         0      1
     0.65000000000321          0.30717967697626                         0      1
     0.67500000000329          0.26387840678722                         0      1
      0.7000000000031          0.30717967697642                         0      1
     0.72500000000319          0.26387840678737                         0      1
       0.750000000003          0.30717967697658                         0      1
     0.72500000000292          0.35048094716562                         0      1
     0.40000000000261          0.82679491924374                         0      1
     0.65000000000157          0.74019237886669                         0      1
     0.77500000000119          0.69689110867799                         0      1
     0.75000000000113          0.74019237886699                         0      1
     0.77500000000309          0.26387840678753                         0      1
     0.75000000000327           0.2205771365983                         0      1
     0.60000000000356          0.22081231080011                         0      1
     0.77500000000146          0.61028856829983                         0      1
     0.75000000000167          0.56698729811069                         0      1
      0.7750000000028          0.35048094716578                         0      1
     0.22500000000389          0.61028856829834                         0      1
     0.25000000000365           0.6535898384874                         0      1
     0.22500000000406          0.52368602792032                         0      1
     0.22500000000442          0.35048094716401                         0      1
     0.25000000000448          0.30717967697496                         0      1
     0.30000000000435          0.30717967697511                         0      1
     0.27500000000454          0.26387840678592                         0      1
     0.22500000000465          0.26387840678578                         0      1
     0.25000000000471           0.2205771365967                         0      1
     0.30000000000458          0.22057713659689                         0      1
     0.50000000000385           0.2205771365976                         0      1
     0.80000000000098          0.74019237886715                         0      1
     0.77500000000093          0.78349364905617                         0      1
     0.20000000000436          0.39378221735306                         0      1
     0.42500000000283          0.69689110867685                         0      1
     0.75000000000273           0.3937822173548                         0      1
     0.70000000000277          0.39378221735463                         0      1
      0.2000000000048          0.22057713659657                         0      1
     0.79809167642347          0.22167890773091                         0      1
     0.80000000000151          0.56698729811083                         0      1
     0.20000000000392          0.65358983848727                         0      1
     0.22500000000366          0.69689110867634                         0      1
     0.80000000000253          0.39378221735493                         0      1
     0.27500000000342          0.69689110867648                         0      1
     0.25000000000344          0.74019237886545                         0      1
     0.20000000000364          0.74019237886529                         0      1
     0.22500000000343          0.78349364905444                         0      1
     0.70000000000185          0.56698729811055                         0      1
       0.450000000004          0.22057713659745                         0      1
      0.5500000000018          0.82679491924426                         0      1
     0.22500000000488          0.17727586640747                         0      1
     0.77468194607341          0.17745949493129                         0      1
      0.7249469910151          0.17730647116274                         0      1
     0.47303305931347          0.17841148014561                         0      1
     0.42467217655577          0.17746513536448                         0      1
      0.8250000000013          0.61028856829999                         0      1
     0.17572003555066          0.26429411950191                         0      1
     0.82393832361338          0.26449136593703                         0      1
     0.17500000000494          0.17727586640734                         0      1
     0.81839163750064          0.17492302548443                         0      1
     0.17467830396498          0.78330791775992                         0      1
     0.82435906989273          0.78312360788591                         0      1
     0.17500000000416          0.61028856829822                         0      1
     0.19994638399694          0.82676396402772                         0      1
     0.24999106400218          0.82678976004098                         0      1
     0.35000000000347          0.56698729810965                         0      1
     0.30000000000324          0.74019237886558                         0      1
     0.42500000000375          0.35048094716463                         0      1
     0.72500000000188           0.5236860279216                         0      1
     0.67500000000206          0.52368602792141                         0      1
     0.79989317831586          0.82673324571683                         0      1
     0.74998219638674          0.82678464032374                         0      1
     0.74993815618382           0.1340103017659                         0      1
     0.15000000000381          0.74019237886512                         0      1
     0.85000000000085          0.74019237886729                         0      1
     0.85000000000135          0.56698729811097                         0      1
     0.82500000000155          0.52368602792188                         0      1
     0.14961575195642          0.82657307353052                         0      1
     0.84923444459315          0.82825809383154                         0      1
     0.22498957466859          0.87009017036293                         0      1
     0.32500000000324           0.6968911086766                         0      1
     0.62500000000315          0.35048094716531                         0      1
     0.42500000000398          0.26387840678647                         0      1
     0.40000000000281          0.74019237886577                         0      1
     0.82500000000266          0.35048094716593                         0      1
     0.85000000000228          0.39378221735506                         0      1
     0.62500000000206          0.61028856829943                         0      1
     0.55000000000317           0.3937822173541                         0      1
     0.14995544191067          0.65361556411442                         0      1
     0.52500000000391          0.17727586640858                         0      1
     0.17500000000455          0.35048094716388                         0      1
     0.15000000000452          0.39378221735293                         0      1
     0.17500000000431          0.43708348754207                         0      1
     0.77500000000226          0.43708348754389                         0      1
     0.27499677311382          0.87009432638728                         0      1
     0.29999797285471          0.82679374886902                         0      1
     0.77497922911719          0.87008419735914                         0      1
     0.72499357091799          0.87009247760131                         0      1
     0.69999596121827          0.82679258745264                         0      1
     0.67499825535687          0.87009518216298                         0      1
     0.64999903609683          0.82679436273429                         0      1
     0.62499954857653          0.87009592880334                         0      1
     0.69998085786888          0.13422082213865                         0      1
     0.87500000000116          0.61028856830015                         0      1
     0.44151699126565          0.13555299899827                         0      1
     0.40000000000439          0.13397459621912                         0      1
     0.20000000000503          0.13420977042061                         0      1
     0.15000000000507          0.13424896612085                         0      1
     0.25000000000493          0.13401379191877                         0      1
      0.1262679050971          0.43781551288846                         0      1
     0.15021131751977          0.48050676195547                         0      1
     0.09297212827193          0.39622204529023                         0      1
     0.12617408913879          0.60961070762034                         0      1
     0.15019568152674          0.56687432132952                         0      1
     0.57500000000175           0.7834936490553                         0      1
     0.85000000000109          0.65358983848919                         0      1
     0.67498797481633          0.17732200485433                         0      1
     0.65435901942759          0.13060999713785                         0      1
     0.37494536276297          0.17730741123416                         0      1
     0.34999089379773          0.13421502789217                         0      1
     0.70000000000218          0.48038475773258                         0      1
     0.65000000000228          0.48038475773243                         0      1
     0.62500000000226          0.52368602792131                         0      1
     0.24999772463214          0.91339614593582                         0      1
     0.32499912433002          0.87009568386252                         0      1
     0.74999546667279          0.91339484230492                         0      1
     0.87373660298904          0.35061761899357                         0      1
     0.12191651417872          0.17995901554911                         0      1
     0.87349067025835           0.5228146159885                         0      1
     0.84974844504445          0.48023952241075                         0      1
     0.10028993767958            0.131675750428                         0      1
     0.89804573935039          0.47917847031462                         0      1
     0.22500000000513         0.090673326029164                         0      1
     0.72500000000368         0.090673326030655                         0      1
     0.36764157734253         0.090543866838615                         0      1
     0.12570035259433         0.086665147568624                         0      1
     0.77404892333907         0.092630221721043                         0      1
     0.27500000000503         0.090673326029315                         0      1
     0.90680465027217           0.3957859913825                         0      1
    0.092882434623212          0.65214655667497                         0      1
     0.89666811683152          0.65278312031573                         0      1
     0.92161342515275          0.61241556489648                         0      1
      0.1060419291083          0.56253314289009                         0      1
     0.10310153264023           0.4798549629672                         0      1
     0.19999788321809          0.91339623749564                         0      1
     0.37500000000207          0.95669872981073                         0      1
    0.044891232203681          0.42331432733565                         0      1
    0.043301270189481          0.37500000000191                         0      1
     0.67499916622011          0.78349316767205                         0      1
     0.52500000000178          0.95669872981092                         0      1
     0.55000000000171          0.91339745962208                         0      1
    0.040471778265411          0.52868590694338                         0      1
     0.20003521959011          0.48040509176862                         0      1
     0.57499999999883         0.043301270189232                         0      1
     0.54999999999874         0.086367366176143                         0      1
     0.59999999999867         0.086602540378471                         0      1
     0.56761749143019          0.13001936375294                         0      1
     0.50219972597575         0.087907074285949                         0      1
     0.59999976411331          0.82679478305434                         0      1
     0.37500000000305          0.69689110867672                         0      1
     0.40000000000308          0.65358983848778                         0      1
     0.35000000000327          0.65358983848765                         0      1
     0.62303305930912          0.04216565645256                         0      1
     0.95036022602239           0.4764435580841                         0      1
     0.47573324199112         0.043507473239492                         0      1
     0.35000000000302          0.74019237886567                         0      1
    0.043126950230437          0.27500000000118                         0      1
    0.093804582313277          0.30343332960386                         0      1
     0.08472190821985          0.24965292612641                         0      1
     0.62499987648515          0.78349357774342                         0      1
    0.049443164989466          0.12782888958286                         0      1
     0.87467770721142          0.95688480563894                         0      1
     0.89962399174669           0.9136145480879                         0      1
     0.95394200651194          0.91856048313145                         0      1
     0.92445497582851          0.87420957528281                         0      1
     0.84988361649279          0.91346465367146                         0      1
      0.9587555512833          0.72487890661392                         0      1
     0.95620132938236          0.77577320152844                         0      1
     0.91848214282459          0.79500656692115                         0      1
     0.90884914000567          0.74632811884084                         0      1
     0.12540865088129          0.95693466450659                         0      1
      0.1500677556842          0.91343657838314                         0      1
    0.099702195703844          0.91484777979783                         0      1
     0.12489761722482          0.87030745496983                         0      1
    0.074738747070611           0.8715535509101                         0      1
    0.098294972310411          0.82648188524863                         0      1
     0.07326003256926          0.77891983907612                         0      1
     0.12306982377214          0.78237926128795                         0      1
    0.098785742355508          0.73763929961172                         0      1
     0.12454114091416          0.69650723198108                         0      1
     0.87499999999965         0.043301270189328                         0      1
     0.89967770721142         0.086416464550514                         0      1
     0.95394968014977         0.081443947245374                         0      1
     0.92499999999973          0.12990381056784                         0      1
     0.87499999999973          0.12990381056783                         0      1
     0.90351666425201          0.17264352903633                         0      1
     0.92697733618479          0.22099451555696                         0      1
     0.88285221306464           0.2197185135429                         0      1
     0.90393608576765          0.25988889959967                         0      1
    0.042874123919097          0.22545671099467                         0      1
      0.5000000000019          0.91339745962193                         0      1
     0.27500000000474          0.17728239902437                         0      1
      0.3750000000033          0.61028856829871                         0      1
       0.675000000003          0.35048094716547                         0      1
     0.65000000000279          0.39378221735448                         0      1
     0.60000000000295          0.39378221735428                         0      1
     0.85111524841418         0.085932302755574                         0      1
     0.37500000000347           0.5236860279207                         0      1
     0.42500000000327          0.52368602792083                         0      1
     0.22500586993519          0.43708687654843                         0      1
     0.65000000000206          0.56698729811044                         0      1
     0.25000684825686          0.48038871157193                         0      1
     0.32500000000414          0.35048094716429                         0      1
     0.35000000000419          0.30717967697528                         0      1
     0.32500000000437           0.2638784067861                         0      1
     0.69999986103782          0.74019229863621                         0      1
     0.32500000000343          0.61028856829859                         0      1
     0.37500000000283          0.78349364905471                         0      1
     0.12500000000469          0.35048094716375                         0      1
     0.20003261359118          0.56696846864601                         0      1
      0.9566987298109          0.37499999999905                         0      1
       0.324999662145          0.78349345399221                         0      1
     0.95030874532518          0.26998273903166                         0      1
    0.046942629066769          0.73073108894771                         0      1
    0.042974032005474          0.62657287932917                         0      1
     0.79982305393795          0.30728183683496                         0      1
      0.7249961974775          0.78349145366797                         0      1
     0.45000000000378          0.30717967697563                         0      1
     0.45000000000306          0.56698729810992                         0      1
     0.59999997941573          0.74019236698107                         0      1
     0.62500000000123          0.95669872981121                         0      1
     0.77500000000171          0.52368602792179                         0      1
     0.35000000000392          0.39378221735346                         0      1
     0.57500000000231          0.61028856829929                         0      1
     0.45000000000282          0.65358983848793                         0      1
     0.39993625655588          0.22061393889433                         0      1
     0.42500000000257          0.78349364905483                         0      1
     0.54999999657102          0.74019237688534                         0      1
     0.30000000000344          0.65358983848753                         0      1
     0.84735527821206           0.3086078160183                         0      1
     0.12810107320982          0.52198546223061                         0      1
     0.52500000000309          0.43708348754305                         0      1
      0.5500000000037          0.22085150650036                         0      1
     0.20012000592892          0.30724896242755                         0      1
     0.17491609713998          0.69683141683159                         0      1
     0.67500000000184          0.61028856829956                         0      1
       0.274998116502          0.78349256161461                         0      1
     0.17559598424028          0.52340435564176                         0      1
     0.57500000000324          0.35048094716511                         0      1
     0.69998916097411          0.22058992713133                         0      1
     0.42500000000307          0.61028856829886                         0      1
     0.80000000000124            0.653589838489                         0      1
      0.8989072111904          0.56745956135718                         0      1
     0.40000000000372          0.39378221735361                         0      1
     0.79434780117929          0.13027631569249                         0      1
     0.57500000000282          0.43708348754322                         0      1
     0.15261364155465          0.22231784725978                         0      1
     0.34999945988964          0.82679460740914                         0      1
     0.40000000000327          0.56698729810978                         0      1
     0.37500000000394          0.35048094716446                         0      1
     0.64999618930071           0.2206261537948                         0      1
     0.52500000000186          0.87009618943309                         0      1
     0.17491916112485          0.87009457979496                         0      1
     0.40000000000398          0.30717967697548                         0      1
     0.60000000000229          0.56698729811033                         0      1
      0.6278883519275          0.17517090640539                         0      1
     0.72500000000255          0.43708348754374                         0      1
     0.82500000000103          0.69689110867815                         0      1
     0.15000000000473          0.30717967697473                         0      1
     0.57500000000253          0.52368602792125                         0      1
     0.37499976403833           0.8700960531985                         0      1
     0.37498937609613          0.26388454050246                         0      1
     0.29999848230368          0.13425746375266                         0      1
     0.87502208318524          0.69829742753174                         0      1
     0.34999216444816          0.22058166045761                         0      1
     0.32499682872589          0.17730041783227                         0      1
     0.60000000000252          0.48038475773231                         0      1
     0.59999992476391          0.91339741618389                         0      1
     0.57499987290985          0.87009611605683                         0      1
     0.62500000000261          0.43708348754339                         0      1
     0.75000000000196          0.48038475773285                         0      1
     0.64999962145012          0.91339724106593                         0      1
     0.67500000000253          0.43708348754354                         0      1
     0.69999781906654          0.91339620045967                         0      1
     0.79995807417566          0.48036055184585                         0      1
     0.82495108653814          0.43705524734245                         0      1
     0.87500000000164          0.43708348754421                         0      1
     0.72499888095692          0.95669808373126                         0      1
     0.34999981472962          0.91339735265423                         0      1
     0.77499905793826          0.95669818591173                         0      1
     0.29999890613493          0.91339682807693                         0      1
     0.79997622837006          0.91340613308206                         0      1
     0.27499943846232          0.95669840560567                         0      1
     0.22499978508776          0.95669860572967                         0      1
     0.82482778281479          0.87034041884914                         0      1
     0.87467080191244          0.87301886970127                         0      1
     0.95562141070627          0.57276432861669                         0      1
     0.77455614379362         0.043881178355571                         0      1
     0.72497689211707          0.04024531919158                         0      1
     0.45571980915797         0.089803264501401                         0      1
     0.52499999999874          0.12849276535397                         0      1
     0.67591306920094         0.093030457105898                         0      1
     0.57898723468939          0.17570792880758                         0      1
     0.37893329275884         0.044823057764187                         0      1
     0.32352619068963         0.098598190940372                         0      1
     0.27499999999934         0.041890224975127                         0      1
     0.22499999999978         0.040141666890818                         0      1
     0.17503646150992         0.093577323352328                         0      1
     0.12562691533794         0.034367742618603                         0      1
     0.89999150481142          0.30669800663282                         0      1
    0.076533669287923          0.95893607549281                         0      1
    0.079493725668475         0.045351491960196                         0      1
    0.080792829016956          0.20400943800609                         0      1
     0.87319508952258          0.78497189545472                         0      1
     0.12868497212195          0.26328578586748                         0      1
     0.92291837100264          0.69036694185277                         0      1
    0.079712482133101          0.35001947458062                         0      1
      0.9186721550389          0.35072334399314                         0      1
    0.080796960667836          0.69851848797862                         0      1
    0.079467076185842         0.093287969561598                         0      1
    0.079396768634721          0.59622214879211                         0      1
     0.96522382518309          0.62499999999901                         0      1
    0.083539872482665          0.44287902551576                         0      1
     0.91706845743159          0.44220689669759                         0      1
    0.032890152095772          0.87348447398138                         0      1
     0.96625356863765          0.87474799601748                         0      1
     0.96660999392709          0.12556682933488                         0      1
    0.084055978459522          0.51845755632113                         0      1
     0.91594402154292          0.51845755632136                         0      1
    0.032925962534405          0.77702220559497                         0      1
      0.9673718682344          0.22499999999949                         0      1
     0.89963968834286          0.83631135004708                         0      1
     0.86446411624439          0.26876843832932                         0      1
     0.83935053608998          0.22513666493932                         0      1
      0.9633974596214          0.96339745962142                         0      1
    0.036602540378566         0.036602540378648                         0      1
    0.036602540378585          0.96339745962142                         0      1
     0.96339745962142         0.036602540378518                         0      1
     0.63819835586004         0.079788857958323                         0      1
     0.48819835586063          0.14078827864247                         0      1
     0.41222469649658         0.092060905286483                         0      1
     0.61232663192798           0.1254031448381                         0      1
     0.86011374948461          0.17194523771141                         0      1
      0.8360694560567            0.125930570503                         0      1
     0.81201307198944         0.079666790031458                         0      1
    0.079637165925373          0.16552499943183                         0      1
     0.11374597301843          0.22384500256177                         0      1
     0.93460553224408          0.64835858466959                         0      1
     0.06933409850427          0.55344813369976                         0      1
 Edges
 80
 1 5 1
 5 6 1
 6 7 1
 7 8 1
 8 9 1
 9 10 1
 10 11 1
 11 12 1
 12 13 1
 13 14 1
 14 15 1
 15 16 1
 16 17 1
 17 18 1
 18 19 1
 19 20 1
 20 21 1
 21 22 1
 22 23 1
 23 2 1
 2 24 2
 24 25 2
 25 26 2
 26 27 2
 27 28 2
 28 29 2
 29 30 2
 30 31 2
 31 32 2
 32 33 2
 33 34 2
 34 35 2
 35 36 2
 36 37 2
 37 38 2
 38 39 2
 39 40 2
 40 41 2
 41 42 2
 42 3 2
 3 43 3
 43 44 3
 44 45 3
 45 46 3
 46 47 3
 47 48 3
 48 49 3
 49 50 3
 50 51 3
 51 52 3
 52 53 3
 53 54 3
 54 55 3
 55 56 3
 56 57 3
 57 58 3
 58 59 3
 59 60 3
 60 61 3
 61 4 3
 4 62 4
 62 63 4
 63 64 4
 64 65 4
 65 66 4
 66 67 4
 67 68 4
 68 69 4
 69 70 4
 70 71 4
 71 72 4
 72 73 4
 73 74 4
 74 75 4
 75 76 4
 76 77 4
 77 78 4
 78 79 4
 79 80 4
 80 1 4
 Triangles
 944
 461 417 493 1
 387 88 474 1
 344 239 438 1
 84 461 493 1
 301 298 462 1
 462 298 463 1
 302 297 470 1
 470 297 471 1
 383 332 433 1
 299 87 468 1
 87 299 469 1
 92 298 466 1
 297 100 471 1
 298 92 463 1
 100 297 472 1
 321 254 465 1
 254 321 467 1
 302 87 469 1
 87 302 470 1
 300 100 472 1
 100 300 473 1
 363 387 474 1
 430 467 506 1
 464 322 504 1
 468 101 505 1
 467 321 506 1
 299 468 505 1
 269 464 504 1
 276 311 312 1
 102 303 385 1
 476 300 484 1
 473 300 476 1
 304 85 389 1
 363 361 387 1
 353 351 388 1
 347 106 349 1
 344 438 480 1
 362 498 507 1
 498 224 507 1
 243 478 496 1
 433 332 479 1
 239 344 478 1
 388 351 494 1
 387 361 495 1
 311 276 487 1
 303 102 488 1
 24 25 357 1
 41 42 338 1
 478 343 496 1
 332 383 481 1
 304 389 485 1
 349 106 489 1
 349 94 350 1
 358 99 360 1
 82 308 492 1
 296 328 493 1
 24 357 502 1
 338 42 499 1
 350 94 351 1
 360 99 361 1
 474 88 482 1
 85 304 483 1
 306 417 461 1
 98 339 496 1
 106 347 475 1
 276 312 481 1
 385 303 482 1
 316 82 492 1
 328 84 493 1
 335 295 510 1
 308 82 487 1
 328 296 488 1
 225 242 352 1
 343 98 496 1
 295 335 484 1
 360 361 362 1
 238 352 353 1
 238 353 354 1
 242 350 352 1
 238 225 352 1
 350 351 352 1
 332 333 479 1
 362 361 363 1
 354 253 409 1
 94 349 489 1
 339 98 490 1
 99 358 491 1
 485 103 513 1
 238 354 409 1
 304 253 354 1
 352 351 353 1
 242 348 350 1
 348 242 427 1
 346 348 427 1
 309 346 427 1
 309 97 346 1
 58 97 458 1
 97 309 458 1
 74 90 312 1
 111 109 310 1
 109 54 310 1
 278 405 412 1
 201 431 447 1
 52 53 81 1
 71 72 82 1
 310 89 453 1
 336 93 340 1
 405 275 412 1
 214 279 323 1
 453 89 455 1
 44 45 336 1
 323 279 334 1
 52 81 314 1
 71 82 316 1
 176 313 334 1
 104 51 314 1
 103 70 316 1
 187 317 376 1
 318 16 327 1
 45 93 336 1
 320 318 327 1
 113 115 426 1
 81 109 110 1
 73 74 312 1
 70 71 316 1
 51 52 314 1
 278 307 405 1
 176 334 394 1
 33 34 84 1
 14 15 83 1
 342 343 344 1
 315 314 365 1
 342 98 343 1
 39 98 342 1
 154 156 380 1
 326 245 403 1
 331 76 364 1
 43 44 105 1
 311 73 312 1
 313 176 380 1
 317 374 376 1
 333 331 364 1
 55 89 310 1
 62 63 106 1
 245 324 330 1
 33 84 328 1
 230 367 381 1
 14 83 329 1
 230 372 423 1
 275 317 412 1
 367 326 381 1
 81 110 365 1
 446 264 448 1
 102 32 328 1
 81 53 109 1
 334 279 394 1
 101 13 329 1
 324 245 326 1
 288 455 457 1
 104 314 315 1
 266 442 443 1
 366 437 440 1
 365 113 426 1
 324 248 330 1
 381 326 403 1
 370 252 413 1
 55 56 89 1
 348 349 350 1
 105 44 336 1
 374 141 376 1
 148 141 374 1
 79 107 335 1
 176 154 380 1
 13 14 329 1
 32 33 328 1
 74 75 90 1
 97 345 346 1
 265 323 334 1
 367 230 423 1
 53 54 109 1
 90 331 332 1
 313 265 334 1
 355 108 356 1
 348 347 349 1
 346 347 348 1
 90 75 331 1
 315 365 426 1
 110 113 365 1
 22 108 355 1
 83 322 329 1
 375 212 410 1
 54 55 310 1
 97 59 345 1
 356 108 357 1
 355 356 371 1
 317 187 412 1
 356 359 371 1
 431 285 447 1
 246 369 370 1
 156 178 380 1
 341 342 344 1
 346 345 347 1
 330 248 382 1
 36 37 91 1
 58 59 97 1
 289 260 422 1
 356 357 358 1
 91 37 341 1
 83 318 319 1
 341 38 342 1
 17 92 327 1
 314 81 365 1
 246 368 369 1
 174 201 368 1
 17 18 92 1
 38 39 342 1
 246 370 413 1
 39 40 98 1
 337 336 340 1
 115 214 426 1
 211 209 411 1
 251 375 410 1
 79 80 107 1
 82 72 311 1
 57 58 458 1
 259 229 260 1
 259 260 289 1
 83 319 322 1
 194 193 366 1
 198 148 374 1
 256 257 274 1
 95 78 335 1
 256 198 257 1
 274 275 308 1
 197 235 236 1
 274 257 275 1
 171 174 368 1
 236 261 262 1
 262 261 290 1
 359 358 360 1
 368 201 369 1
 110 111 112 1
 161 163 413 1
 22 23 108 1
 59 60 345 1
 209 231 411 1
 193 215 366 1
 175 382 401 1
 236 235 261 1
 178 197 391 1
 96 21 355 1
 230 143 372 1
 77 95 364 1
 382 248 401 1
 143 138 372 1
 83 15 318 1
 215 271 273 1
 437 284 440 1
 210 225 238 1
 382 175 422 1
 131 129 373 1
 263 262 264 1
 96 355 371 1
 78 79 335 1
 77 78 95 1
 110 112 113 1
 75 76 331 1
 273 297 302 1
 110 109 111 1
 140 138 143 1
 135 131 373 1
 252 161 413 1
 215 273 366 1
 138 135 372 1
 76 77 364 1
 210 238 409 1
 332 331 333 1
 236 262 263 1
 144 145 146 1
 255 198 256 1
 21 22 355 1
 16 17 327 1
 20 21 96 1
 144 143 145 1
 231 208 245 1
 191 194 379 1
 140 143 144 1
 169 171 368 1
 273 271 297 1
 167 169 246 1
 72 73 311 1
 37 38 341 1
 275 257 317 1
 231 245 330 1
 340 93 456 1
 197 226 235 1
 287 375 429 1
 277 253 304 1
 185 186 205 1
 231 330 386 1
 171 173 174 1
 234 212 375 1
 185 205 227 1
 372 135 373 1
 231 386 411 1
 356 358 359 1
 286 234 287 1
 373 129 393 1
 212 158 410 1
 185 227 384 1
 252 370 420 1
 287 234 375 1
 265 264 266 1
 15 16 318 1
 144 146 187 1
 380 178 391 1
 171 172 173 1
 174 200 201 1
 267 217 281 1
 187 146 384 1
 263 313 391 1
 319 320 321 1
 246 169 368 1
 139 138 140 1
 178 196 197 1
 179 203 222 1
 146 147 185 1
 263 264 265 1
 145 143 230 1
 227 253 277 1
 174 173 184 1
 174 184 200 1
 227 278 384 1
 377 190 378 1
 236 263 391 1
 146 145 147 1
 10 11 87 1
 136 135 138 1
 149 190 377 1
 164 162 165 1
 184 173 390 1
 145 230 381 1
 249 184 390 1
 227 205 253 1
 200 184 207 1
 185 147 186 1
 200 207 258 1
 152 176 394 1
 372 373 423 1
 162 160 392 1
 267 281 282 1
 163 167 413 1
 149 189 190 1
 169 170 171 1
 146 185 384 1
 250 291 303 1
 188 148 198 1
 233 212 234 1
 190 191 379 1
 278 277 307 1
 285 234 286 1
 150 394 402 1
 179 222 390 1
 270 284 299 1
 191 193 194 1
 144 187 376 1
 142 149 377 1
 207 249 250 1
 394 279 402 1
 183 158 212 1
 199 119 248 1
 250 249 291 1
 269 219 270 1
 139 142 397 1
 12 13 101 1
 272 295 300 1
 240 204 241 1
 313 380 391 1
 265 266 323 1
 165 162 392 1
 160 232 392 1
 114 175 401 1
 425 181 430 1
 159 252 406 1
 187 384 412 1
 173 172 179 1
 190 189 191 1
 118 116 119 1
 31 32 102 1
 31 102 385 1
 215 223 271 1
 126 125 393 1
 152 154 176 1
 30 31 385 1
 207 184 249 1
 164 165 195 1
 88 30 385 1
 129 126 393 1
 29 30 88 1
 128 126 129 1
 124 122 125 1
 167 168 169 1
 248 119 401 1
 247 165 392 1
 227 277 278 1
 134 131 135 1
 67 68 85 1
 218 219 269 1
 245 208 403 1
 293 294 296 1
 270 283 284 1
 114 112 175 1
 116 114 401 1
 173 179 390 1
 293 241 294 1
 209 208 231 1
 197 236 391 1
 113 112 114 1
 171 170 172 1
 140 144 376 1
 183 212 233 1
 121 123 150 1
 120 119 199 1
 150 151 152 1
 240 241 293 1
 233 234 285 1
 270 219 283 1
 195 165 213 1
 128 129 130 1
 147 145 381 1
 105 336 337 1
 378 190 379 1
 213 165 247 1
 124 125 126 1
 229 211 411 1
 213 247 400 1
 325 326 367 1
 28 29 387 1
 68 69 389 1
 188 198 255 1
 219 213 400 1
 29 88 387 1
 308 275 405 1
 150 152 394 1
 136 139 397 1
 85 68 389 1
 142 377 397 1
 287 429 434 1
 182 158 183 1
 150 123 151 1
 156 177 178 1
 118 119 120 1
 281 217 414 1
 257 198 374 1
 182 183 204 1
 218 213 219 1
 263 265 313 1
 133 137 159 1
 125 122 399 1
 199 248 324 1
 159 161 252 1
 127 126 128 1
 48 49 86 1
 195 213 218 1
 241 204 396 1
 152 151 153 1
 193 202 215 1
 160 137 232 1
 128 130 132 1
 124 126 127 1
 121 120 122 1
 69 70 103 1
 123 122 124 1
 115 117 214 1
 121 150 402 1
 214 117 279 1
 157 155 158 1
 260 229 411 1
 49 50 395 1
 149 188 189 1
 159 137 160 1
 118 120 121 1
 50 51 104 1
 121 122 123 1
 325 324 326 1
 141 140 376 1
 119 116 401 1
 153 151 251 1
 161 160 162 1
 163 162 164 1
 199 324 325 1
 133 134 137 1
 142 148 149 1
 115 114 116 1
 393 125 415 1
 384 278 412 1
 66 67 388 1
 130 129 131 1
 220 204 240 1
 204 183 396 1
 134 135 136 1
 169 168 170 1
 279 117 402 1
 157 158 182 1
 291 249 404 1
 120 199 399 1
 67 85 388 1
 237 217 267 1
 117 118 402 1
 69 103 389 1
 163 166 167 1
 283 219 400 1
 183 233 396 1
 406 252 420 1
 117 116 118 1
 256 274 276 1
 113 114 115 1
 125 399 415 1
 118 121 402 1
 386 382 422 1
 124 127 398 1
 195 218 254 1
 319 318 320 1
 122 120 399 1
 130 131 133 1
 151 123 398 1
 136 138 139 1
 123 124 398 1
 167 166 168 1
 235 226 243 1
 199 325 399 1
 390 222 404 1
 249 390 404 1
 179 180 203 1
 197 196 226 1
 139 140 141 1
 232 418 424 1
 210 211 225 1
 186 147 403 1
 206 209 210 1
 159 160 161 1
 167 246 413 1
 191 192 193 1
 86 49 395 1
 154 153 155 1
 253 205 409 1
 323 266 443 1
 251 151 398 1
 225 228 242 1
 247 428 436 1
 203 216 224 1
 317 257 374 1
 152 153 154 1
 205 186 206 1
 208 186 403 1
 178 177 196 1
 255 256 383 1
 50 104 395 1
 133 131 134 1
 142 141 148 1
 115 116 117 1
 182 204 220 1
 399 325 415 1
 132 406 420 1
 386 260 411 1
 377 378 424 1
 139 141 142 1
 149 148 188 1
 232 137 418 1
 325 367 415 1
 168 166 181 1
 147 381 403 1
 158 155 410 1
 161 162 163 1
 281 425 430 1
 133 159 406 1
 156 155 157 1
 132 130 406 1
 237 267 298 1
 179 172 180 1
 191 189 192 1
 130 133 406 1
 244 229 259 1
 220 268 280 1
 26 27 99 1
 338 337 339 1
 164 195 407 1
 216 180 217 1
 271 223 272 1
 206 186 208 1
 163 164 166 1
 200 258 431 1
 154 155 156 1
 155 153 410 1
 220 240 268 1
 330 382 386 1
 153 251 410 1
 215 202 223 1
 172 170 414 1
 237 298 301 1
 366 273 437 1
 189 188 408 1
 370 369 444 1
 216 217 237 1
 7 8 100 1
 181 166 407 1
 202 192 221 1
 157 182 416 1
 256 276 383 1
 203 180 216 1
 137 134 418 1
 418 397 424 1
 136 397 418 1
 280 268 305 1
 156 157 177 1
 240 293 417 1
 247 392 428 1
 220 280 416 1
 195 254 407 1
 206 210 409 1
 393 415 423 1
 206 208 209 1
 166 164 407 1
 205 206 409 1
 193 192 202 1
 226 196 239 1
 444 369 447 1
 134 136 418 1
 210 209 211 1
 192 189 408 1
 188 255 408 1
 180 172 414 1
 281 414 425 1
 228 211 229 1
 182 220 416 1
 375 251 429 1
 221 192 408 1
 415 367 423 1
 45 46 93 1
 175 112 435 1
 217 180 414 1
 168 181 425 1
 268 240 417 1
 224 216 419 1
 128 132 434 1
 225 211 228 1
 228 229 244 1
 272 292 295 1
 373 393 423 1
 177 157 416 1
 289 422 435 1
 64 65 94 1
 428 378 436 1
 170 168 425 1
 369 201 447 1
 244 288 309 1
 272 223 292 1
 237 301 419 1
 397 377 424 1
 305 268 306 1
 442 315 443 1
 414 170 425 1
 251 398 429 1
 282 281 430 1
 201 200 431 1
 244 259 288 1
 216 237 419 1
 398 127 429 1
 392 232 428 1
 260 386 422 1
 434 132 441 1
 105 337 338 1
 422 175 435 1
 202 221 421 1
 431 258 445 1
 424 378 428 1
 239 196 432 1
 429 127 434 1
 416 280 432 1
 242 228 427 1
 306 268 417 1
 177 416 432 1
 408 255 433 1
 86 446 448 1
 127 128 434 1
 223 202 421 1
 250 303 451 1
 196 177 432 1
 194 366 440 1
 294 449 450 1
 244 309 427 1
 232 424 428 1
 273 302 437 1
 239 432 438 1
 286 287 441 1
 255 383 433 1
 292 223 421 1
 400 247 436 1
 112 111 435 1
 378 379 436 1
 379 194 439 1
 432 280 438 1
 214 323 443 1
 221 408 433 1
 400 436 439 1
 228 244 427 1
 287 434 441 1
 436 379 439 1
 283 400 439 1
 280 305 438 1
 439 194 440 1
 445 258 449 1
 283 439 440 1
 284 283 440 1
 132 420 441 1
 264 262 448 1
 233 285 445 1
 104 315 442 1
 294 241 449 1
 285 431 445 1
 207 250 450 1
 455 89 457 1
 426 214 443 1
 48 86 452 1
 395 104 442 1
 286 444 447 1
 449 258 450 1
 315 426 443 1
 286 441 444 1
 395 442 446 1
 266 264 446 1
 396 233 445 1
 420 370 444 1
 285 286 447 1
 450 250 451 1
 86 395 446 1
 442 266 446 1
 93 46 454 1
 441 420 444 1
 340 456 459 1
 396 445 449 1
 56 57 457 1
 262 290 448 1
 241 396 449 1
 288 259 455 1
 258 207 450 1
 459 243 460 1
 296 294 451 1
 111 310 453 1
 86 448 452 1
 47 48 452 1
 235 243 459 1
 309 288 458 1
 47 452 454 1
 294 450 451 1
 452 290 454 1
 46 47 454 1
 289 453 455 1
 339 337 460 1
 93 454 456 1
 448 290 452 1
 259 289 455 1
 435 111 453 1
 89 56 457 1
 290 261 456 1
 289 435 453 1
 457 57 458 1
 456 261 459 1
 288 457 458 1
 454 290 456 1
 340 459 460 1
 261 235 459 1
 337 340 460 1
 353 388 483 1
 480 305 512 1
 307 485 513 1
 344 343 478 1
 34 35 461 1
 329 322 464 1
 92 18 463 1
 20 96 462 1
 319 321 465 1
 298 267 466 1
 87 11 468 1
 12 101 468 1
 407 254 467 1
 437 302 469 1
 430 181 467 1
 10 87 470 1
 297 271 472 1
 100 8 471 1
 272 300 472 1
 299 284 469 1
 7 100 473 1
 508 419 509 1
 507 224 508 1
 224 419 508 1
 419 301 509 1
 282 430 506 1
 503 282 506 1
 347 345 475 1
 60 61 475 1
 5 6 476 1
 84 34 461 1
 19 20 462 1
 19 462 463 1
 101 329 464 1
 18 19 463 1
 322 319 465 1
 267 282 466 1
 181 407 467 1
 11 12 468 1
 284 437 469 1
 9 10 470 1
 9 470 471 1
 8 9 471 1
 271 272 472 1
 6 7 473 1
 364 95 477 1
 101 464 505 1
 322 465 504 1
 466 282 503 1
 91 480 512 1
 243 226 478 1
 362 363 497 1
 421 221 479 1
 362 497 498 1
 95 335 510 1
 360 362 507 1
 461 35 486 1
 351 94 494 1
 361 99 495 1
 341 344 480 1
 438 305 480 1
 291 404 474 1
 90 332 481 1
 82 311 487 1
 102 328 488 1
 107 476 484 1
 345 60 475 1
 333 364 477 1
 277 304 485 1
 306 461 486 1
 36 91 486 1
 462 96 509 1
 276 274 487 1
 451 303 488 1
 106 63 489 1
 98 40 490 1
 64 94 489 1
 26 99 491 1
 6 473 476 1
 405 307 492 1
 417 293 493 1
 66 388 494 1
 94 65 494 1
 28 387 495 1
 99 27 495 1
 389 103 485 1
 304 354 483 1
 460 243 496 1
 301 462 509 1
 203 224 498 1
 80 1 500 1
 1 5 500 1
 23 2 502 1
 2 24 502 1
 357 108 502 1
 3 43 499 1
 42 3 499 1
 61 4 501 1
 4 62 501 1
 105 338 499 1
 327 92 503 1
 269 270 505 1
 254 218 504 1
 335 107 484 1
 303 291 482 1
 383 276 481 1
 226 239 478 1
 92 466 503 1
 464 269 505 1
 465 254 504 1
 221 433 479 1
 388 85 483 1
 474 404 497 1
 363 474 497 1
 91 341 480 1
 312 90 481 1
 88 385 482 1
 291 474 482 1
 354 353 483 1
 292 421 511 1
 41 338 490 1
 357 25 491 1
 300 295 484 1
 307 277 485 1
 35 36 486 1
 295 292 510 1
 274 308 487 1
 296 451 488 1
 477 292 511 1
 63 64 489 1
 25 26 491 1
 338 339 490 1
 40 41 490 1
 358 357 491 1
 308 405 492 1
 293 296 493 1
 65 66 494 1
 27 28 495 1
 421 479 511 1
 339 460 496 1
 292 477 510 1
 475 61 501 1
 5 476 500 1
 492 307 513 1
 404 222 497 1
 497 222 498 1
 222 203 498 1
 107 80 500 1
 108 23 502 1
 43 105 499 1
 62 106 501 1
 320 327 503 1
 218 269 504 1
 270 299 505 1
 486 91 512 1
 320 503 506 1
 321 320 506 1
 359 360 507 1
 371 359 508 1
 371 508 509 1
 359 507 508 1
 96 371 509 1
 477 95 510 1
 305 306 512 1
 103 316 513 1
 106 475 501 1
 476 107 500 1
 479 333 511 1
 333 477 511 1
 306 486 512 1
 316 492 513 1
 End
