 MeshVersionFormatted 2
 Dimension
 3
 Vertices
 44
                    0                         0                         0      1
                    1                         0                         0      2
                    1                         1                         0      3
                    0                         1                         0      4
     0.19999999999956                         0                         0      1
     0.39999999999897                         0                         0      1
     0.59999999999895                         0                         0      1
     0.79999999999947                         0                         0      1
                    1          0.19999999999956                         0      2
                    1          0.39999999999897                         0      2
                    1          0.59999999999895                         0      2
                    1          0.79999999999947                         0      2
                  0.8                         1                         0      3
     0.60000000000139                         1                         0      3
     0.40000000000166                         1                         0      3
     0.20000000000083                         1                         0      3
                    0                       0.8                         0      4
                    0          0.60000000000139                         0      4
                    0          0.40000000000166                         0      4
                    0          0.20000000000083                         0      4
     0.16370661204827           0.4886650857431                         0      1
     0.83534964916824          0.49029968926286                         0      1
     0.49391845158625          0.13237604307057                         0      1
     0.49836539647917          0.82773865802724                         0      1
     0.30074819035914          0.83070291234384                         0      1
      0.3961598772771          0.67073444684008                         0      1
     0.60020159051702          0.67551889168744                         0      1
     0.50000000000251          0.48038475773044                         0      1
      0.8146996124645          0.68914937826112                         0      1
     0.83057691269884          0.30018449338884                         0      1
     0.16938214347657          0.30011357660651                         0      1
     0.18818969570927          0.68364148842842                         0      1
     0.31578456131778          0.18652781434827                         0      1
      0.6944760729913          0.84099946107689                         0      1
     0.68592116352012          0.17248727978655                         0      1
     0.32146143392436          0.38738071487622                         0      1
     0.66852282575986          0.38532487916581                         0      1
     0.47688326899416          0.31741132792406                         0      1
      0.1464101615148          0.85358983848543                         0      1
     0.85358983848571          0.85358983848556                         0      1
     0.14641016151452          0.14641016151487                         0      1
      0.8535898384865          0.14641016151324                         0      1
     0.31030302876556          0.54179813558513                         0      1
     0.68969697123395          0.54179813558229                         0      1
 Edges
 20
 1 5 1
 5 6 1
 6 7 1
 7 8 1
 8 2 1
 2 9 2
 9 10 2
 10 11 2
 11 12 2
 12 3 2
 3 13 3
 13 14 3
 14 15 3
 15 16 3
 16 4 3
 4 17 4
 17 18 4
 18 19 4
 19 20 4
 20 1 4
 Triangles
 66
 35 37 38 1
 23 35 38 1
 26 25 32 1
 36 33 38 1
 27 29 34 1
 31 33 36 1
 35 30 37 1
 26 32 43 1
 29 27 44 1
 10 11 22 1
 14 15 24 1
 18 19 21 1
 24 26 27 1
 6 7 23 1
 27 26 28 1
 11 12 29 1
 15 16 25 1
 19 20 31 1
 10 22 30 1
 24 25 26 1
 22 11 29 1
 9 10 30 1
 24 15 25 1
 21 19 31 1
 33 23 38 1
 17 18 32 1
 13 14 34 1
 5 6 33 1
 7 8 35 1
 24 27 34 1
 18 21 32 1
 14 24 34 1
 6 23 33 1
 23 7 35 1
 21 31 36 1
 30 22 37 1
 4 17 39 1
 3 13 40 1
 1 5 41 1
 20 1 41 1
 16 4 39 1
 12 3 40 1
 2 9 42 1
 8 2 42 1
 37 28 38 1
 22 29 44 1
 28 26 43 1
 27 28 44 1
 32 21 43 1
 36 28 43 1
 28 37 44 1
 35 8 42 1
 13 34 40 1
 17 32 39 1
 5 33 41 1
 29 12 40 1
 25 16 39 1
 31 20 41 1
 9 30 42 1
 30 35 42 1
 34 29 40 1
 32 25 39 1
 33 31 41 1
 28 36 38 1
 21 36 43 1
 37 22 44 1
 End
