MeshVersionFormatted 3

Dimension
3

Vertices
1941
0	0	0		1
1	0	0		1
1	1	0		1
0	1	0		1
0.025	0	0		1
0.05	0	0		1
0.075	0	0		1
0.1	0	0		1
0.125	0	0		1
0.15	0	0		1
0.175	0	0		1
0.2	0	0		1
0.225	0	0		1
0.25	0	0		1
0.275	0	0		1
0.3	0	0		1
0.325	0	0		1
0.35	0	0		1
0.375	0	0		1
0.4	0	0		1
0.425	0	0		1
0.45	0	0		1
0.475	0	0		1
0.5	0	0		1
0.525	0	0		1
0.55	0	0		1
0.575	0	0		1
0.6	0	0		1
0.625	0	0		1
0.65	0	0		1
0.675	0	0		1
0.7	0	0		1
0.725	0	0		1
0.75	0	0		1
0.775	0	0		1
0.8	0	0		1
0.825	0	0		1
0.85	0	0		1
0.875	0	0		1
0.9	0	0		1
0.925	0	0		1
0.95	0	0		1
0.975	0	0		1
1	0.025	0		1
1	0.05	0		1
1	0.075	0		1
1	0.1	0		1
1	0.125	0		1
1	0.15	0		1
1	0.175	0		1
1	0.2	0		1
1	0.225	0		1
1	0.25	0		1
1	0.275	0		1
1	0.3	0		1
1	0.325	0		1
1	0.35	0		1
1	0.375	0		1
1	0.4	0		1
1	0.425	0		1
1	0.45	0		1
1	0.475	0		1
1	0.5	0		1
1	0.525	0		1
1	0.55	0		1
1	0.575	0		1
1	0.6	0		1
1	0.625	0		1
1	0.65	0		1
1	0.675	0		1
1	0.7	0		1
1	0.725	0		1
1	0.75	0		1
1	0.775	0		1
1	0.8	0		1
1	0.825	0		1
1	0.85	0		1
1	0.875	0		1
1	0.9	0		1
1	0.925	0		1
1	0.95	0		1
1	0.975	0		1
0.975	1	0		1
0.95	1	0		1
0.925	1	0		1
0.9	1	0		1
0.875	1	0		1
0.85	1	0		1
0.825	1	0		1
0.8	1	0		1
0.775	1	0		1
0.75	1	0		1
0.725	1	0		1
0.7	1	0		1
0.675	1	0		1
0.65	1	0		1
0.625	1	0		1
0.6	1	0		1
0.575	1	0		1
0.55	1	0		1
0.525	1	0		1
0.5	1	0		1
0.475	1	0		1
0.45	1	0		1
0.425	1	0		1
0.4	1	0		1
0.375	1	0		1
0.35	1	0		1
0.325	1	0		1
0.3	1	0		1
0.275	1	0		1
0.25	1	0		1
0.225	1	0		1
0.2	1	0		1
0.175	1	0		1
0.15	1	0		1
0.125	1	0		1
0.1	1	0		1
0.075	1	0		1
0.05	1	0		1
0.025	1	0		1
0	0.975	0		1
0	0.95	0		1
0	0.925	0		1
0	0.9	0		1
0	0.875	0		1
0	0.85	0		1
0	0.825	0		1
0	0.8	0		1
0	0.775	0		1
0	0.75	0		1
0	0.725	0		1
0	0.7	0		1
0	0.675	0		1
0	0.65	0		1
0	0.625	0		1
0	0.6	0		1
0	0.575	0		1
0	0.55	0		1
0	0.525	0		1
0	0.5	0		1
0	0.475	0		1
0	0.45	0		1
0	0.425	0		1
0	0.4	0		1
0	0.375	0		1
0	0.35	0		1
0	0.325	0		1
0	0.3	0		1
0	0.275	0		1
0	0.25	0		1
0	0.225	0		1
0	0.2	0		1
0	0.175	0		1
0	0.15	0		1
0	0.125	0		1
0	0.1	0		1
0	0.075	0		1
0	0.05	0		1
0	0.025	0		1
0.4875	0.978349	0		1
0.0205045	0.4875	0		1
0.5125	0.0216506	0		1
0.978349	0.5125	0		1
0.97622	0.390442	0		1
0.387456	0.0222025	0		1
0.6125	0.978349	0		1
0.0226804	0.611552	0		1
0.3625	0.978349	0		1
0.978349	0.6375	0		1
0.0211884	0.362313	0		1
0.636754	0.022913	0		1
0.0238753	0.738968	0		1
0.7375	0.978349	0		1
0.2625	0.0230079	0		1
0.977931	0.262989	0		1
0.2625	0.978349	0		1
0.0220689	0.262989	0		1
0.975039	0.738118	0		1
0.7375	0.0220317	0		1
0.8375	0.978349	0		1
0.0216506	0.8375	0		1
0.0223086	0.162879	0		1
0.8375	0.0230079	0		1
0.1625	0.978349	0		1
0.978349	0.8375	0		1
0.978863	0.16214	0		1
0.1625	0.0220317	0		1
0.0211599	0.0875	0		1
0.913612	0.0219399	0		1
0.9125	0.978349	0		1
0.0216506	0.9125	0		1
0.0866134	0.97622	0		1
0.977786	0.91273	0		1
0.97861	0.0879515	0		1
0.0875578	0.0229588	0		1
0.4375	0.978349	0		1
0.025077	0.437134	0		1
0.976175	0.564707	0		1
0.559698	0.0226074	0		1
0.5375	0.978349	0		1
0.0216506	0.5375	0		1
0.978349	0.4625	0		1
0.4625	0.0216506	0		1
0.3125	0.978349	0		1
0.2125	0.978349	0		1
0.978349	0.6875	0		1
0.979164	0.7875	0		1
0.0229604	0.309042	0		1
0.023756	0.216115	0		1
0.6875	0.0220317	0		1
0.7875	0.0236323	0		1
0.3383	0.02246	0		1
0.978761	0.337882	0		1
0.0237704	0.658647	0		1
0.97628	0.215503	0		1
0.6625	0.978349	0		1
0.7875	0.978349	0		1
0.0238382	0.785491	0		1
0.2125	0.0236323	0		1
0.0194712	0.0351263	0		1
0.962292	0.0200345	0		1
0.961533	0.978908	0		1
0.0210924	0.961533	0		1
0.4625	0.978349	0		1
0.475	0.956699	0		1
0.5	0.956699	0		1
0.4875	0.935048	0		1
0.5125	0.935048	0		1
0.5	0.913397	0		1
0.475	0.913397	0		1
0.4875	0.891747	0		1
0.5125	0.891747	0		1
0.5	0.870096	0		1
0.525	0.870096	0		1
0.5125	0.848446	0		1
0.5375	0.848446	0		1
0.525	0.826795	0		1
0.5	0.826795	0		1
0.5125	0.805144	0		1
0.4875	0.805144	0		1
0.5	0.783494	0		1
0.525	0.783494	0		1
0.5125	0.761843	0		1
0.4875	0.761843	0		1
0.5	0.740192	0		1
0.525	0.740192	0		1
0.5125	0.718542	0		1
0.4875	0.718542	0		1
0.5	0.696891	0		1
0.475	0.696891	0		1
0.4875	0.67524	0		1
0.5125	0.67524	0		1
0.5	0.65359	0		1
0.525	0.65359	0		1
0.5125	0.631939	0		1
0.4875	0.631939	0		1
0.5	0.610289	0		1
0.525	0.610289	0		1
0.5125	0.588638	0		1
0.4875	0.588638	0		1
0.5	0.566987	0		1
0.475	0.566987	0		1
0.4875	0.545337	0		1
0.5125	0.545337	0		1
0.5	0.523686	0		1
0.475	0.523686	0		1
0.525	0.523686	0		1
0.4875	0.502035	0		1
0.4625	0.502035	0		1
0.475	0.480385	0		1
0.45	0.480385	0		1
0.4625	0.458734	0		1
0.4375	0.458734	0		1
0.425	0.480385	0		1
0.4125	0.458734	0		1
0.425	0.437083	0		1
0.4	0.480385	0		1
0.4	0.437083	0		1
0.4125	0.415433	0		1
0.3875	0.415433	0		1
0.4	0.393782	0		1
0.375	0.393782	0		1
0.3875	0.372132	0		1
0.4125	0.372132	0		1
0.3625	0.372132	0		1
0.35	0.393782	0		1
0.3375	0.372132	0		1
0.4	0.350481	0		1
0.425	0.350481	0		1
0.325	0.393782	0		1
0.3125	0.372132	0		1
0.4125	0.32883	0		1
0.4375	0.32883	0		1
0.3	0.393782	0		1
0.425	0.30718	0		1
0.45	0.30718	0		1
0.2875	0.372132	0		1
0.3	0.350481	0		1
0.275	0.350481	0		1
0.2875	0.32883	0		1
0.275	0.393782	0		1
0.4375	0.285529	0		1
0.4625	0.285529	0		1
0.475	0.30718	0		1
0.4875	0.285529	0		1
0.5	0.30718	0		1
0.5125	0.285529	0		1
0.525	0.30718	0		1
0.5375	0.285529	0		1
0.55	0.30718	0		1
0.5625	0.285529	0		1
0.575	0.30718	0		1
0.5875	0.285529	0		1
0.6	0.30718	0		1
0.6125	0.285529	0		1
0.625	0.30718	0		1
0.6375	0.285529	0		1
0.65	0.30718	0		1
0.6625	0.285529	0		1
0.675	0.30718	0		1
0.6875	0.285529	0		1
0.7	0.30718	0		1
0.6875	0.32883	0		1
0.7125	0.285529	0		1
0.7125	0.32883	0		1
0.7	0.350481	0		1
0.725	0.350481	0		1
0.7125	0.372132	0		1
0.7375	0.372132	0		1
0.725	0.393782	0		1
0.2625	0.32883	0		1
0.275	0.30718	0		1
0.6	0.263878	0		1
0.75	0.350481	0		1
0.75	0.393782	0		1
0.7375	0.415433	0		1
0.25	0.30718	0		1
0.2625	0.285529	0		1
0.475	0.263878	0		1
0.7	0.263878	0		1
0.725	0.263878	0		1
0.2375	0.285529	0		1
0.25	0.263878	0		1
0.2375	0.32883	0		1
0.7625	0.415433	0		1
0.75	0.437083	0		1
0.7125	0.242228	0		1
0.7375	0.242228	0		1
0.725	0.437083	0		1
0.7375	0.458734	0		1
0.7625	0.458734	0		1
0.75	0.480385	0		1
0.775	0.480385	0		1
0.7625	0.502035	0		1
0.7375	0.502035	0		1
0.75	0.523686	0		1
0.725	0.523686	0		1
0.7375	0.545337	0		1
0.7625	0.545337	0		1
0.75	0.566987	0		1
0.775	0.566987	0		1
0.7625	0.588638	0		1
0.7375	0.588638	0		1
0.75	0.610289	0		1
0.775	0.610289	0		1
0.7625	0.631939	0		1
0.7375	0.631939	0		1
0.75	0.65359	0		1
0.725	0.65359	0		1
0.7375	0.67524	0		1
0.7625	0.67524	0		1
0.75	0.696891	0		1
0.775	0.696891	0		1
0.7625	0.718542	0		1
0.7375	0.718542	0		1
0.75	0.740192	0		1
0.225	0.263878	0		1
0.2375	0.242228	0		1
0.2625	0.242228	0		1
0.775	0.740192	0		1
0.7625	0.761843	0		1
0.7375	0.761843	0		1
0.5875	0.32883	0		1
0.2875	0.415433	0		1
0.2625	0.415433	0		1
0.275	0.437083	0		1
0.25	0.437083	0		1
0.2625	0.458734	0		1
0.2375	0.458734	0		1
0.25	0.480385	0		1
0.225	0.480385	0		1
0.2375	0.502035	0		1
0.2125	0.458734	0		1
0.7875	0.761843	0		1
0.2125	0.242228	0		1
0.2125	0.502035	0		1
0.225	0.523686	0		1
0.25	0.523686	0		1
0.2375	0.545337	0		1
0.2625	0.545337	0		1
0.25	0.566987	0		1
0.275	0.566987	0		1
0.2625	0.588638	0		1
0.2375	0.588638	0		1
0.25	0.610289	0		1
0.275	0.610289	0		1
0.2625	0.631939	0		1
0.2375	0.631939	0		1
0.25	0.65359	0		1
0.225	0.65359	0		1
0.2375	0.67524	0		1
0.2625	0.67524	0		1
0.25	0.696891	0		1
0.275	0.696891	0		1
0.2625	0.718542	0		1
0.2375	0.718542	0		1
0.25	0.740192	0		1
0.275	0.740192	0		1
0.2625	0.761843	0		1
0.2375	0.761843	0		1
0.2875	0.761843	0		1
0.225	0.220577	0		1
0.725	0.220577	0		1
0.75	0.220577	0		1
0.4625	0.891747	0		1
0.7625	0.242228	0		1
0.775	0.220577	0		1
0.7875	0.242228	0		1
0.75	0.783494	0		1
0.725	0.783494	0		1
0.275	0.783494	0		1
0.3	0.783494	0		1
0.2	0.523686	0		1
0.2	0.220577	0		1
0.8	0.220577	0		1
0.2	0.263878	0		1
0.7625	0.198927	0		1
0.8125	0.242228	0		1
0.2125	0.198927	0		1
0.3125	0.761843	0		1
0.2875	0.805144	0		1
0.1875	0.198927	0		1
0.4875	0.458734	0		1
0.325	0.783494	0		1
0.7375	0.805144	0		1
0.7125	0.805144	0		1
0.7	0.783494	0		1
0.825	0.220577	0		1
0.6875	0.805144	0		1
0.675	0.783494	0		1
0.4125	0.285529	0		1
0.7	0.826795	0		1
0.2	0.177276	0		1
0.225	0.177276	0		1
0.175	0.177276	0		1
0.3375	0.761843	0		1
0.6875	0.372132	0		1
0.7	0.220577	0		1
0.1625	0.198927	0		1
0.8375	0.242228	0		1
0.675	0.826795	0		1
0.35	0.783494	0		1
0.85	0.220577	0		1
0.8375	0.198927	0		1
0.55	0.870096	0		1
0.825	0.263878	0		1
0.85	0.263878	0		1
0.8375	0.285529	0		1
0.1875	0.155625	0		1
0.1625	0.155625	0		1
0.5125	0.32883	0		1
0.6875	0.848446	0		1
0.2875	0.545337	0		1
0.3625	0.761843	0		1
0.35	0.740192	0		1
0.8625	0.285529	0		1
0.85	0.30718	0		1
0.8625	0.198927	0		1
0.85	0.177276	0		1
0.5625	0.848446	0		1
0.575	0.870096	0		1
0.2875	0.458734	0		1
0.375	0.783494	0		1
0.3625	0.805144	0		1
0.3	0.30718	0		1
0.175	0.133975	0		1
0.15	0.133975	0		1
0.875	0.30718	0		1
0.8625	0.32883	0		1
0.875	0.177276	0		1
0.8625	0.155625	0		1
0.8375	0.155625	0		1
0.85	0.133975	0		1
0.825	0.133975	0		1
0.875	0.133975	0		1
0.3875	0.805144	0		1
0.375	0.826795	0		1
0.375	0.740192	0		1
0.3625	0.718542	0		1
0.2	0.133975	0		1
0.2125	0.631939	0		1
0.2	0.65359	0		1
0.1875	0.631939	0		1
0.175	0.65359	0		1
0.1625	0.631939	0		1
0.15	0.65359	0		1
0.1625	0.67524	0		1
0.1375	0.67524	0		1
0.15	0.696891	0		1
0.1375	0.631939	0		1
0.125	0.696891	0		1
0.1375	0.718542	0		1
0.15	0.610289	0		1
0.125	0.610289	0		1
0.1375	0.588638	0		1
0.7625	0.805144	0		1
0.7125	0.848446	0		1
0.7	0.870096	0		1
0.725	0.870096	0		1
0.675	0.870096	0		1
0.2375	0.415433	0		1
0.7125	0.67524	0		1
0.7	0.65359	0		1
0.6875	0.67524	0		1
0.675	0.65359	0		1
0.6625	0.67524	0		1
0.65	0.65359	0		1
0.6375	0.67524	0		1
0.6625	0.631939	0		1
0.6375	0.631939	0		1
0.65	0.610289	0		1
0.625	0.610289	0		1
0.6375	0.588638	0		1
0.6125	0.588638	0		1
0.625	0.566987	0		1
0.875	0.263878	0		1
0.2875	0.67524	0		1
0.7125	0.502035	0		1
0.7875	0.631939	0		1
0.4375	0.415433	0		1
0.1875	0.502035	0		1
0.4625	0.588638	0		1
0.7875	0.458734	0		1
0.8	0.480385	0		1
0.8125	0.458734	0		1
0.825	0.480385	0		1
0.8375	0.458734	0		1
0.85	0.480385	0		1
0.8625	0.458734	0		1
0.875	0.480385	0		1
0.8625	0.502035	0		1
0.85	0.437083	0		1
0.875	0.437083	0		1
0.5375	0.718542	0		1
0.775	0.393782	0		1
0.425	0.263878	0		1
0.4	0.263878	0		1
0.4125	0.242228	0		1
0.3875	0.242228	0		1
0.4	0.220577	0		1
0.375	0.220577	0		1
0.3875	0.198927	0		1
0.4125	0.198927	0		1
0.4	0.177276	0		1
0.425	0.177276	0		1
0.375	0.177276	0		1
0.4125	0.155625	0		1
0.4375	0.155625	0		1
0.425	0.133975	0		1
0.45	0.133975	0		1
0.4625	0.155625	0		1
0.475	0.133975	0		1
0.4875	0.155625	0		1
0.5	0.133975	0		1
0.5125	0.155625	0		1
0.525	0.133975	0		1
0.5375	0.155625	0		1
0.55	0.133975	0		1
0.5625	0.155625	0		1
0.575	0.133975	0		1
0.5875	0.155625	0		1
0.6	0.133975	0		1
0.4	0.133975	0		1
0.4625	0.67524	0		1
0.55	0.740192	0		1
0.4125	0.502035	0		1
0.3875	0.502035	0		1
0.4	0.523686	0		1
0.7125	0.198927	0		1
0.3	0.566987	0		1
0.8	0.610289	0		1
0.8125	0.631939	0		1
0.825	0.610289	0		1
0.8375	0.631939	0		1
0.85	0.610289	0		1
0.8625	0.631939	0		1
0.85	0.65359	0		1
0.875	0.610289	0		1
0.875	0.65359	0		1
0.8625	0.67524	0		1
0.2625	0.805144	0		1
0.275	0.826795	0		1
0.25	0.826795	0		1
0.2625	0.848446	0		1
0.2375	0.848446	0		1
0.225	0.826795	0		1
0.2125	0.848446	0		1
0.2	0.826795	0		1
0.1875	0.848446	0		1
0.175	0.826795	0		1
0.1625	0.848446	0		1
0.15	0.826795	0		1
0.1375	0.848446	0		1
0.125	0.826795	0		1
0.2875	0.848446	0		1
0.1375	0.155625	0		1
0.125	0.133975	0		1
0.525	0.263878	0		1
0.6125	0.155625	0		1
0.625	0.133975	0		1
0.175	0.870096	0		1
0.225	0.870096	0		1
0.275	0.870096	0		1
0.3	0.870096	0		1
0.1125	0.848446	0		1
0.125	0.870096	0		1
0.1125	0.588638	0		1
0.125	0.566987	0		1
0.1125	0.631939	0		1
0.1125	0.155625	0		1
0.8875	0.32883	0		1
0.8875	0.502035	0		1
0.4125	0.112324	0		1
0.3875	0.112324	0		1
0.588287	0.112778	0		1
0.8625	0.112324	0		1
0.486701	0.112783	0		1
0.1875	0.112324	0		1
0.2125	0.112324	0		1
0.1375	0.112324	0		1
0.53645	0.113848	0		1
0.1125	0.112324	0		1
0.887296	0.112206	0		1
0.8875	0.67524	0		1
0.875	0.696891	0		1
0.8875	0.198927	0		1
0.1125	0.718542	0		1
0.5875	0.848446	0		1
0.6125	0.631939	0		1
0.375	0.480385	0		1
0.6875	0.891747	0		1
0.6625	0.891747	0		1
0.4625	0.718542	0		1
0.8375	0.32883	0		1
0.8125	0.285529	0		1
0.4	0.783494	0		1
0.65	0.696891	0		1
0.1625	0.805144	0		1
0.3875	0.32883	0		1
0.5	0.177276	0		1
0.8375	0.588638	0		1
0.3625	0.242228	0		1
0.35	0.220577	0		1
0.55	0.177276	0		1
0.4	0.826795	0		1
0.3875	0.848446	0		1
0.2875	0.891747	0		1
0.3125	0.891747	0		1
0.9	0.30718	0		1
0.1	0.870096	0		1
0.1125	0.891747	0		1
0.9	0.696891	0		1
0.8875	0.718542	0		1
0.1	0.826795	0		1
0.5375	0.545337	0		1
0.55	0.523686	0		1
0.5625	0.718542	0		1
0.575	0.740192	0		1
0.1125	0.805144	0		1
0.3125	0.545337	0		1
0.325	0.566987	0		1
0.8625	0.415433	0		1
0.8875	0.415433	0		1
0.65	0.566987	0		1
0.6375	0.545337	0		1
0.8	0.740192	0		1
0.8125	0.761843	0		1
0.6875	0.198927	0		1
0.7	0.177276	0		1
0.6	0.177276	0		1
0.1	0.696891	0		1
0.1	0.566987	0		1
0.1125	0.545337	0		1
0.875538	0.0903233	0		1
0.85009	0.090615	0		1
0.125	0.0906733	0		1
0.898627	0.133029	0		1
0.100271	0.0908295	0		1
0.90051	0.0899557	0		1
0.9	0.437083	0		1
0.0878604	0.112475	0		1
0.9	0.65359	0		1
0.1625	0.588638	0		1
0.6375	0.32883	0		1
0.3375	0.415433	0		1
0.45	0.350481	0		1
0.5625	0.891747	0		1
0.5875	0.891747	0		1
0.575	0.913397	0		1
0.6	0.913397	0		1
0.7375	0.285529	0		1
0.8125	0.502035	0		1
0.6875	0.761843	0		1
0.6625	0.761843	0		1
0.65	0.783494	0		1
0.5375	0.502035	0		1
0.5625	0.502035	0		1
0.55	0.480385	0		1
0.575	0.480385	0		1
0.5625	0.458734	0		1
0.5875	0.458734	0		1
0.575	0.437083	0		1
0.6	0.437083	0		1
0.6125	0.458734	0		1
0.625	0.437083	0		1
0.6125	0.415433	0		1
0.6375	0.458734	0		1
0.65	0.437083	0		1
0.575	0.826795	0		1
0.3875	0.718542	0		1
0.375	0.696891	0		1
0.4375	0.198927	0		1
0.875	0.523686	0		1
0.9	0.523686	0		1
0.1625	0.718542	0		1
0.65	0.263878	0		1
0.55	0.437083	0		1
0.5625	0.415433	0		1
0.5375	0.415433	0		1
0.3375	0.242228	0		1
0.35	0.263878	0		1
0.475	0.826795	0		1
0.55	0.393782	0		1
0.525	0.393782	0		1
0.325	0.220577	0		1
0.45	0.913397	0		1
0.914899	0.500277	0		1
0.9125	0.415433	0		1
0.4	0.0906733	0		1
0.375	0.0906733	0		1
0.3625	0.112324	0		1
0.350302	0.0901376	0		1
0.33755	0.112235	0		1
0.325933	0.089703	0		1
0.312664	0.112147	0		1
0.300755	0.0901517	0		1
0.287653	0.112208	0		1
0.3	0.133975	0		1
0.425	0.0906733	0		1
0.275151	0.090567	0		1
0.2	0.0906733	0		1
0.0875	0.588638	0		1
0.0878205	0.891562	0		1
0.0875	0.718542	0		1
0.912484	0.718533	0		1
0.899982	0.740182	0		1
0.0875	0.805144	0		1
0.0875	0.545337	0		1
0.1	0.523686	0		1
0.9125	0.32883	0		1
0.92532	0.307119	0		1
0.65	0.870096	0		1
0.6375	0.761843	0		1
0.5625	0.545337	0		1
0.5875	0.502035	0		1
0.125	0.740192	0		1
0.6625	0.458734	0		1
0.6	0.826795	0		1
0.5875	0.718542	0		1
0.575	0.696891	0		1
0.4	0.696891	0		1
0.3875	0.67524	0		1
0.3625	0.67524	0		1
0.375	0.65359	0		1
0.35	0.65359	0		1
0.3625	0.631939	0		1
0.3875	0.631939	0		1
0.375	0.610289	0		1
0.3375	0.631939	0		1
0.1375	0.545337	0		1
0.3375	0.545337	0		1
0.325	0.523686	0		1
0.3375	0.718542	0		1
0.4	0.610289	0		1
0.3875	0.588638	0		1
0.9	0.393782	0		1
0.65	0.480385	0		1
0.45	0.566987	0		1
0.85	0.350481	0		1
0.825	0.350481	0		1
0.675	0.610289	0		1
0.8375	0.415433	0		1
0.6625	0.545337	0		1
0.5875	0.805144	0		1
0.874997	0.740191	0		1
0.887496	0.761841	0		1
0.912553	0.76179	0		1
0.900072	0.783485	0		1
0.875011	0.783492	0		1
0.887514	0.805019	0		1
0.862504	0.805123	0		1
0.87508	0.826695	0		1
0.850014	0.826775	0		1
0.862733	0.8483	0		1
0.837541	0.848418	0		1
0.850046	0.870067	0		1
0.875264	0.869942	0		1
0.825014	0.870087	0		1
0.862552	0.891716	0		1
0.887755	0.891504	0		1
0.900331	0.869834	0		1
0.875051	0.913352	0		1
0.900092	0.913235	0		1
0.850017	0.913385	0		1
0.912974	0.804853	0		1
0.812509	0.848439	0		1
0.800004	0.870094	0		1
0.4625	0.805144	0		1
0.675	0.913397	0		1
0.7	0.913397	0		1
0.8375	0.67524	0		1
0.35	0.826795	0		1
0.8875	0.545337	0		1
0.9125	0.545337	0		1
0.8125	0.155625	0		1
0.8	0.133975	0		1
0.625	0.177276	0		1
0.4125	0.631939	0		1
0.6125	0.198927	0		1
0.275026	0.133955	0		1
0.287504	0.155622	0		1
0.312501	0.155625	0		1
0.4375	0.891747	0		1
0.425	0.913397	0		1
0.100053	0.912454	0		1
0.125009	0.91324	0		1
0.3	0.913397	0		1
0.325	0.913397	0		1
0.275	0.913397	0		1
0.3375	0.891747	0		1
0.35	0.913397	0		1
0.075	0.696891	0		1
0.073864	0.52303	0		1
0.0861746	0.50127	0		1
0.112279	0.501908	0		1
0.0997423	0.480236	0		1
0.124979	0.480373	0		1
0.112454	0.458707	0		1
0.137489	0.458728	0		1
0.12499	0.437078	0		1
0.0999907	0.437078	0		1
0.112497	0.415431	0		1
0.137498	0.415432	0		1
0.124999	0.393782	0		1
0.149999	0.393782	0		1
0.1375	0.372131	0		1
0.1125	0.372131	0		1
0.125	0.350481	0		1
0.15	0.350481	0		1
0.1375	0.32883	0		1
0.1125	0.32883	0		1
0.125	0.30718	0		1
0.1	0.30718	0		1
0.1125	0.285529	0		1
0.0874979	0.415432	0		1
0.1625	0.32883	0		1
0.175	0.350481	0		1
0.0879127	0.329081	0		1
0.0870447	0.285788	0		1
0.0999241	0.263922	0		1
0.124987	0.263886	0		1
0.112485	0.242236	0		1
0.0874849	0.242236	0		1
0.1625	0.415433	0		1
0.1	0.220577	0		1
0.0771379	0.868529	0		1
0.925	0.437083	0		1
0.074345	0.479941	0		1
0.0769079	0.912371	0		1
0.4125	0.0690227	0		1
0.43808	0.0686366	0		1
0.288223	0.0685876	0		1
0.262646	0.0689325	0		1
0.111965	0.0686626	0		1
0.0866452	0.0697246	0		1
0.137411	0.0689627	0		1
0.863177	0.0686242	0		1
0.837628	0.0689465	0		1
0.362952	0.0669465	0		1
0.925	0.393782	0		1
0.924997	0.69689	0		1
0.0749975	0.220579	0		1
0.65	0.913397	0		1
0.787502	0.848444	0		1
0.1	0.783494	0		1
0.075	0.783494	0		1
0.675	0.437083	0		1
0.6125	0.545337	0		1
0.6875	0.935048	0		1
0.837503	0.805137	0		1
0.6625	0.415433	0		1
0.775001	0.870096	0		1
0.787501	0.891746	0		1
0.7625	0.891747	0		1
0.775	0.913397	0		1
0.75	0.913397	0		1
0.6875	0.458734	0		1
0.109486	0.936636	0		1
0.5875	0.935048	0		1
0.6125	0.935048	0		1
0.4125	0.718542	0		1
0.825	0.740192	0		1
0.125	0.783494	0		1
0.675	0.740192	0		1
0.8	0.913397	0		1
0.0875	0.67524	0		1
0.800002	0.826794	0		1
0.5625	0.935048	0		1
0.3625	0.891747	0		1
0.862511	0.935038	0		1
0.2125	0.805144	0		1
0.5875	0.198927	0		1
0.775	0.263878	0		1
0.2	0.610289	0		1
0.0743529	0.826225	0		1
0.4125	0.67524	0		1
0.75	0.826795	0		1
0.9	0.177276	0		1
0.912177	0.199113	0		1
0.923294	0.17903	0		1
0.899946	0.220608	0		1
0.924614	0.2208	0		1
0.912427	0.24227	0		1
0.225	0.133975	0		1
0.175	0.393782	0		1
0.8125	0.32883	0		1
0.8	0.350481	0		1
0.7875	0.32883	0		1
0.8	0.437083	0		1
0.7	0.696891	0		1
0.85	0.523686	0		1
0.475	0.437083	0		1
0.3875	0.285529	0		1
0.375	0.437083	0		1
0.7875	0.545337	0		1
0.2875	0.631939	0		1
0.3	0.610289	0		1
0.5375	0.588638	0		1
0.55	0.610289	0		1
0.4375	0.242228	0		1
0.3375	0.67524	0		1
0.35	0.350481	0		1
0.0749981	0.437082	0		1
0.0632147	0.415845	0		1
0.45	0.523686	0		1
0.350008	0.13396	0		1
0.675	0.566987	0		1
0.3125	0.242228	0		1
0.725	0.177276	0		1
0.7125	0.155625	0		1
0.6875	0.155625	0		1
0.7	0.133975	0		1
0.725	0.133975	0		1
0.7125	0.112324	0		1
0.6875	0.112324	0		1
0.7375	0.112324	0		1
0.7	0.0906733	0		1
0.675	0.0906733	0		1
0.575	0.393782	0		1
0.5625	0.372132	0		1
0.5625	0.588638	0		1
0.8	0.65359	0		1
0.675	0.220577	0		1
0.8125	0.112324	0		1
0.5625	0.761843	0		1
0.5875	0.761843	0		1
0.45	0.870096	0		1
0.13746	0.502012	0		1
0.8125	0.372132	0		1
0.3375	0.198927	0		1
0.3125	0.198927	0		1
0.0751188	0.393851	0		1
0.45	0.826795	0		1
0.7875	0.155625	0		1
0.9	0.566987	0		1
0.925	0.566987	0		1
0.8125	0.718542	0		1
0.375	0.913397	0		1
0.9125	0.588638	0		1
0.9375	0.588638	0		1
0.925	0.610289	0		1
0.5875	0.372132	0		1
0.7875	0.112324	0		1
0.8	0.0906733	0		1
0.625	0.523686	0		1
0.1875	0.415433	0		1
0.775	0.0906733	0		1
0.175	0.437083	0		1
0.137495	0.24223	0		1
0.2	0.393782	0		1
0.1875	0.32883	0		1
0.175	0.30718	0		1
0.2	0.350481	0		1
0.149997	0.26388	0		1
0.125	0.177276	0		1
0.1	0.177276	0		1
0.0875	0.155625	0		1
0.075	0.177276	0		1
0.4125	0.891747	0		1
0.7125	0.935048	0		1
0.7625	0.935048	0		1
0.3375	0.935048	0		1
0.2875	0.935048	0		1
0.136999	0.935287	0		1
0.149918	0.913411	0		1
0.162403	0.93509	0		1
0.17497	0.913407	0		1
0.187479	0.935057	0		1
0.199991	0.9134	0		1
0.212496	0.935049	0		1
0.224998	0.913398	0		1
0.2375	0.935048	0		1
0.837505	0.935044	0		1
0.9375	0.545337	0		1
0.425677	0.0469216	0		1
0.124316	0.0469159	0		1
0.7875	0.0689694	0		1
0.7625	0.068389	0		1
0.6875	0.0683979	0		1
0.6625	0.0682938	0		1
0.65	0.0905518	0		1
0.63738	0.0683147	0		1
0.7125	0.0689186	0		1
0.0624971	0.242229	0		1
0.937423	0.242272	0		1
0.063134	0.718908	0		1
0.0464861	0.698111	0		1
0.936778	0.718882	0		1
0.0628844	0.545559	0		1
0.0641372	0.155339	0		1
0.6125	0.848446	0		1
0.625	0.826795	0		1
0.575	0.610289	0		1
0.5625	0.631939	0		1
0.6125	0.891747	0		1
0.625	0.783494	0		1
0.8	0.783494	0		1
0.6	0.696891	0		1
0.6125	0.718542	0		1
0.5875	0.67524	0		1
0.6875	0.415433	0		1
0.0751057	0.740253	0		1
0.35	0.566987	0		1
0.8375	0.761843	0		1
0.3625	0.545337	0		1
0.3625	0.502035	0		1
0.35	0.480385	0		1
0.575	0.956699	0		1
0.3375	0.588638	0		1
0.175	0.523686	0		1
0.1875	0.545337	0		1
0.425	0.610289	0		1
0.4375	0.631939	0		1
0.3	0.696891	0		1
0.35	0.870096	0		1
0.175	0.0906733	0		1
0.1875	0.0683979	0		1
0.2125	0.0688653	0		1
0.9125	0.372132	0		1
0.9375	0.372132	0		1
0.85	0.393782	0		1
0.912553	0.285519	0		1
0.9375	0.285529	0		1
0.449826	0.0907652	0		1
0.463378	0.0697095	0		1
0.6875	0.545337	0		1
0.675	0.523686	0		1
0.911492	0.458152	0		1
0.7	0.740192	0		1
0.5375	0.67524	0		1
0.8	0.566987	0		1
0.5625	0.805144	0		1
0.8125	0.545337	0		1
0.525	0.480385	0		1
0.525	0.437083	0		1
0.8375	0.718542	0		1
0.8	0.177276	0		1
0.7	0.566987	0		1
0.3125	0.848446	0		1
0.875	0.566987	0		1
0.25005	0.0906406	0		1
0.262505	0.155621	0		1
0.275001	0.177275	0		1
0.8875	0.372132	0		1
0.62498	0.0905351	0		1
0.613255	0.068936	0		1
0.75	0.133975	0		1
0.6375	0.198927	0		1
0.625	0.220577	0		1
0.65	0.177276	0		1
0.4375	0.805144	0		1
0.45	0.783494	0		1
0.4375	0.935048	0		1
0.4125	0.935048	0		1
0.4125	0.848446	0		1
0.7	0.956699	0		1
0.2	0.30718	0		1
0.162499	0.242228	0		1
0.125	0.956699	0		1
0.0466364	0.396231	0		1
0.0625	0.372132	0		1
0.9375	0.32883	0		1
0.936678	0.460951	0		1
0.949372	0.436822	0		1
0.949435	0.609828	0		1
0.937667	0.631525	0		1
0.0466176	0.175989	0		1
0.0462348	0.523503	0		1
0.961904	0.587991	0		1
0.953502	0.698114	0		1
0.9375	0.67524	0		1
0.95	0.393782	0		1
0.0501214	0.220289	0		1
0.949104	0.219427	0		1
0.399996	0.0470524	0		1
0.15	0.0473721	0		1
0.0505698	0.740425	0		1
0.275145	0.0468322	0		1
0.300338	0.0471432	0		1
0.250048	0.0467078	0		1
0.649811	0.0455694	0		1
0.7	0.0470177	0		1
0.725	0.0473721	0		1
0.850134	0.0468407	0		1
0.875335	0.0471452	0		1
0.825044	0.0467116	0		1
0.775	0.0461107	0		1
0.2	0.0460994	0		1
0.05	0.437083	0		1
0.976016	0.610999	0		1
0.0375486	0.240994	0		1
0.049501	0.2638	0		1
0.0359041	0.285649	0		1
0.0609317	0.285568	0		1
0.962354	0.240823	0		1
0.957902	0.19589	0		1
0.412605	0.0236496	0		1
0.375287	0.0448679	0		1
0.28758	0.0237841	0		1
0.862578	0.0237859	0		1
0.237508	0.0234	0		1
0.812507	0.0234007	0		1
0.7125	0.0243715	0		1
0.75	0.0447421	0		1
0.674984	0.0446047	0		1
0.137386	0.0236735	0		1
0.175	0.0447419	0		1
0.111797	0.0231006	0		1
0.0990047	0.0467959	0		1
0.0726565	0.0447293	0		1
0.063208	0.0717632	0		1
0.0489085	0.0535006	0		1
0.0538872	0.0289135	0		1
0.888334	0.0229877	0		1
0.903161	0.0447152	0		1
0.927902	0.0418353	0		1
0.917167	0.0688713	0		1
0.942288	0.0609024	0		1
0.938042	0.0856748	0		1
0.890283	0.0674892	0		1
0.313283	0.0230738	0		1
0.327004	0.0447286	0		1
0.31474	0.0673702	0		1
0.43821	0.0228795	0		1
0.45172	0.0461123	0		1
0.477636	0.0491046	0		1
0.487689	0.0721438	0		1
0.504056	0.0486433	0		1
0.512139	0.075754	0		1
0.528553	0.0576874	0		1
0.536795	0.079909	0		1
0.55235	0.0618545	0		1
0.561357	0.0843684	0		1
0.577055	0.0649115	0		1
0.48779	0.0252148	0		1
0.662341	0.0225198	0		1
0.624123	0.0461967	0		1
0.595759	0.0498321	0		1
0.611166	0.0244571	0		1
0.225009	0.0462879	0		1
0.7625	0.0225293	0		1
0.1875	0.0225279	0		1
0.800008	0.0463079	0		1
0.362894	0.0219321	0		1
0.6375	0.848446	0		1
0.65	0.826795	0		1
0.6125	0.761843	0		1
0.625	0.740192	0		1
0.6125	0.67524	0		1
0.7375	0.891747	0		1
0.5875	0.631939	0		1
0.5875	0.588638	0		1
0.762501	0.848445	0		1
0.7125	0.458734	0		1
0.6	0.523686	0		1
0.6125	0.502035	0		1
0.5875	0.545337	0		1
0.1125	0.761843	0		1
0.7	0.437083	0		1
0.7	0.480385	0		1
0.0216506	0.4625	0		1
0.0441631	0.476706	0		1
0.375	0.566987	0		1
0.525	0.956699	0		1
0.675	0.480385	0		1
0.6625	0.502035	0		1
0.675	0.956699	0		1
0.675	0.393782	0		1
0.65	0.393782	0		1
0.6625	0.372132	0		1
0.6375	0.372132	0		1
0.45	0.610289	0		1
0.675	0.350481	0		1
0.7375	0.935048	0		1
0.0216506	0.8875	0		1
0.0418376	0.900523	0		1
0.0416818	0.925087	0		1
0.0417719	0.875795	0		1
0.4375	0.588638	0		1
0.425	0.566987	0		1
0.8875	0.978349	0		1
0.9	0.956699	0		1
0.925	0.956699	0		1
0.3125	0.631939	0		1
0.97838	0.537422	0		1
0.953254	0.52486	0		1
0.956699	0.5	0		1
0.535551	0.0207397	0		1
0.575	0.350481	0		1
0.55	0.350481	0		1
0.4125	0.978349	0		1
0.3875	0.978349	0		1
0.375	0.956699	0		1
0.3125	0.67524	0		1
0.775	0.350481	0		1
0.7625	0.32883	0		1
0.775	0.30718	0		1
0.0208024	0.512251	0		1
0.022526	0.410629	0		1
0.0218131	0.386342	0		1
0.7375	0.32883	0		1
0.825004	0.913395	0		1
0.812501	0.935047	0		1
0.7875	0.935048	0		1
0.1625	0.545337	0		1
0.175	0.566987	0		1
0.2	0.566987	0		1
0.837522	0.891733	0		1
0.775	0.826795	0		1
0.3875	0.545337	0		1
0.4	0.566987	0		1
0.0626126	0.761892	0		1
0.037928	0.762128	0		1
0.3375	0.502035	0		1
0.325	0.480385	0		1
0.3375	0.458734	0		1
0.3125	0.458734	0		1
0.3	0.480385	0		1
0.275	0.480385	0		1
0.2875	0.502035	0		1
0.3	0.437083	0		1
0.250005	0.133971	0		1
0.425	0.783494	0		1
0.4375	0.761843	0		1
0.4125	0.761843	0		1
0.5125	0.978349	0		1
0.95033	0.263698	0		1
0.963465	0.286505	0		1
0.951478	0.307114	0		1
0.978349	0.4875	0		1
0.957446	0.475566	0		1
0.937078	0.486906	0		1
0.162485	0.0684702	0		1
0.3625	0.588638	0		1
0.55	0.956699	0		1
0.5375	0.935048	0		1
0.0213957	0.862633	0		1
0.0418673	0.851893	0		1
0.0469117	0.826169	0		1
0.4625	0.631939	0		1
0.0242077	0.0590232	0		1
0.601092	0.0912484	0		1
0.250001	0.177275	0		1
0.2625	0.198926	0		1
0.4125	0.805144	0		1
0.1875	0.978349	0		1
0.149983	0.0905712	0		1
0.8625	0.978349	0		1
0.937339	0.978442	0		1
0.949812	0.956807	0		1
0.937469	0.934881	0		1
0.96222	0.935336	0		1
0.950705	0.912935	0		1
0.963313	0.889379	0		1
0.938315	0.89064	0		1
0.950951	0.868607	0		1
0.926072	0.869229	0		1
0.938267	0.847892	0		1
0.913349	0.847772	0		1
0.92627	0.826072	0		1
0.954534	0.825475	0		1
0.937206	0.80441	0		1
0.923967	0.783784	0		1
0.938915	0.763331	0		1
0.888082	0.847983	0		1
0.925333	0.912703	0		1
0.976931	0.959321	0		1
0.0619087	0.457415	0		1
0.0589104	0.499987	0		1
0.1875	0.805144	0		1
0.175	0.783494	0		1
0.15	0.783494	0		1
0.1625	0.761843	0		1
0.1875	0.761843	0		1
0.6	0.783494	0		1
0.3375	0.978349	0		1
0.625	0.696891	0		1
0.149999	0.437083	0		1
0.162498	0.458733	0		1
0.149991	0.48038	0		1
0.0625	0.805144	0		1
0.05	0.783494	0		1
0.2375	0.978349	0		1
0.325	0.870096	0		1
0.978778	0.812579	0		1
0.2875	0.978349	0		1
0.4125	0.588638	0		1
0.887489	0.242234	0		1
0.0217919	0.336893	0		1
0.0397823	0.32595	0		1
0.0456263	0.350202	0		1
0.2375	0.805144	0		1
0.978693	0.7636	0		1
0.0212877	0.937353	0		1
0.0428778	0.949829	0		1
0.0653172	0.934552	0		1
0.0645354	0.961476	0		1
0.0864815	0.949821	0		1
0.0877616	0.848217	0		1
0.978872	0.6625	0		1
0.954601	0.651482	0		1
0.3875	0.761843	0		1
0.977599	0.711586	0		1
0.225	0.783494	0		1
0.0406153	0.976827	0		1
0.2	0.783494	0		1
0.2125	0.761843	0		1
0.2	0.740192	0		1
0.225	0.740192	0		1
0.2125	0.718542	0		1
0.225	0.696891	0		1
0.2	0.696891	0		1
0.3	0.740192	0		1
0.2125	0.155625	0		1
0.1375	0.805144	0		1
0.1375	0.761843	0		1
0.0216506	0.1875	0		1
0.137497	0.285531	0		1
0.1625	0.285529	0		1
0.976684	0.865416	0		1
0.637497	0.112281	0		1
0.662499	0.112296	0		1
0.850002	0.78349	0		1
0.825001	0.783492	0		1
0.812501	0.805143	0		1
0.862501	0.761841	0		1
0.75	0.870096	0		1
0.862499	0.718541	0		1
0.0750641	0.567024	0		1
0.0506485	0.567362	0		1
0.0626188	0.588706	0		1
0.0750198	0.6103	0		1
0.0379386	0.588733	0		1
0.0242718	0.565406	0		1
0.100003	0.61029	0		1
0.0875038	0.631941	0		1
0.0625039	0.631941	0		1
0.0750013	0.653591	0		1
0.0502399	0.654393	0		1
0.0376516	0.63345	0		1
0.100001	0.65359	0		1
0.0623985	0.675538	0		1
0.125	0.65359	0		1
0.425	0.65359	0		1
0.0215688	0.1125	0		1
0.0414355	0.100478	0		1
0.0409353	0.125144	0		1
0.0216506	0.1375	0		1
0.425	0.523686	0		1
0.6125	0.32883	0		1
0.6	0.350481	0		1
0.6	0.956699	0		1
0.625	0.956699	0		1
0.5875	0.978349	0		1
0.6375	0.935048	0		1
0.65	0.956699	0		1
0.6625	0.935048	0		1
0.625	0.913397	0		1
0.6375	0.891747	0		1
0.625	0.870096	0		1
0.3125	0.805144	0		1
0.1875	0.588638	0		1
0.187494	0.891749	0		1
0.7375	0.848445	0		1
0.3125	0.32883	0		1
0.325	0.30718	0		1
0.3125	0.285529	0		1
0.925039	0.263861	0		1
0.900001	0.263882	0		1
0.75	0.263878	0		1
0.7625	0.285529	0		1
0.275	0.263878	0		1
0.625	0.65359	0		1
0.5375	0.891747	0		1
0.4875	0.32883	0		1
0.5	0.350481	0		1
0.475	0.350481	0		1
0.4875	0.372132	0		1
0.4625	0.372132	0		1
0.475	0.393782	0		1
0.4375	0.372132	0		1
0.425	0.826795	0		1
0.225	0.610289	0		1
0.1125	0.675241	0		1
0.7125	0.891747	0		1
0.2875	0.285529	0		1
0.225008	0.0906416	0		1
0.978393	0.112575	0		1
0.957509	0.100235	0		1
0.956841	0.125052	0		1
0.935048	0.1125	0		1
0.936044	0.138575	0		1
0.956699	0.15	0		1
0.425	0.696891	0		1
0.4375	0.718542	0		1
0.4375	0.67524	0		1
0.675	0.696891	0		1
0.6625	0.718542	0		1
0.812508	0.891742	0		1
0.575	0.177276	0		1
0.5625	0.198927	0		1
0.5375	0.198927	0		1
0.575	0.220577	0		1
0.55	0.220577	0		1
0.525	0.220577	0		1
0.5625	0.242228	0		1
0.5125	0.198927	0		1
0.5	0.220577	0		1
0.4875	0.198927	0		1
0.475	0.220577	0		1
0.475	0.177276	0		1
0.6	0.220577	0		1
0.387563	0.068606	0		1
0.6875	0.718542	0		1
0.862498	0.242229	0		1
0.6625	0.805144	0		1
0.7	0.393782	0		1
0.725	0.696891	0		1
0.6	0.610289	0		1
0.6	0.566987	0		1
0.725	0.610289	0		1
0.675	0.13397	0		1
0.6625	0.155624	0		1
0.775	0.783494	0		1
0.2	0.480385	0		1
0.4	0.65359	0		1
0.7875	0.372132	0		1
0.8	0.393782	0		1
0.3375	0.32883	0		1
0.35	0.30718	0		1
0.7125	0.631939	0		1
0.3625	0.415433	0		1
0.937395	0.415389	0		1
0.961868	0.414336	0		1
0.975751	0.436728	0		1
0.7125	0.415433	0		1
0.1625	0.372132	0		1
0.8	0.263878	0		1
0.3875	0.155625	0		1
0.325	0.740192	0		1
0.3125	0.718542	0		1
0.2875	0.718542	0		1
0.124997	0.220579	0		1
0.25	0.393782	0		1
0.4875	0.848446	0		1
0.6625	0.848446	0		1
0.887271	0.155468	0		1
0.225	0.437083	0		1
0.7375	0.155625	0		1
0.6	0.740192	0		1
0.775	0.437083	0		1
0.15	0.30718	0		1
0.825	0.30718	0		1
0.375	0.870096	0		1
0.462067	0.112572	0		1
0.887332	0.458637	0		1
0.899196	0.479397	0		1
0.100018	0.740203	0		1
0.7875	0.415433	0		1
0.725	0.480385	0		1
0.4	0.30718	0		1
0.825012	0.826784	0		1
0.475	0.610289	0		1
0.978525	0.362867	0		1
0.95456	0.350344	0		1
0.775	0.65359	0		1
0.3875	0.458734	0		1
0.887509	0.285528	0		1
0.162497	0.112307	0		1
0.6	0.870096	0		1
0.7625	0.372132	0		1
0.5125	0.415433	0		1
0.375	0.350481	0		1
0.35	0.610289	0		1
0.425	0.220577	0		1
0.3625	0.198927	0		1
0.45	0.263878	0		1
0.475	0.740192	0		1
0.475	0.783494	0		1
0.5375	0.631939	0		1
0.137488	0.891723	0		1
0.875	0.393782	0		1
0.976804	0.310185	0		1
0.375	0.263878	0		1
0.6	0.480385	0		1
0.825	0.437083	0		1
0.525	0.566987	0		1
0.775	0.523686	0		1
0.5125	0.502035	0		1
0.45	0.393782	0		1
0.475	0.870096	0		1
0.437399	0.112381	0		1
0.979578	0.063947	0		1
0.175	0.610289	0		1
0.3125	0.415433	0		1
0.0497355	0.61078	0		1
0.325	0.610289	0		1
0.3	0.65359	0		1
0.8375	0.502035	0		1
0.275	0.523686	0		1
0.5	0.263878	0		1
0.275	0.65359	0		1
0.2625	0.372132	0		1
0.2375	0.372132	0		1
0.525	0.696891	0		1
0.6875	0.242228	0		1
0.7875	0.502035	0		1
0.5375	0.761843	0		1
0.0216506	0.6875	0		1
0.3	0.220577	0		1
0.525	0.177276	0		1
0.874989	0.220584	0		1
0.725	0.826795	0		1
0.6375	0.718542	0		1
0.15	0.566987	0		1
0.6375	0.978349	0		1
0.914344	0.153093	0		1
0.55	0.826795	0		1
0.0220568	0.711942	0		1
0.425	0.393782	0		1
0.4375	0.502035	0		1
0.6875	0.631939	0		1
0.65	0.740192	0		1
0.35	0.696891	0		1
0.225	0.566987	0		1
0.7125	0.761843	0		1
0.6625	0.588638	0		1
0.2125	0.545337	0		1
0.5375	0.805144	0		1
0.375001	0.133972	0		1
0.8	0.30718	0		1
0.5375	0.458734	0		1
0.6375	0.415433	0		1
0.3125	0.588638	0		1
0.4625	0.545337	0		1
0.55	0.913397	0		1
0.525	0.913397	0		1
0.5875	0.415433	0		1
0.511137	0.113568	0		1
0.262564	0.112278	0		1
0.978349	0.1375	0		1
0.45	0.437083	0		1
0.625	0.263878	0		1
0.4625	0.32883	0		1
0.5375	0.372132	0		1
0.2875	0.588638	0		1
0.5625	0.67524	0		1
0.7875	0.588638	0		1
0.925991	0.524541	0		1
0.825	0.177276	0		1
0.325037	0.133928	0		1
0.825	0.523686	0		1
0.625	0.393782	0		1
0.575	0.523686	0		1
0.7	0.610289	0		1
0.1875	0.372132	0		1
0.95	0.566987	0		1
0.3625	0.458734	0		1
0.8125	0.978349	0		1
0.35	0.177276	0		1
0.55	0.696891	0		1
0.7375	0.198927	0		1
0.3375	0.848446	0		1
0.362502	0.155622	0		1
0.8	0.523686	0		1
0.7625	0.978349	0		1
0.8625	0.545337	0		1
0.55	0.566987	0		1
0.562525	0.109785	0		1
0.2625	0.502035	0		1
0.325	0.696891	0		1
0.7875	0.285529	0		1
0.825	0.65359	0		1
0.8125	0.67524	0		1
0.725	0.30718	0		1
0.725	0.090656	0		1
0.675	0.263878	0		1
0.25	0.350481	0		1
0.7875	0.718542	0		1
0.55	0.65359	0		1
0.725	0.740192	0		1
0.25	0.783494	0		1
0.5	0.480385	0		1
0.100069	0.350523	0		1
0.0745639	0.263924	0		1
0.0744578	0.306905	0		1
0.15	0.740192	0		1
0.4125	0.545337	0		1
0.837515	0.112314	0		1
0.45	0.177276	0		1
0.3	0.826795	0		1
0.25	0.870096	0		1
0.8875	0.631939	0		1
0.9125	0.67524	0		1
0.4375	0.545337	0		1
0.8125	0.588638	0		1
0.75	0.177276	0		1
0.575	0.566987	0		1
0.15	0.177276	0		1
0.325	0.65359	0		1
0.325	0.350481	0		1
0.3375	0.805144	0		1
0.124956	0.523661	0		1
0.55	0.783494	0		1
0.10006	0.134	0		1
0.2125	0.588638	0		1
0.7875	0.67524	0		1
0.825	0.566987	0		1
0.3125	0.935048	0		1
0.325	0.437083	0		1
0.337508	0.155614	0		1
0.8625	0.372132	0		1
0.7125	0.718542	0		1
0.8125	0.415433	0		1
0.4625	0.761843	0		1
0.2625	0.891747	0		1
0.5125	0.458734	0		1
0.875	0.350481	0		1
0.4625	0.198927	0		1
0.3625	0.32883	0		1
0.575	0.65359	0		1
0.6	0.393782	0		1
0.4625	0.935048	0		1
0.6625	0.242228	0		1
0.8375	0.545337	0		1
0.9	0.350481	0		1
0.100019	0.393793	0		1
0.575	0.783494	0		1
0.725	0.566987	0		1
0.0872397	0.45841	0		1
0.8125	0.198927	0		1
0.92576	0.350458	0		1
0.0766607	0.134637	0		1
0.35	0.437083	0		1
0.6	0.65359	0		1
0.6875	0.588638	0		1
0.375	0.30718	0		1
0.45	0.220577	0		1
0.4625	0.848446	0		1
0.7125	0.545337	0		1
0.2125	0.67524	0		1
0.149998	0.870092	0		1
0.825039	0.0906493	0		1
0.6875	0.502035	0		1
0.85	0.566987	0		1
0.4625	0.415433	0		1
0.7	0.523686	0		1
0.325001	0.177274	0		1
0.8625	0.588638	0		1
0.7125	0.588638	0		1
0.5	0.437083	0		1
0.7875	0.198927	0		1
0.5625	0.978349	0		1
0.300001	0.177275	0		1
0.4625	0.242228	0		1
0.0875343	0.372152	0		1
0.812536	0.0687097	0		1
0.325	0.826795	0		1
0.8875	0.588638	0		1
0.2875	0.198927	0		1
0.8	0.696891	0		1
0.6625	0.32883	0		1
0.3625	0.285529	0		1
0.75	0.30718	0		1
0.575	0.263878	0		1
0.775	0.177276	0		1
0.162478	0.891746	0		1
0.4875	0.242228	0		1
0.675	0.177276	0		1
0.3375	0.285529	0		1
0.0222409	0.812876	0		1
0.149986	0.523678	0		1
0.5125	0.242228	0		1
0.4875	0.415433	0		1
0.5875	0.242228	0		1
0.325	0.263878	0		1
0.6125	0.242228	0		1
0.9	0.610289	0		1
0.5375	0.242228	0		1
0.8375	0.372132	0		1
0.6375	0.155625	0		1
0.625	0.480385	0		1
0.4	0.956699	0		1
0.55	0.263878	0		1
0.825	0.393782	0		1
0.3625	0.848446	0		1
0.3	0.263878	0		1
0.6375	0.242228	0		1
0.85	0.696891	0		1
0.65	0.220577	0		1
0.0747911	0.350737	0		1
0.199999	0.870097	0		1
0.3125	0.502035	0		1
0.6625	0.198926	0		1
0.2875	0.242228	0		1
0.35	0.523686	0		1
0.825	0.696891	0		1
0.1875	0.67524	0		1
0.375	0.523686	0		1
0.5375	0.32883	0		1
0.7625	0.155625	0		1
0.912528	0.63187	0		1
0.649999	0.133962	0		1
0.175	0.696891	0		1
0.5625	0.32883	0		1
0.475	0.65359	0		1
0.45	0.65359	0		1
0.162489	0.502029	0		1
0.775	0.133975	0		1
0.212497	0.891748	0		1
0.85	0.740192	0		1
0.275	0.220577	0		1
0.5	0.393782	0		1
0.925799	0.653158	0		1
0.25	0.220577	0		1
0.174999	0.480384	0		1
0.187499	0.458734	0		1
0.6125	0.112324	0		1
0.2375	0.198926	0		1
0.45	0.696891	0		1
0.7625	0.112324	0		1
0.5125	0.372132	0		1
0.237499	0.891747	0		1
0.3	0.523686	0		1
0.6125	0.372132	0		1
0.237502	0.155624	0		1
0.625	0.350481	0		1
0.65	0.523686	0		1
0.75	0.0905648	0		1
0.65	0.350481	0		1
0.45	0.740192	0		1
0.525	0.350481	0		1
0.2	0.437083	0		1
0.237521	0.112305	0		1
0.787501	0.805144	0		1
0.237544	0.0686793	0		1
0.7375	0.0684404	0		1
0.45	0.956699	0		1
0.175	0.740192	0		1
0.3875	0.891747	0		1
0.2125	0.415433	0		1
0.4	0.740192	0		1
0.2125	0.285529	0		1
0.1875	0.718542	0		1
0.25	0.913398	0		1
0.225	0.393782	0		1
0.113142	0.97845	0		1
0.2625	0.935048	0		1
0.425	0.740192	0		1
0.2125	0.372132	0		1
0.4375	0.848446	0		1
0.1875	0.285529	0		1
0.175	0.220577	0		1
0.0875143	0.76185	0		1
0.725	0.913397	0		1
0.149998	0.220578	0		1
0.425	0.956699	0		1
0.225	0.350481	0		1
0.137499	0.198927	0		1
0.425	0.870096	0		1
0.2125	0.32883	0		1
0.225	0.30718	0		1
0.112499	0.198927	0		1
0.4	0.870096	0		1
0.6375	0.502035	0		1
0.0874995	0.198927	0		1
0.174999	0.263879	0		1
0.1875	0.242228	0		1
0.0625	0.198927	0		1
0.6125	0.805144	0		1
0.6875	0.978349	0		1
0.6375	0.805144	0		1
0.7125	0.978349	0		1
0.4	0.913397	0		1
0.725	0.956699	0		1
0.75	0.956699	0		1
0.775	0.956699	0		1
0.3875	0.935048	0		1
0.8	0.956699	0		1
0.825001	0.956698	0		1
0.3625	0.935048	0		1
0.850001	0.956698	0		1
0.35	0.956699	0		1
0.325	0.956699	0		1
0.3	0.956699	0		1
0.275	0.956699	0		1
0.875002	0.956697	0		1
0.25	0.956699	0		1
0.8875	0.935048	0		1
0.224999	0.956699	0		1
0.199996	0.9567	0		1
0.17498	0.956707	0		1
0.912566	0.934877	0		1
0.149897	0.956747	0		1
0.13759	0.978374	0		1
0.924905	0.740138	0		1
0.949105	0.73954	0		1
0.913192	0.890986	0		1
0.900545	0.826399	0		1
0.960189	0.776164	0		1
0.0636334	0.1125	0		1
0.910878	0.111669	0		1
0.976443	0.0387366	0		1
0.585019	0.024715	0		1
0.979745	0.187343	0		1
0.338709	0.0668247	0		1
0.474118	0.0917061	0		1
0.0766235	0.0916106	0		1
0.937952	0.0203243	0		1
0.062849	0.88927	0		1
0.934938	0.199539	0		1
0.350858	0.0446266	0		1
0.567678	0.0439874	0		1
0.958788	0.172916	0		1
0.0413258	0.149552	0		1
0.0429188	0.0771053	0		1
0.0624493	0.328471	0		1
0.0401769	0.2	0		1
0.959594	0.0755011	0		1
0.0404352	0.674941	0		1
0.960565	0.674967	0		1
0.0653161	0.84682	0		1
0.0398314	0.373569	0		1
0.959472	0.37388	0		1
0.0343392	0.0198657	0		1
0.498335	0.0931273	0		1
0.951403	0.0393548	0		1
0.960491	0.849924	0		1
0.938151	0.161731	0		1
0.95934	0.327184	0		1
0.959737	0.799379	0		1
0.0483683	0.305946	0		1
0.041138	0.547866	0		1
0.959062	0.547863	0		1
0.0410982	0.802635	0		1
0.95849	0.721116	0		1
0.0412244	0.721671	0		1
0.544006	0.0412077	0		1
0.017079	0.6375	0		1
0.0168892	0.237896	0		1
0.983035	0.2375	0		1
0.959213	0.628267	0		1
0.982897	0.413072	0		1
0.0631092	0.983004	0		1
0.983322	0.936978	0		1
0.0414908	0.419385	0		1
0.0166839	0.5875	0		1
0.983135	0.587587	0		1
0.0166724	0.7625	0		1
0.983557	0.888505	0		1
0.580445	0.0904855	0		1
0.10474	0.959435	0		1
0.0876493	0.929167	0		1
0.937584	0.507317	0		1
0.523111	0.0950907	0		1
0.0405041	0.454549	0		1
0.959554	0.454946	0		1
0.0155875	0.287149	0		1
0.984466	0.287353	0		1
0.524933	0.0379858	0		1
0.981699	0.0183013	0		1
0.981699	0.981699	0		1
0.0183013	0.981699	0		1
0.0181186	0.0181186	0		1
0.0381231	0.499989	0		1
0.919421	0.477018	0		1
0.960327	0.756044	0		1
0.919888	0.093829	0		1
0.918189	0.129127	0		1
0.594097	0.0728316	0		1
0.961861	0.0556884	0		1
0.546128	0.0962702	0		1
0.0569791	0.136992	0		1
0.942558	0.182675	0		1
0.0577735	0.864354	0		1
0.069579	0.0175636	0		1
0.943594	0.786268	0		1
0.0566987	0.9125	0		1
0.0578579	0.0905986	0		1
0.0378257	0.0381838	0		1

Triangles
3720
215	1400	1401	1
163	1189	1196	1
854	855	1330	1
1121	1260	1261	1
210	1134	1152	1
216	1135	1156	1
1132	1362	1775	1
215	1401	1900	1
1647	1878	1893	1
1048	1570	1580	1
207	1131	1364	1
1121	1260	1907	1
183	1128	1378	1
202	1129	1259	1
700	1178	1181	1
210	1152	1901	1
216	1156	1902	1
165	1133	1495	1
1315	1317	1381	1
936	1300	1883	1
1122	1352	1752	1
1081	1526	1693	1
27	28	1865	1
1351	1878	1893	1
196	1171	1937	1
1123	1526	1693	1
889	1223	1330	1
1035	1247	1610	1
163	1189	1921	1
936	1300	1342	1
183	1128	1876	1
139	202	1395	1
1352	1752	1878	1
700	1178	1929	1
854	1129	1330	1
855	889	1330	1
1127	1362	1775	1
199	1130	1618	1
889	1223	1329	1
204	1187	1196	1
186	1322	1346	1
204	1186	1187	1
196	1170	1171	1
219	1274	1343	1
1315	1381	1911	1
1289	1290	1544	1
1131	1364	1897	1
1048	1580	1898	1
1195	1199	1874	1
1187	1189	1196	1
165	1495	1904	1
29	172	1200	1
81	82	1328	1
120	121	1366	1
28	1200	1865	1
1171	1174	1937	1
173	1138	1274	1
1132	1362	1882	1
895	1037	1170	1
892	1036	1186	1
23	24	1196	1
175	1139	1141	1
15	16	1160	1
16	1160	1182	1
16	17	1182	1
20	21	1158	1
21	1158	1185	1
21	22	1185	1
9	10	1167	1
9	1167	1169	1
8	9	1169	1
39	40	1175	1
38	39	1161	1
39	1161	1175	1
184	1145	1147	1
32	33	1164	1
1247	1610	1915	1
168	1394	1557	1
138	139	1395	1
757	893	1184	1
695	898	1181	1
202	1129	1894	1
216	1135	1157	1
220	1149	1201	1
220	1149	1203	1
212	1148	1202	1
212	1148	1204	1
172	1142	1197	1
1199	1865	1874	1
13	14	1162	1
1078	1168	1294	1
1039	1165	1798	1
36	37	1163	1
1040	1041	1166	1
68	170	1151	1
67	68	1151	1
1299	1300	1883	1
1322	1346	1892	1
900	1159	1474	1
1043	1107	1198	1
194	1313	1314	1
193	1358	1359	1
60	61	1496	1
1173	1302	1941	1
753	755	1867	1
1180	1450	1452	1
900	1159	1873	1
221	1302	1941	1
209	1154	1893	1
82	1328	1923	1
121	1366	1924	1
166	1136	1159	1
172	1142	1198	1
880	1155	1646	1
1129	1259	1926	1
172	1198	1200	1
28	29	1200	1
178	1153	1154	1
176	1288	1289	1
194	1314	1315	1
199	1130	1909	1
900	1867	1873	1
209	1154	1919	1
1289	1544	1920	1
892	1086	1186	1
895	896	1170	1
6	1174	1937	1
27	200	1865	1
1124	1292	1293	1
1140	1183	1184	1
1146	1176	1181	1
1128	1378	1879	1
211	1143	1166	1
175	1141	1162	1
188	1137	1168	1
184	1147	1163	1
180	1144	1165	1
1136	1159	1474	1
1043	1142	1198	1
24	163	1196	1
23	204	1196	1
178	1152	1153	1
176	1156	1288	1
6	1174	1886	1
166	1136	1158	1
20	166	1158	1
175	1139	1160	1
15	175	1160	1
8	196	1169	1
32	211	1164	1
211	1143	1164	1
38	184	1161	1
184	1145	1161	1
40	190	1175	1
17	213	1182	1
188	1137	1167	1
10	188	1167	1
22	204	1185	1
33	180	1164	1
180	1144	1164	1
219	1274	1910	1
1084	1289	1290	1
893	1140	1184	1
755	757	1184	1
695	700	1181	1
898	1146	1181	1
1107	1198	1199	1
1037	1169	1170	1
1146	1175	1176	1
1140	1182	1183	1
1036	1185	1186	1
1176	1178	1181	1
61	203	1496	1
220	1162	1201	1
1149	1168	1203	1
1148	1165	1202	1
212	1163	1204	1
1142	1166	1197	1
14	175	1162	1
13	220	1162	1
1078	1149	1168	1
1137	1168	1294	1
1144	1165	1798	1
1039	1148	1165	1
36	212	1163	1
37	184	1163	1
1040	1143	1166	1
1041	1142	1166	1
168	1401	1557	1
198	1150	1907	1
1084	1288	1289	1
919	1359	1914	1
919	1359	1913	1
202	1395	1894	1
1048	1570	1881	1
207	1131	1882	1
1351	1352	1878	1
755	1184	1867	1
772	1123	1290	1
215	1400	1881	1
1153	1155	1646	1
1155	1647	1893	1
880	1155	1647	1
821	824	1859	1
1051	1128	1876	1
186	1322	1889	1
772	1084	1290	1
822	1318	1320	1
179	1858	1897	1
815	818	1326	1
200	1874	1899	1
1122	1352	1884	1
1081	1526	1885	1
1453	1578	1930	1
173	1274	1910	1
210	1134	1879	1
1178	1180	1929	1
826	1323	1324	1
1453	1578	1890	1
826	1321	1323	1
1320	1321	1860	1
173	1138	1898	1
1312	1327	1854	1
222	1864	1888	1
168	1394	1908	1
822	1320	1326	1
219	1343	1896	1
1124	1293	1927	1
1121	1261	1884	1
165	1133	1885	1
199	1618	1895	1
179	1858	1928	1
200	1249	1899	1
824	1327	1859	1
818	822	1326	1
813	815	1326	1
1153	1154	1155	1
1314	1315	1316	1
826	1321	1860	1
193	1359	1913	1
1194	1195	1912	1
198	1150	1917	1
1198	1199	1200	1
824	1327	1854	1
1312	1314	1327	1
166	1159	1205	1
60	1496	1904	1
1086	1186	1187	1
896	1170	1171	1
821	822	1859	1
753	900	1867	1
1864	1888	1932	1
1194	1630	1912	1
808	809	1324	1
809	826	1324	1
198	1260	1907	1
1322	1323	1892	1
30	31	1197	1
1038	1204	1718	1
34	35	1202	1
11	12	1203	1
1079	1201	1797	1
196	1169	1170	1
190	1175	1176	1
213	1182	1183	1
204	1185	1186	1
1195	1912	1931	1
18	19	1205	1
1123	1526	1891	1
1315	1316	1317	1
822	1318	1859	1
808	1324	1325	1
1141	1162	1201	1
188	1168	1203	1
1147	1163	1204	1
180	1165	1202	1
211	1166	1197	1
30	172	1197	1
31	211	1197	1
1147	1204	1718	1
1038	1148	1204	1
34	180	1202	1
35	212	1202	1
12	220	1203	1
11	188	1203	1
1141	1201	1797	1
1079	1149	1201	1
1314	1316	1327	1
1180	1452	1929	1
19	166	1205	1
18	213	1205	1
1086	1187	1188	1
896	1171	1172	1
193	1358	1905	1
194	1313	1906	1
874	879	1647	1
874	880	1647	1
190	1176	1177	1
1195	1199	1931	1
1316	1317	1318	1
1187	1188	1189	1
1171	1172	1173	1
1176	1177	1178	1
1317	1318	1319	1
1171	1173	1174	1
1188	1189	1190	1
1177	1178	1179	1
1318	1319	1320	1
1189	1190	1191	1
1178	1179	1180	1
1319	1320	1321	1
1190	1191	1192	1
187	1866	1875	1
1319	1321	1322	1
1191	1192	1193	1
1321	1322	1323	1
1192	1193	1194	1
1193	1194	1195	1
773	1206	1507	1
1206	1207	1507	1
462	1207	1507	1
1052	1421	1531	1
987	1336	1689	1
117	1808	1856	1
987	1208	1336	1
1208	1209	1511	1
987	1208	1511	1
1060	1209	1511	1
1060	1209	1575	1
217	1228	1417	1
1059	1210	1338	1
529	1210	1338	1
716	1477	1833	1
535	1213	1480	1
1054	1213	1480	1
1216	1218	1615	1
917	1235	1816	1
775	1218	1615	1
776	1216	1615	1
776	1216	1217	1
776	1217	1546	1
904	1416	1419	1
1228	1417	1418	1
938	1214	1270	1
904	1419	1420	1
905	1214	1270	1
904	1416	1418	1
773	1206	1421	1
462	1207	1477	1
1056	1419	1420	1
906	907	1815	1
1416	1417	1418	1
1056	1420	1421	1
805	1336	1689	1
1056	1421	1531	1
1052	1206	1421	1
520	1211	1388	1
520	1211	1446	1
911	1386	1523	1
908	1062	1220	1
1062	1220	1497	1
918	1215	1221	1
520	1388	1425	1
1214	1388	1425	1
650	1212	1480	1
1060	1338	1575	1
1059	1060	1338	1
1273	1274	1343	1
907	1273	1343	1
1054	1212	1480	1
918	1215	1220	1
1088	1227	1705	1
650	1434	1696	1
775	1218	1659	1
798	1743	1826	1
908	918	1220	1
1062	1478	1497	1
529	1210	1434	1
650	1212	1696	1
938	1214	1425	1
1241	1272	1348	1
1062	1229	1478	1
458	1229	1478	1
1252	1744	1818	1
1218	1481	1659	1
535	1213	1481	1
1021	1235	1816	1
458	1229	1231	1
458	1231	1234	1
1210	1434	1696	1
905	928	1270	1
1334	1377	1648	1
688	1065	1385	1
1065	1384	1385	1
640	1448	1795	1
1213	1481	1659	1
777	1219	1377	1
777	1219	1519	1
1207	1477	1833	1
928	1386	1523	1
657	1284	1306	1
945	1375	1787	1
657	1284	1286	1
928	1386	1796	1
1455	1456	1781	1
1112	1306	1443	1
928	1270	1796	1
161	225	226	1
1112	1284	1306	1
1334	1335	1800	1
657	1286	1363	1
777	1377	1648	1
539	1221	1521	1
103	161	225	1
1070	1295	1535	1
1217	1546	1743	1
142	162	1222	1
384	1250	1412	1
994	1112	1443	1
907	1273	1815	1
1003	1250	1412	1
778	798	1226	1
1064	1070	1295	1
417	1371	1372	1
162	1222	1223	1
1215	1221	1521	1
418	421	1370	1
1106	1303	1779	1
806	1387	1772	1
958	1558	1595	1
125	126	1236	1
588	589	1760	1
1226	1227	1705	1
86	87	1242	1
1088	1227	1789	1
688	1058	1385	1
543	1233	1240	1
201	1225	1287	1
1073	1233	1240	1
911	1385	1386	1
1065	1384	1387	1
417	1370	1371	1
1245	1559	1661	1
440	455	1780	1
790	1245	1661	1
1281	1561	1631	1
1102	1448	1795	1
389	391	1280	1
421	1368	1370	1
539	1221	1705	1
796	1224	1295	1
796	1272	1348	1
1069	1296	1714	1
796	1224	1272	1
201	1225	1296	1
327	458	1234	1
102	103	161	1
324	327	1234	1
141	142	162	1
1076	1515	1747	1
798	1226	1227	1
167	1413	1414	1
174	1834	1836	1
417	418	1370	1
313	384	1766	1
945	1283	1787	1
926	1264	1265	1
1280	1281	1631	1
1414	1417	1577	1
539	1705	1708	1
926	1263	1264	1
257	1301	1524	1
1233	1301	1524	1
167	1413	1415	1
654	1456	1781	1
167	1414	1577	1
778	918	1226	1
421	1365	1368	1
104	197	225	1
1064	1224	1295	1
143	198	1222	1
483	1278	1279	1
543	1233	1524	1
1266	1267	1576	1
1241	1272	1649	1
1071	1733	1769	1
107	169	1253	1
853	1048	1403	1
146	171	1261	1
384	1250	1766	1
1070	1535	1558	1
483	1278	1282	1
589	1271	1760	1
64	164	1246	1
217	1417	1577	1
164	1246	1247	1
1073	1240	1348	1
791	1266	1576	1
962	1255	1632	1
141	162	1259	1
1232	1788	1791	1
169	1253	1254	1
704	1267	1423	1
1239	1298	1299	1
25	163	1249	1
704	1267	1576	1
1115	1744	1818	1
1117	1228	1832	1
126	1236	1298	1
556	1489	1520	1
556	1488	1489	1
102	161	1287	1
1075	1255	1632	1
1256	1488	1532	1
1410	1649	1656	1
556	1488	1532	1
704	1423	1555	1
926	1263	1460	1
712	1636	1725	1
1070	1558	1595	1
924	1333	1376	1
636	1303	1779	1
929	1296	1297	1
989	1733	1769	1
101	201	1287	1
389	483	1280	1
335	1256	1532	1
830	910	1418	1
589	1271	1649	1
667	1515	1747	1
87	1242	1309	1
140	202	1259	1
1117	1832	1834	1
326	328	1262	1
918	1221	1226	1
335	1256	1257	1
414	417	1372	1
916	1022	1265	1
98	99	1415	1
958	1245	1558	1
412	414	1372	1
917	1211	1816	1
140	141	1259	1
790	1245	1558	1
203	1291	1292	1
101	102	1287	1
793	1754	1785	1
103	104	225	1
197	225	1799	1
1255	1559	1661	1
142	143	1222	1
455	1304	1780	1
1334	1648	1800	1
1263	1269	1460	1
1240	1241	1348	1
1065	1387	1772	1
161	227	1287	1
817	819	1269	1
104	105	197	1
1236	1239	1298	1
1077	1078	1294	1
143	144	198	1
125	192	1236	1
98	167	1415	1
536	909	1481	1
126	127	1298	1
475	484	1363	1
1232	1786	1788	1
1217	1743	1826	1
916	926	1265	1
63	64	164	1
853	927	1403	1
1075	1502	1632	1
86	191	1242	1
24	25	163	1
1253	1254	1744	1
87	88	1309	1
201	1296	1714	1
1077	1294	1308	1
227	1225	1287	1
1069	1415	1714	1
1405	1457	1768	1
1333	1334	1377	1
161	226	227	1
773	1420	1421	1
391	1280	1631	1
483	1279	1280	1
1087	1701	1708	1
924	1333	1377	1
819	1269	1460	1
889	1329	1691	1
65	199	1246	1
935	1423	1555	1
927	1399	1402	1
860	1340	1341	1
26	200	1249	1
127	182	1298	1
1282	1556	1671	1
1382	1383	1764	1
1231	1232	1791	1
328	335	1262	1
144	198	1260	1
1458	1459	1475	1
964	1329	1691	1
1080	1687	1693	1
1079	1448	1797	1
925	1459	1475	1
1105	1679	1687	1
1271	1272	1649	1
800	801	1741	1
192	1236	1237	1
88	181	1309	1
817	820	1269	1
1225	1296	1297	1
335	1257	1262	1
105	197	1252	1
860	1339	1340	1
1080	1081	1693	1
653	904	1420	1
1080	1105	1687	1
63	164	1291	1
324	1234	1723	1
385	387	1282	1
223	1311	1328	1
800	1673	1679	1
910	1228	1418	1
653	773	1420	1
1371	1372	1373	1
927	1399	1403	1
1075	1502	1503	1
62	203	1291	1
1069	1413	1415	1
191	1242	1243	1
387	483	1282	1
646	1389	1750	1
1241	1649	1656	1
499	1363	1803	1
927	1402	1445	1
659	1333	1376	1
585	1457	1768	1
1028	1424	1728	1
1236	1237	1239	1
830	904	1418	1
858	989	1341	1
804	1088	1789	1
1353	1365	1643	1
484	657	1363	1
1105	1673	1679	1
807	810	1387	1
671	887	1360	1
223	1310	1311	1
62	63	1291	1
164	1248	1291	1
929	1069	1296	1
1058	1485	1796	1
935	1444	1667	1
64	65	1246	1
858	860	1341	1
65	66	199	1
25	26	1249	1
421	1365	1643	1
951	1479	1674	1
962	1255	1661	1
106	107	1253	1
1331	1332	1367	1
640	945	1795	1
224	1355	1356	1
475	499	1363	1
535	536	1481	1
1278	1282	1671	1
326	1262	1636	1
1248	1291	1292	1
909	1218	1481	1
26	27	200	1
145	146	1261	1
1365	1367	1368	1
1489	1520	1675	1
1262	1636	1725	1
1120	1808	1856	1
1097	1389	1750	1
934	1432	1633	1
224	1356	1366	1
1459	1575	1584	1
1451	1454	1602	1
589	1410	1649	1
625	1100	1345	1
528	531	1434	1
385	1282	1556	1
1209	1575	1584	1
145	1260	1261	1
1100	1624	1719	1
810	1384	1387	1
158	189	1302	1
1071	1266	1733	1
1084	1288	1429	1
1332	1335	1367	1
106	1252	1253	1
507	511	1404	1
588	1067	1760	1
1058	1385	1386	1
1455	1457	1781	1
114	206	1307	1
825	931	1034	1
321	324	1723	1
1067	1275	1757	1
935	1423	1667	1
659	1331	1332	1
951	1458	1475	1
171	1350	1352	1
1379	1380	1513	1
537	1430	1529	1
108	169	1337	1
1281	1754	1785	1
860	861	1339	1
1067	1757	1760	1
164	1247	1248	1
1369	1800	1805	1
641	1308	1530	1
1442	1551	1581	1
191	1244	1310	1
611	659	1331	1
707	1438	1440	1
1013	1380	1513	1
507	509	1404	1
358	1701	1708	1
707	1440	1442	1
113	206	1344	1
814	911	1523	1
537	1349	1430	1
1393	1397	1398	1
622	1424	1728	1
1350	1351	1352	1
1083	1429	1430	1
1087	1088	1708	1
76	186	1346	1
85	191	1310	1
1402	1404	1445	1
110	205	1347	1
661	1468	1470	1
1076	1345	1624	1
625	669	1345	1
697	897	1308	1
861	864	1339	1
170	1361	1362	1
1435	1597	1598	1
295	385	1556	1
285	290	1442	1
680	924	1376	1
806	1389	1772	1
1258	1432	1633	1
806	807	1387	1
615	680	1376	1
541	1551	1581	1
789	796	1295	1
1083	1084	1429	1
515	630	1396	1
1244	1310	1311	1
621	1382	1764	1
906	1219	1815	1
147	171	1350	1
929	1297	1597	1
925	1459	1584	1
187	1454	1602	1
461	468	1476	1
1088	1705	1708	1
1426	1490	1662	1
897	1294	1308	1
576	578	1572	1
1398	1401	1557	1
666	1116	1443	1
189	1406	1407	1
613	659	1376	1
661	1470	1472	1
415	416	1503	1
820	825	1269	1
964	1150	1329	1
69	170	1361	1
290	707	1442	1
924	1219	1377	1
124	125	192	1
455	1375	1787	1
878	1014	1617	1
73	179	1354	1
1077	1308	1530	1
585	1767	1768	1
951	1475	1674	1
159	221	1302	1
528	529	1434	1
1393	1396	1397	1
71	207	1364	1
768	906	907	1
159	160	221	1
675	680	768	1
630	1396	1397	1
972	1484	1730	1
716	1057	1833	1
501	945	1375	1
442	603	1652	1
659	1332	1333	1
1076	1624	1747	1
665	1462	1463	1
531	650	1434	1
825	1034	1263	1
602	604	1353	1
795	1073	1348	1
615	626	675	1
157	189	1406	1
602	1353	1643	1
1412	1786	1788	1
615	675	680	1
907	1342	1343	1
1083	1430	1529	1
795	796	1348	1
820	823	825	1
509	1404	1445	1
1279	1280	1281	1
503	1702	1759	1
816	817	819	1
706	1556	1671	1
123	224	1355	1
537	1349	1476	1
1297	1597	1598	1
470	501	1375	1
415	1075	1503	1
895	897	1037	1
115	185	1307	1
680	768	906	1
1037	1137	1167	1
155	183	1409	1
937	1405	1457	1
572	574	1472	1
611	613	659	1
1311	1313	1328	1
814	815	816	1
1057	1336	1831	1
641	697	1308	1
911	1384	1385	1
706	1493	1695	1
897	1037	1137	1
515	628	1396	1
464	479	1573	1
1406	1408	1409	1
609	611	1331	1
226	227	228	1
815	816	817	1
153	210	1378	1
769	1050	1390	1
665	1461	1462	1
833	1624	1719	1
851	930	1076	1
574	661	1472	1
209	1350	1351	1
1034	1263	1264	1
109	205	1337	1
932	1331	1367	1
697	895	897	1
819	827	828	1
1332	1333	1334	1
42	43	222	1
768	936	1342	1
915	1211	1388	1
593	595	1634	1
441	1374	1501	1
1050	1390	1391	1
85	86	191	1
613	615	1376	1
1393	1398	1557	1
197	1799	1818	1
1335	1367	1368	1
115	116	185	1
511	630	1404	1
468	537	1476	1
496	698	1508	1
497	666	1306	1
1374	1502	1503	1
112	177	1344	1
412	1372	1702	1
84	223	1310	1
75	208	1346	1
488	641	1530	1
707	1438	1605	1
873	1379	1513	1
1116	1443	1812	1
111	177	1347	1
789	1295	1535	1
768	907	1342	1
851	852	930	1
873	875	1379	1
976	979	1383	1
1244	1311	1312	1
885	1007	1009	1
674	806	1389	1
613	614	615	1
938	1425	1574	1
914	915	916	1
823	825	931	1
339	1433	1447	1
913	914	915	1
107	108	169	1
963	1490	1662	1
405	406	1444	1
1464	1465	1467	1
812	911	1384	1
915	916	917	1
446	938	1574	1
113	114	206	1
816	819	827	1
76	77	186	1
671	764	887	1
77	186	1381	1
852	930	999	1
630	1402	1404	1
480	493	1611	1
828	905	913	1
916	917	1022	1
84	85	1310	1
630	1397	1402	1
1106	1107	1303	1
1374	1501	1502	1
148	209	1350	1
74	208	1354	1
317	705	1411	1
669	851	1345	1
109	110	205	1
827	828	905	1
712	1432	1725	1
419	422	1374	1
607	609	932	1
1009	1339	1340	1
1106	1382	1779	1
442	1422	1652	1
609	932	1331	1
1440	1442	1551	1
675	768	936	1
934	1431	1432	1
917	1022	1235	1
812	814	911	1
976	1383	1483	1
47	48	1449	1
1406	1407	1408	1
371	523	1479	1
70	207	1361	1
342	712	1431	1
932	1365	1367	1
983	1634	1635	1
461	464	1476	1
72	179	1364	1
1335	1368	1369	1
810	812	1384	1
111	112	177	1
576	661	1572	1
870	878	1498	1
652	831	1446	1
74	75	208	1
146	147	171	1
144	145	1260	1
538	1255	1559	1
905	913	1214	1
1057	1831	1833	1
464	1476	1573	1
604	607	1353	1
157	158	189	1
807	809	810	1
416	419	1503	1
611	612	613	1
666	1306	1443	1
964	965	1150	1
295	302	385	1
828	913	914	1
989	1341	1769	1
385	386	387	1
470	487	501	1
519	652	1446	1
1462	1464	1465	1
386	387	388	1
885	946	1007	1
429	934	1499	1
593	983	1634	1
853	1047	1048	1
932	1353	1365	1
692	765	853	1
1111	1484	1730	1
156	1406	1409	1
906	924	1219	1
342	349	1431	1
285	1442	1581	1
819	828	1460	1
422	433	441	1
864	885	1339	1
937	1405	1487	1
751	900	1474	1
1248	1292	1293	1
148	149	209	1
472	1436	1437	1
291	295	1556	1
68	69	170	1
913	915	1388	1
484	497	657	1
70	71	207	1
1398	1400	1401	1
762	1079	1448	1
406	409	1444	1
864	866	885	1
72	73	179	1
504	505	506	1
840	1110	1473	1
294	297	1605	1
156	157	1406	1
512	648	692	1
765	853	1047	1
506	507	511	1
281	955	1493	1
387	388	389	1
769	854	1050	1
287	291	706	1
972	973	1483	1
972	1483	1484	1
523	951	1479	1
433	445	1422	1
395	1058	1485	1
1042	1106	1382	1
502	503	504	1
281	283	1493	1
580	582	1461	1
1015	1379	1380	1
108	109	1337	1
124	192	1355	1
270	272	1582	1
788	839	1487	1
1010	1015	1119	1
114	115	1307	1
501	639	640	1
578	665	1572	1
1043	1106	1107	1
154	183	1378	1
580	665	1461	1
674	767	806	1
463	475	484	1
40	41	190	1
646	674	1389	1
712	1431	1432	1
158	159	1302	1
648	692	765	1
661	1468	1572	1
445	457	463	1
99	1415	1714	1
1391	1392	1394	1
511	514	515	1
388	389	390	1
509	512	1445	1
457	463	475	1
527	658	1458	1
813	814	815	1
441	445	457	1
607	608	609	1
409	411	502	1
487	501	639	1
110	111	1347	1
669	849	851	1
112	113	1344	1
307	472	1436	1
505	506	507	1
627	672	1542	1
875	882	1379	1
333	339	1447	1
390	391	392	1
150	151	178	1
302	385	386	1
913	1214	1388	1
511	515	630	1
763	1390	1392	1
422	441	1374	1
370	524	1492	1
496	644	698	1
616	625	1100	1
920	929	1069	1
1391	1394	1395	1
433	441	445	1
910	1021	1117	1
197	1252	1818	1
389	390	391	1
502	935	1444	1
465	480	1611	1
640	762	1448	1
440	454	455	1
1369	1371	1805	1
105	106	1252	1
639	640	762	1
503	504	505	1
658	1458	1459	1
921	1413	1414	1
1078	1079	1149	1
1397	1398	1399	1
75	76	1346	1
475	476	499	1
598	601	832	1
973	976	1483	1
882	1010	1015	1
693	769	1390	1
1490	1491	1681	1
915	917	1211	1
152	153	210	1
810	811	812	1
979	1042	1383	1
371	373	1479	1
423	440	1780	1
652	653	830	1
762	1078	1079	1
499	500	731	1
519	521	652	1
830	831	910	1
1390	1391	1392	1
147	148	1350	1
1462	1463	1465	1
368	370	1492	1
966	1410	1582	1
1398	1399	1400	1
419	1374	1503	1
29	30	172	1
920	921	1413	1
233	235	1435	1
497	657	1306	1
697	699	895	1
1125	1495	1496	1
607	932	1353	1
454	470	1375	1
1238	1355	1356	1
486	1426	1427	1
817	818	820	1
970	971	1510	1
1042	1043	1106	1
693	763	1390	1
878	1012	1014	1
154	155	183	1
944	1429	1430	1
937	1455	1457	1
628	693	763	1
69	70	1361	1
377	382	383	1
710	711	920	1
453	462	473	1
698	1508	1578	1
411	502	503	1
666	667	1116	1
1046	1288	1429	1
1238	1356	1357	1
836	995	1098	1
430	431	446	1
373	375	376	1
750	751	1474	1
31	32	211	1
885	1009	1339	1
692	927	1445	1
1125	1494	1495	1
502	504	935	1
182	1298	1299	1
983	1635	1668	1
1437	1438	1439	1
331	1478	1497	1
711	1056	1419	1
609	610	611	1
1028	1030	1424	1
763	1392	1393	1
409	502	1444	1
920	1069	1413	1
294	707	1605	1
473	518	519	1
515	516	628	1
315	317	1411	1
1335	1369	1800	1
1439	1440	1441	1
1356	1358	1366	1
1369	1370	1371	1
473	519	521	1
614	615	626	1
647	940	942	1
476	499	500	1
839	1405	1487	1
77	78	1381	1
83	84	223	1
275	278	587	1
782	937	1455	1
521	652	653	1
283	287	1493	1
711	920	921	1
882	883	1010	1
313	315	384	1
365	367	368	1
392	393	397	1
738	1096	1593	1
447	450	453	1
118	119	193	1
361	363	364	1
450	462	1477	1
33	34	180	1
382	383	430	1
672	847	1542	1
311	313	1766	1
647	939	940	1
854	1050	1129	1
922	1455	1456	1
944	1046	1429	1
375	376	377	1
692	853	927	1
1441	1551	1707	1
940	942	943	1
35	36	212	1
301	486	1426	1
800	1673	1741	1
383	430	431	1
1332	1334	1335	1
369	370	371	1
812	813	814	1
413	538	1563	1
525	527	1458	1
1451	1453	1454	1
344	380	1433	1
1436	1437	1438	1
519	520	1446	1
851	1076	1345	1
506	511	514	1
391	392	393	1
653	830	904	1
512	692	1445	1
1312	1313	1314	1
317	319	705	1
897	1137	1294	1
71	72	1364	1
504	935	1555	1
882	1015	1379	1
307	309	472	1
466	482	708	1
500	731	732	1
870	877	878	1
538	1075	1255	1
457	475	476	1
782	922	1455	1
37	38	184	1
1139	1140	1160	1
910	1117	1228	1
731	732	782	1
329	331	1478	1
397	398	434	1
431	446	447	1
893	1139	1140	1
708	709	710	1
450	453	462	1
461	467	468	1
405	1444	1667	1
943	944	1046	1
427	429	934	1
479	491	647	1
888	1125	1494	1
384	1411	1412	1
367	368	369	1
971	974	1510	1
944	1349	1430	1
305	307	1436	1
514	515	516	1
73	74	1354	1
368	369	370	1
866	885	946	1
324	326	327	1
628	763	1396	1
749	888	1494	1
363	364	365	1
1438	1439	1440	1
1140	1160	1182	1
767	806	807	1
934	1499	1633	1
473	521	1507	1
521	773	1507	1
652	830	831	1
709	710	711	1
235	466	1435	1
1138	1273	1274	1
849	851	852	1
1463	1465	1466	1
270	966	1582	1
710	920	929	1
1463	1466	1468	1
467	468	469	1
339	344	1433	1
512	513	648	1
153	154	1378	1
942	943	944	1
893	894	1139	1
1037	1167	1169	1
327	328	329	1
1046	1135	1156	1
370	371	523	1
315	384	1411	1
321	323	324	1
1100	1345	1624	1
731	782	922	1
501	640	945	1
155	156	1409	1
525	951	1458	1
785	788	1487	1
344	379	380	1
349	427	1431	1
351	353	1521	1
831	910	1021	1
387	389	483	1
454	455	1375	1
413	415	538	1
533	650	1480	1
323	324	326	1
933	1461	1462	1
509	510	512	1
1042	1382	1383	1
434	542	1071	1
364	1690	1711	1
439	461	467	1
427	428	429	1
326	327	328	1
1468	1469	1470	1
691	840	933	1
1074	1233	1301	1
641	643	697	1
451	716	1477	1
1466	1468	1469	1
628	629	693	1
439	449	461	1
356	358	539	1
604	606	607	1
1426	1427	1490	1
507	508	509	1
376	1479	1674	1
393	397	398	1
1071	1072	1266	1
571	1516	1553	1
182	1299	1300	1
453	473	518	1
468	469	477	1
735	748	1610	1
693	694	769	1
429	436	439	1
279	955	1528	1
794	1501	1502	1
482	708	709	1
594	596	662	1
762	1077	1078	1
301	333	486	1
441	457	1501	1
680	906	924	1
529	658	1338	1
840	933	1473	1
757	761	893	1
497	498	666	1
909	1216	1218	1
946	1007	1011	1
407	958	1607	1
523	525	951	1
891	1036	1136	1
1449	1451	1602	1
466	708	1435	1
407	957	958	1
1036	1136	1158	1
790	1535	1558	1
939	940	941	1
1046	1156	1288	1
299	301	1426	1
287	706	1493	1
450	451	1477	1
839	1073	1074	1
469	477	478	1
368	1482	1492	1
1047	1063	1138	1
518	519	520	1
523	524	525	1
227	228	229	1
472	1761	1793	1
708	1435	1597	1
329	330	331	1
582	691	1461	1
329	458	1478	1
446	517	938	1
373	376	1479	1
533	535	1480	1
527	528	529	1
349	425	427	1
506	514	1555	1
447	448	450	1
840	1109	1110	1
1057	1208	1336	1
291	292	295	1
328	329	330	1
525	526	527	1
489	490	632	1
933	1462	1464	1
582	620	691	1
782	783	937	1
477	478	489	1
634	635	750	1
1392	1394	1557	1
809	810	811	1
875	881	882	1
990	1488	1489	1
943	1046	1135	1
1469	1470	1471	1
587	588	589	1
527	529	658	1
531	533	650	1
950	1520	1675	1
649	1052	1531	1
278	587	588	1
626	671	1360	1
514	704	1555	1
716	774	1057	1
1427	1490	1491	1
1436	1438	1605	1
365	368	1482	1
319	320	321	1
397	434	542	1
788	795	839	1
974	977	1108	1
470	471	487	1
691	838	840	1
914	916	926	1
691	933	1461	1
1085	1516	1553	1
427	934	1431	1
434	1071	1072	1
479	647	1573	1
478	489	490	1
272	275	1582	1
751	753	900	1
979	1041	1042	1
451	715	716	1
632	670	771	1
877	878	1012	1
891	892	1036	1
428	429	436	1
449	461	464	1
321	322	323	1
948	990	1488	1
732	782	783	1
436	439	449	1
341	348	1567	1
415	538	1075	1
570	584	634	1
847	1025	1026	1
540	983	1527	1
587	589	1410	1
795	839	1073	1
749	901	1494	1
524	525	526	1
526	527	528	1
771	772	1123	1
351	1215	1521	1
1073	1074	1233	1
295	298	302	1
373	374	375	1
785	787	788	1
568	569	570	1
883	1010	1504	1
327	329	458	1
287	288	291	1
325	342	712	1
930	1076	1515	1
565	566	568	1
550	554	1517	1
1357	1358	1359	1
974	1108	1510	1
337	347	350	1
453	518	1574	1
331	336	337	1
356	357	358	1
489	632	670	1
750	760	891	1
491	647	939	1
1451	1452	1453	1
313	314	315	1
633	748	1518	1
750	891	1474	1
312	1726	1745	1
1012	1013	1118	1
422	432	433	1
330	331	336	1
738	740	1096	1
489	670	1529	1
586	679	986	1
783	785	1487	1
317	318	319	1
364	365	1482	1
227	229	1225	1
315	316	317	1
787	789	1535	1
595	598	1634	1
802	1583	1616	1
670	771	772	1
377	381	382	1
635	750	751	1
783	937	1487	1
856	858	989	1
516	628	629	1
568	570	584	1
948	1256	1488	1
1030	1031	1032	1
299	1426	1662	1
603	616	1652	1
658	1459	1575	1
561	562	563	1
957	958	1245	1
584	634	635	1
467	469	656	1
901	1081	1133	1
563	564	565	1
838	840	1109	1
1368	1369	1370	1
1414	1416	1417	1
430	446	517	1
347	350	351	1
337	346	347	1
370	523	524	1
311	312	313	1
559	560	561	1
839	1074	1405	1
486	1427	1428	1
297	305	1605	1
793	1275	1754	1
277	280	541	1
862	876	964	1
1036	1158	1185	1
488	618	641	1
956	1094	1626	1
425	427	428	1
466	481	482	1
788	789	795	1
634	750	760	1
490	655	800	1
322	323	325	1
728	778	798	1
554	701	1517	1
365	366	367	1
1399	1400	1403	1
1072	1266	1267	1
785	786	787	1
561	563	564	1
715	716	774	1
429	439	1499	1
1028	1029	1030	1
350	1220	1497	1
454	456	470	1
553	803	1547	1
1026	1027	1028	1
468	477	537	1
336	337	346	1
565	567	1500	1
888	1124	1125	1
477	537	1529	1
801	948	990	1
787	788	789	1
358	359	1701	1
350	351	1215	1
282	285	1581	1
353	356	1521	1
440	443	454	1
1052	1053	1206	1
629	693	694	1
894	1139	1141	1
1492	1583	1616	1
701	749	888	1
467	656	1499	1
359	360	361	1
774	1057	1208	1
586	986	1569	1
679	986	987	1
423	435	440	1
761	893	894	1
538	1559	1563	1
1276	1278	1279	1
275	276	278	1
901	1133	1494	1
393	398	399	1
620	691	838	1
320	321	322	1
409	410	411	1
459	689	984	1
462	473	1507	1
655	800	801	1
361	362	363	1
956	1092	1094	1
122	123	224	1
309	310	311	1
670	1083	1529	1
446	447	1574	1
684	701	749	1
933	1464	1473	1
749	797	901	1
249	250	251	1
760	891	892	1
478	490	655	1
547	548	549	1
548	549	550	1
554	684	701	1
307	308	309	1
564	565	566	1
1133	1494	1495	1
1224	1271	1272	1
531	532	533	1
950	1512	1520	1
550	551	1517	1
398	399	400	1
573	638	1516	1
379	396	423	1
123	124	1355	1
333	486	1447	1
536	686	909	1
371	372	373	1
901	1080	1081	1
296	303	452	1
348	459	1567	1
533	534	535	1
862	964	1691	1
328	330	335	1
1067	1068	1275	1
566	568	569	1
891	1136	1474	1
588	651	1067	1
448	450	451	1
431	447	448	1
282	284	285	1
546	547	548	1
337	350	1497	1
350	1215	1220	1
528	530	531	1
19	20	166	1
493	836	1611	1
569	570	571	1
633	735	748	1
351	352	353	1
305	306	307	1
772	1083	1084	1
357	358	359	1
452	954	1522	1
549	550	551	1
881	882	883	1
352	353	354	1
246	248	249	1
545	546	547	1
1230	1594	1614	1
518	1425	1574	1
942	944	1349	1
710	929	1597	1
254	256	257	1
740	1096	1533	1
392	397	1486	1
565	568	1500	1
554	683	684	1
559	561	1536	1
789	795	796	1
277	541	1603	1
331	337	1497	1
551	633	1518	1
664	991	1537	1
909	1006	1216	1
948	949	1256	1
827	905	928	1
550	553	554	1
346	347	1512	1
318	319	320	1
242	244	245	1
1041	1042	1043	1
354	544	545	1
551	1517	1518	1
1064	1066	1224	1
544	950	1512	1
606	607	608	1
347	351	352	1
239	240	241	1
573	575	638	1
336	346	556	1
400	1586	1589	1
1066	1224	1271	1
477	489	1529	1
356	539	1521	1
655	947	1514	1
278	588	651	1
469	656	1514	1
888	1089	1124	1
397	542	1486	1
258	260	261	1
783	784	785	1
639	762	1077	1
921	1414	1416	1
561	564	1536	1
634	760	1553	1
786	787	790	1
544	545	546	1
229	1225	1297	1
434	1072	1589	1
563	565	567	1
792	1064	1066	1
476	500	794	1
79	80	194	1
352	354	544	1
333	338	339	1
711	921	1419	1
701	888	1089	1
570	571	1553	1
709	711	1056	1
664	746	991	1
807	808	809	1
548	550	553	1
323	326	1636	1
505	507	508	1
960	1054	1055	1
439	467	1499	1
682	792	1064	1
235	237	466	1
759	842	843	1
883	886	1504	1
236	238	239	1
701	1089	1517	1
291	706	1556	1
344	378	379	1
339	343	344	1
390	392	394	1
301	332	333	1
549	551	552	1
521	653	773	1
559	961	1536	1
649	779	1052	1
279	281	955	1
544	546	950	1
560	561	562	1
419	420	422	1
787	790	1535	1
797	901	1080	1
1068	1275	1276	1
228	229	230	1
682	1064	1070	1
958	1595	1607	1
534	535	536	1
684	749	797	1
451	714	715	1
551	552	633	1
553	554	683	1
478	655	1514	1
663	741	742	1
801	947	948	1
399	400	401	1
352	544	1512	1
681	682	792	1
727	1594	1614	1
557	558	559	1
1258	1592	1633	1
587	1410	1582	1
293	296	1522	1
557	559	961	1
250	251	252	1
663	742	1545	1
651	1067	1068	1
346	1512	1520	1
670	772	1083	1
1392	1393	1557	1
58	59	165	1
656	1592	1633	1
870	871	877	1
382	395	1485	1
608	609	610	1
778	908	918	1
234	236	1506	1
500	794	1585	1
1268	1586	1589	1
836	837	995	1
347	352	1512	1
1089	1517	1518	1
1349	1476	1573	1
558	559	560	1
260	261	262	1
548	553	1547	1
655	801	947	1
751	752	753	1
283	286	287	1
549	552	1560	1
284	285	289	1
683	803	1082	1
240	241	242	1
526	528	530	1
784	785	786	1
553	683	803	1
570	634	1553	1
545	547	713	1
1449	1450	1451	1
510	512	513	1
892	1085	1086	1
452	558	954	1
248	249	250	1
1118	1822	1823	1
346	556	1520	1
746	991	992	1
1440	1441	1551	1
256	257	258	1
530	531	532	1
376	377	1642	1
271	273	444	1
508	509	510	1
765	1047	1063	1
407	408	957	1
532	533	534	1
547	549	1560	1
706	1671	1695	1
733	1651	1680	1
832	1634	1635	1
504	506	1555	1
759	843	1612	1
949	1256	1257	1
753	754	755	1
722	724	725	1
730	1093	1579	1
17	18	213	1
272	274	275	1
296	297	303	1
755	756	757	1
568	584	1500	1
586	678	679	1
780	1060	1511	1
233	1435	1598	1
524	1492	1583	1
578	580	665	1
686	909	1006	1
314	315	316	1
779	1052	1053	1
312	313	314	1
681	792	793	1
402	404	405	1
780	1059	1060	1
1491	1681	1698	1
612	613	614	1
282	283	284	1
261	262	263	1
296	452	1522	1
355	356	357	1
725	726	728	1
316	317	318	1
730	805	1093	1
469	478	1514	1
760	1085	1553	1
257	258	1524	1
330	335	1532	1
571	573	1516	1
401	403	474	1
493	495	836	1
864	865	866	1
591	681	682	1
395	688	1058	1
1013	1118	1813	1
304	306	340	1
386	388	522	1
406	408	409	1
280	282	1581	1
1054	1055	1212	1
238	239	240	1
244	245	246	1
960	1055	1541	1
258	259	260	1
265	268	676	1
558	954	1545	1
262	264	265	1
293	294	296	1
957	1245	1559	1
280	281	282	1
1113	1284	1285	1
258	261	1524	1
360	956	1549	1
1006	1216	1217	1
56	57	214	1
289	293	660	1
237	466	481	1
729	778	908	1
481	482	649	1
569	571	572	1
514	516	704	1
794	1585	1632	1
564	733	1536	1
572	1472	1651	1
718	720	776	1
245	246	1539	1
847	1026	1542	1
299	300	301	1
246	249	1539	1
582	583	620	1
665	1463	1572	1
265	266	268	1
1053	1206	1207	1
947	948	949	1
562	563	1537	1
264	266	267	1
728	729	778	1
797	1080	1105	1
814	816	1523	1
236	239	1506	1
877	1012	1013	1
492	496	1508	1
353	355	356	1
484	485	497	1
289	290	293	1
679	987	1511	1
256	258	259	1
635	751	752	1
815	817	818	1
57	58	1525	1
715	774	1584	1
310	311	312	1
552	633	734	1
536	685	686	1
838	1109	1111	1
908	912	1062	1
732	783	784	1
482	649	1531	1
601	645	646	1
357	360	1549	1
252	253	254	1
699	895	896	1
835	997	1035	1
247	555	586	1
598	600	601	1
264	265	266	1
474	591	681	1
757	758	761	1
266	267	269	1
399	401	1561	1
261	263	543	1
336	556	1532	1
418	420	421	1
486	1428	1447	1
674	766	767	1
260	262	1548	1
878	1498	1617	1
1087	1099	1701	1
362	956	1092	1
760	892	1085	1
564	566	733	1
249	251	654	1
717	1095	1550	1
912	1229	1230	1
774	1208	1209	1
262	263	264	1
306	340	1562	1
562	663	664	1
303	452	557	1
254	255	256	1
55	56	1544	1
308	309	310	1
834	996	1101	1
58	165	1525	1
560	562	663	1
574	576	661	1
459	984	1567	1
136	137	168	1
268	676	677	1
571	572	573	1
259	959	960	1
433	442	1422	1
543	799	1240	1
676	677	775	1
392	394	1486	1
414	416	417	1
555	586	678	1
579	642	1630	1
781	1059	1061	1
558	560	1545	1
349	424	425	1
447	453	1574	1
547	713	1560	1
729	908	912	1
717	719	1095	1
774	1209	1584	1
811	812	813	1
61	62	203	1
259	260	959	1
267	966	1596	1
306	307	308	1
363	365	366	1
375	377	381	1
560	663	1545	1
241	242	1540	1
357	359	360	1
464	465	479	1
683	1082	1543	1
277	279	280	1
369	371	372	1
325	341	342	1
646	673	674	1
678	780	781	1
722	725	1546	1
342	348	349	1
308	310	619	1
799	1240	1241	1
345	1822	1823	1
355	357	1549	1
388	390	1509	1
678	679	780	1
1230	1231	1232	1
22	23	204	1
448	451	714	1
1276	1277	1278	1
192	1238	1355	1
714	715	925	1
261	543	1524	1
416	418	419	1
398	434	1589	1
457	476	1501	1
256	259	1541	1
275	587	1582	1
496	637	644	1
1059	1061	1210	1
545	713	1568	1
966	1410	1656	1
253	255	1091	1
552	952	1560	1
780	781	1059	1
721	723	738	1
479	480	491	1
1072	1268	1589	1
726	728	729	1
308	619	1562	1
562	664	1537	1
960	982	1054	1
804	1087	1088	1
867	870	1498	1
250	252	253	1
251	252	585	1
552	734	952	1
325	712	1636	1
713	1568	1626	1
738	739	740	1
398	400	1589	1
679	780	1511	1
290	294	707	1
663	664	741	1
214	1525	1526	1
284	289	1534	1
408	957	1563	1
724	725	726	1
271	272	273	1
413	414	415	1
260	959	1548	1
236	237	238	1
280	541	1581	1
912	1062	1229	1
482	709	1531	1
534	536	685	1
829	1112	1113	1
968	1087	1099	1
234	235	236	1
452	557	558	1
797	1105	1543	1
500	732	1585	1
683	684	1543	1
57	214	1525	1
255	256	1541	1
487	488	1530	1
629	694	791	1
354	545	1568	1
658	1338	1575	1
730	779	805	1
902	1131	1132	1
1104	1304	1305	1
259	960	1541	1
540	593	983	1
740	745	1533	1
518	520	1425	1
285	289	290	1
1372	1373	1702	1
720	776	1546	1
563	567	1537	1
330	336	1532	1
664	741	746	1
982	1054	1213	1
300	1564	1639	1
262	265	1548	1
682	1070	1595	1
524	526	1583	1
752	753	754	1
402	405	1586	1
763	1393	1396	1
1091	1608	1622	1
304	305	306	1
353	354	355	1
649	730	779	1
263	543	799	1
1068	1276	1277	1
53	54	176	1
685	804	968	1
883	884	886	1
959	960	982	1
684	797	1543	1
546	548	1547	1
230	232	233	1
925	1090	1475	1
741	746	969	1
572	573	574	1
981	1250	1251	1
360	361	362	1
530	532	802	1
401	474	1561	1
293	660	1522	1
269	270	271	1
740	744	745	1
949	1257	1258	1
322	325	341	1
784	786	962	1
735	835	1610	1
253	254	255	1
1229	1230	1231	1
1045	1152	1153	1
56	214	1544	1
481	649	730	1
754	755	756	1
781	1608	1622	1
97	98	167	1
360	362	956	1
246	247	248	1
268	677	717	1
410	413	1563	1
685	686	804	1
584	635	1591	1
267	270	966	1
841	1103	1283	1
591	682	1595	1
842	1103	1104	1
492	494	496	1
720	721	722	1
1267	1268	1423	1
1564	1565	1639	1
546	950	1547	1
242	245	1540	1
769	770	854	1
1397	1399	1402	1
382	430	1485	1
242	243	244	1
793	1275	1757	1
867	869	870	1
720	722	1546	1
722	723	724	1
1072	1267	1268	1
404	406	407	1
759	841	842	1
957	1559	1563	1
714	925	1090	1
871	873	1513	1
804	968	1087	1
1311	1312	1313	1
912	1230	1594	1
266	268	1550	1
403	474	591	1
724	726	727	1
980	981	1003	1
134	135	215	1
594	662	1657	1
752	754	967	1
575	638	1600	1
939	941	1578	1
410	412	413	1
14	15	175	1
708	710	1597	1
1094	1613	1626	1
723	738	739	1
302	386	1505	1
857	889	1691	1
235	236	237	1
581	583	636	1
1031	1032	1033	1
746	992	1571	1
383	431	1587	1
610	611	612	1
318	320	737	1
191	1243	1244	1
828	914	1460	1
555	1566	1622	1
590	690	970	1
761	894	1102	1
1470	1471	1680	1
1063	1138	1273	1
459	590	689	1
962	1585	1632	1
526	530	1583	1
644	695	700	1
997	1035	1618	1
471	487	488	1
1463	1468	1572	1
276	278	1528	1
297	304	305	1
305	1436	1605	1
635	752	1591	1
463	484	485	1
383	1587	1642	1
381	382	395	1
739	744	980	1
1025	1026	1027	1
756	757	758	1
253	1091	1566	1
1093	1579	1590	1
1500	1591	1625	1
268	717	1550	1
836	1098	1611	1
1091	1566	1622	1
95	96	217	1
449	464	465	1
621	1742	1764	1
133	134	1570	1
718	719	720	1
400	401	402	1
756	758	759	1
656	1514	1592	1
247	248	555	1
827	928	1523	1
577	579	642	1
1029	1030	1031	1
233	234	235	1
643	697	699	1
1284	1285	1286	1
1450	1451	1452	1
306	308	1562	1
408	409	410	1
266	269	1550	1
721	722	723	1
1103	1104	1304	1
247	586	1569	1
690	971	972	1
304	340	1538	1
367	369	1527	1
573	574	575	1
244	246	247	1
240	242	243	1
249	654	1539	1
425	428	438	1
517	938	1270	1
618	641	643	1
580	581	582	1
401	402	403	1
633	734	735	1
274	275	276	1
719	720	721	1
286	287	288	1
981	1003	1250	1
574	575	576	1
404	405	406	1
709	1056	1531	1
303	557	1538	1
513	648	777	1
721	738	1593	1
1027	1028	1029	1
372	373	374	1
416	417	418	1
498	666	667	1
239	241	743	1
243	244	1569	1
248	250	1566	1
594	595	596	1
841	842	1103	1
584	1500	1591	1
276	279	1528	1
481	730	1579	1
974	975	977	1
332	333	338	1
495	836	837	1
758	761	1601	1
647	942	1573	1
758	759	841	1
825	1263	1269	1
971	973	974	1
871	877	1513	1
265	676	1548	1
396	423	435	1
739	740	744	1
1356	1357	1358	1
281	282	283	1
264	267	1596	1
237	238	1579	1
616	624	625	1
267	269	270	1
623	1753	1771	1
865	866	867	1
435	440	443	1
248	555	1566	1
744	980	981	1
746	969	1571	1
976	978	979	1
366	367	540	1
406	407	408	1
949	1258	1592	1
877	1013	1513	1
390	394	1509	1
715	925	1584	1
443	454	456	1
986	987	1689	1
713	1560	1613	1
300	301	332	1
410	411	412	1
289	660	1534	1
719	1095	1593	1
648	777	1519	1
366	592	1609	1
979	1040	1041	1
279	280	281	1
283	284	286	1
603	605	616	1
244	247	1569	1
338	339	343	1
51	52	216	1
677	717	718	1
973	975	976	1
274	276	277	1
596	597	599	1
516	629	1576	1
717	718	719	1
314	316	334	1
363	366	1609	1
391	393	1631	1
583	620	621	1
1090	1587	1642	1
1472	1651	1680	1
921	1416	1419	1
96	97	1577	1
273	444	953	1
343	344	378	1
290	293	294	1
241	829	1540	1
1373	1702	1759	1
794	1502	1632	1
232	233	234	1
237	481	1579	1
378	379	396	1
238	1579	1590	1
752	967	1591	1
567	1500	1625	1
418	419	420	1
412	413	414	1
456	470	471	1
617	631	1016	1
431	448	1587	1
132	133	1580	1
448	714	1587	1
367	540	1527	1
366	540	592	1
278	651	1528	1
341	342	348	1
942	1349	1573	1
991	1537	1621	1
92	93	174	1
250	253	1566	1
967	1591	1625	1
648	765	1519	1
592	593	594	1
732	784	1585	1
532	534	1588	1
424	425	1623	1
272	273	274	1
491	939	1508	1
530	802	1583	1
726	729	1594	1
270	271	272	1
286	288	963	1
1044	1143	1144	1
875	880	881	1
46	47	195	1
687	923	998	1
978	1040	1044	1
263	264	1596	1
590	689	690	1
856	989	1664	1
1549	1568	1626	1
835	1035	1610	1
516	704	1576	1
595	597	598	1
767	807	808	1
438	1623	1658	1
781	1061	1608	1
399	1561	1631	1
294	296	297	1
232	234	1552	1
276	277	279	1
388	522	1509	1
238	240	1590	1
567	1621	1625	1
476	794	1501	1
576	577	578	1
348	349	424	1
284	286	1534	1
598	832	1634	1
816	827	1523	1
1112	1113	1284	1
271	444	1644	1
629	791	1576	1
408	410	1563	1
1482	1492	1616	1
678	781	1622	1
359	361	1690	1
729	912	1594	1
690	970	971	1
947	1514	1592	1
677	775	1615	1
255	1091	1641	1
362	363	1609	1
557	961	1538	1
723	724	1599	1
685	968	1588	1
234	1506	1552	1
567	1537	1621	1
1230	1232	1614	1
286	963	1534	1
403	591	1607	1
131	132	173	1
581	582	583	1
577	642	1600	1
298	299	300	1
288	291	292	1
591	1595	1607	1
348	424	459	1
761	1102	1601	1
404	407	1607	1
869	870	871	1
393	399	1631	1
532	802	1588	1
575	576	577	1
881	883	884	1
375	381	1640	1
829	1113	1540	1
12	13	220	1
263	799	1596	1
694	769	770	1
1099	1690	1711	1
676	775	1629	1
818	820	821	1
487	639	1530	1
297	303	304	1
424	459	590	1
386	522	1505	1
1041	1043	1142	1
1146	1161	1175	1
555	678	1622	1
971	972	973	1
726	727	1594	1
841	1283	1601	1
981	1251	1606	1
973	974	975	1
241	743	829	1
986	1569	1665	1
873	874	875	1
534	685	1588	1
947	949	1592	1
866	946	1498	1
718	776	1615	1
626	675	1360	1
758	841	1601	1
354	355	1568	1
355	1549	1568	1
400	402	1586	1
1008	1038	1039	1
303	304	1538	1
975	976	978	1
569	572	1651	1
651	1068	1619	1
744	745	1606	1
465	479	480	1
719	721	1593	1
724	727	1599	1
432	433	442	1
955	1528	1619	1
420	422	432	1
49	50	187	1
734	735	834	1
1001	1126	1130	1
723	739	1599	1
898	1145	1146	1
714	1090	1587	1
430	517	1485	1
834	1101	1628	1
645	646	673	1
540	592	593	1
656	1499	1633	1
402	403	404	1
480	491	492	1
600	601	645	1
946	1011	1617	1
566	733	1651	1
959	1548	1629	1
625	668	669	1
494	496	637	1
578	579	580	1
100	101	201	1
871	872	873	1
754	967	1612	1
876	964	965	1
139	140	202	1
323	325	1636	1
978	979	1040	1
1004	1005	1008	1
756	759	1612	1
1040	1044	1143	1
420	421	1643	1
579	581	1630	1
597	598	600	1
491	492	1508	1
229	230	1598	1
784	962	1585	1
866	867	1498	1
673	674	766	1
490	800	1679	1
316	318	1604	1
837	985	1004	1
734	952	1628	1
1268	1423	1667	1
320	322	1638	1
341	1567	1638	1
229	1297	1598	1
510	513	736	1
292	295	298	1
97	167	1577	1
445	1422	1663	1
604	605	606	1
414	415	416	1
956	1549	1626	1
377	383	1642	1
739	980	1599	1
829	994	1112	1
809	811	826	1
847	919	1025	1
273	953	1603	1
1268	1586	1667	1
970	1623	1658	1
1068	1277	1619	1
1091	1608	1641	1
705	1788	1791	1
134	215	1570	1
232	426	1552	1
45	46	1554	1
320	737	1638	1
230	231	232	1
1096	1593	1678	1
269	271	1644	1
273	274	1603	1
754	756	1612	1
616	1100	1652	1
735	834	835	1
274	277	1603	1
602	603	604	1
662	1657	1669	1
959	982	1629	1
48	1449	1602	1
952	1560	1613	1
855	857	889	1
425	438	1623	1
834	835	996	1
1099	1690	1701	1
332	338	345	1
426	844	988	1
669	848	849	1
884	886	903	1
322	341	1638	1
713	1613	1626	1
239	743	1506	1
269	1550	1644	1
495	837	985	1
1143	1144	1164	1
444	1644	1678	1
863	864	865	1
493	494	495	1
292	298	299	1
677	718	1615	1
835	996	997	1
966	1596	1656	1
480	492	493	1
1113	1285	1676	1
899	1145	1147	1
744	981	1606	1
445	463	1663	1
362	1092	1609	1
228	230	231	1
374	375	1640	1
318	737	1604	1
378	396	437	1
737	1638	1685	1
672	846	847	1
403	404	1607	1
775	1629	1659	1
676	1548	1629	1
696	898	899	1
91	92	1627	1
939	1508	1578	1
90	91	218	1
577	578	579	1
631	1016	1017	1
820	821	823	1
996	997	1000	1
298	302	1564	1
970	1510	1658	1
1055	1541	1641	1
605	616	624	1
369	372	1527	1
639	1077	1530	1
240	243	1590	1
298	300	1564	1
590	970	1623	1
861	863	864	1
316	334	1604	1
10	11	188	1
637	644	695	1
923	998	1097	1
593	594	595	1
1038	1039	1148	1
1095	1550	1644	1
606	608	623	1
581	636	1630	1
426	988	1552	1
968	1099	1697	1
7	8	196	1
1005	1008	1038	1
626	627	671	1
1221	1226	1705	1
255	1541	1641	1
985	1004	1005	1
96	217	1577	1
786	962	1661	1
424	590	1623	1
631	1017	1018	1
566	569	1651	1
743	829	994	1
231	232	426	1
575	577	1600	1
579	580	581	1
914	926	1460	1
492	493	494	1
689	1730	1755	1
395	687	688	1
799	1596	1656	1
1018	1666	1694	1
442	602	603	1
982	1629	1659	1
432	442	602	1
734	834	1628	1
902	1132	1655	1
950	1547	1675	1
129	130	219	1
688	923	1065	1
133	1570	1580	1
230	233	1598	1
1045	1153	1646	1
381	395	687	1
488	617	618	1
869	871	872	1
1017	1018	1019	1
595	596	597	1
443	456	460	1
614	626	627	1
637	695	696	1
668	848	850	1
1096	1533	1712	1
485	497	498	1
600	645	703	1
880	881	1646	1
1145	1146	1161	1
89	90	1620	1
662	1706	1710	1
765	1063	1519	1
980	1003	1683	1
884	903	1045	1
898	899	1145	1
673	766	902	1
1001	1130	1618	1
47	195	1449	1
975	977	1637	1
874	875	880	1
603	604	605	1
1082	1543	1673	1
791	1266	1733	1
1018	1019	1051	1
1099	1697	1711	1
766	902	1049	1
858	859	860	1
332	345	1639	1
381	687	1640	1
195	1449	1450	1
990	1741	1746	1
597	599	1654	1
651	1528	1619	1
695	696	898	1
881	884	1646	1
799	1241	1656	1
902	1049	1131	1
786	790	1661	1
1055	1212	1682	1
872	873	874	1
1621	1625	1672	1
1093	1590	1665	1
733	1536	1699	1
48	49	1602	1
1505	1564	1565	1
471	488	617	1
997	1000	1001	1
903	1045	1134	1
849	852	1023	1
624	625	668	1
1045	1134	1152	1
978	1044	1637	1
1000	1001	1002	1
411	412	1702	1
687	688	923	1
132	173	1580	1
872	874	879	1
733	1680	1699	1
617	1016	1660	1
243	1590	1665	1
1092	1094	1669	1
991	992	1709	1
859	861	862	1
463	485	1663	1
982	1213	1659	1
694	791	1664	1
610	612	622	1
770	855	856	1
997	1001	1618	1
300	332	1639	1
1058	1386	1796	1
1092	1609	1657	1
88	89	181	1
592	1609	1657	1
668	669	848	1
643	699	702	1
1470	1472	1680	1
803	1547	1675	1
848	849	1670	1
592	594	1657	1
1471	1680	1699	1
288	963	1662	1
1019	1051	1128	1
302	1505	1564	1
617	618	631	1
946	1498	1617	1
770	854	855	1
702	1666	1694	1
843	1612	1672	1
1095	1644	1678	1
975	978	1637	1
1094	1669	1686	1
449	465	1692	1
1567	1638	1685	1
432	602	1643	1
1104	1715	1721	1
865	867	868	1
675	936	1360	1
867	868	869	1
596	599	1710	1
92	174	1627	1
848	850	1024	1
955	1493	1695	1
245	1540	1676	1
1277	1278	1671	1
605	606	1653	1
1092	1657	1669	1
292	299	1662	1
376	1642	1674	1
1212	1682	1696	1
983	1527	1668	1
856	857	858	1
490	632	1679	1
485	498	833	1
465	1611	1692	1
243	1569	1665	1
954	1522	1698	1
495	985	1650	1
127	128	182	1
919	1025	1120	1
1098	1611	1692	1
846	847	919	1
632	1679	1687	1
1533	1712	1735	1
1105	1543	1673	1
1608	1641	1682	1
606	623	1653	1
597	600	1654	1
1055	1641	1682	1
631	1018	1666	1
494	495	1650	1
687	998	1640	1
1002	1126	1127	1
861	862	863	1
801	990	1741	1
420	432	1643	1
1001	1002	1126	1
513	736	1648	1
884	1045	1646	1
986	1665	1689	1
967	1612	1672	1
645	673	1655	1
963	1490	1681	1
990	1489	1746	1
1277	1619	1695	1
245	1539	1676	1
818	821	822	1
671	672	764	1
405	1586	1667	1
541	1603	1707	1
513	777	1648	1
764	846	890	1
954	1698	1724	1
319	321	1723	1
645	703	1655	1
967	1625	1672	1
1286	1363	1803	1
952	1613	1686	1
494	637	1650	1
46	195	1554	1
361	364	1690	1
1433	1447	1748	1
862	863	876	1
848	1024	1670	1
747	845	1114	1
857	859	1691	1
436	449	1692	1
605	624	1653	1
1301	1767	1768	1
1113	1540	1676	1
876	965	993	1
632	771	1687	1
868	869	1645	1
1095	1593	1678	1
859	860	861	1
637	696	1650	1
694	770	1664	1
1102	1448	1797	1
600	703	1654	1
456	471	1660	1
1026	1028	1728	1
1506	1552	1700	1
771	1687	1693	1
1094	1613	1686	1
372	374	1668	1
618	643	1666	1
99	100	1714	1
805	1093	1689	1
364	1482	1711	1
1093	1665	1689	1
660	1534	1681	1
1090	1475	1674	1
627	671	672	1
288	292	1662	1
672	764	846	1
485	833	1663	1
91	218	1627	1
1486	1777	1778	1
1621	1672	1709	1
340	1562	1729	1
985	1650	1704	1
1101	1706	1710	1
855	856	857	1
411	503	1702	1
49	187	1602	1
842	1104	1715	1
771	1123	1693	1
869	872	1645	1
585	1457	1781	1
231	426	747	1
192	1237	1238	1
963	1534	1681	1
1281	1561	1785	1
627	1542	1703	1
727	1614	1683	1
965	993	1121	1
1061	1682	1696	1
456	460	1660	1
618	631	1666	1
955	1619	1695	1
257	1301	1767	1
438	1713	1727	1
226	228	1684	1
90	218	1620	1
1061	1608	1682	1
428	438	1713	1
993	1121	1122	1
1562	1729	1734	1
1090	1642	1674	1
770	856	1664	1
372	1527	1668	1
471	617	1660	1
673	902	1655	1
984	1567	1685	1
857	858	859	1
426	747	844	1
359	1690	1701	1
961	1536	1699	1
668	850	1677	1
1111	1484	1742	1
849	1023	1670	1
541	1551	1707	1
727	1599	1683	1
1465	1467	1740	1
1126	1130	1151	1
1061	1210	1696	1
872	879	1645	1
1669	1686	1706	1
643	702	1666	1
1100	1652	1719	1
952	1628	1686	1
1473	1736	1738	1
660	1522	1698	1
802	1616	1697	1
1616	1697	1711	1
802	1588	1697	1
660	1681	1698	1
696	1650	1704	1
980	1599	1683	1
747	1114	1684	1
1003	1412	1786	1
380	1433	1756	1
843	1672	1709	1
742	1545	1724	1
89	181	1620	1
1427	1428	1731	1
968	1588	1697	1
622	1703	1728	1
992	1709	1715	1
859	862	1691	1
1428	1731	1737	1
696	899	1704	1
1017	1019	1827	1
863	865	1688	1
1098	1692	1713	1
865	868	1688	1
743	994	1700	1
845	1114	1115	1
844	845	1020	1
821	823	824	1
612	622	1703	1
358	539	1708	1
1491	1698	1724	1
1018	1051	1694	1
662	1669	1706	1
988	1552	1700	1
868	1688	1717	1
314	334	1726	1
340	1538	1716	1
1004	1770	1782	1
1277	1671	1695	1
725	1546	1743	1
619	1562	1734	1
614	627	1703	1
1250	1251	1766	1
743	1506	1700	1
1433	1748	1756	1
624	668	1677	1
690	972	1730	1
1096	1678	1712	1
1467	1726	1745	1
380	1756	1773	1
624	1653	1677	1
728	798	1743	1
612	614	1703	1
654	1456	1792	1
1000	1720	1739	1
1422	1663	1719	1
619	1734	1740	1
985	1005	1704	1
992	1715	1721	1
953	1603	1707	1
1101	1628	1706	1
596	662	1710	1
444	1678	1712	1
993	1688	1717	1
1635	1668	1722	1
1467	1740	1745	1
1275	1276	1754	1
996	1000	1720	1
741	969	1737	1
876	993	1688	1
961	1699	1716	1
747	844	845	1
899	1147	1718	1
1097	1389	1772	1
428	436	1713	1
601	646	1750	1
436	1692	1713	1
1542	1703	1728	1
863	876	1688	1
1471	1699	1716	1
1464	1467	1736	1
1108	1510	1762	1
991	1621	1709	1
1441	1707	1735	1
309	311	1761	1
832	1750	1758	1
1116	1812	1821	1
228	231	1684	1
620	621	1742	1
1383	1483	1764	1
444	953	1712	1
1482	1616	1711	1
1258	1432	1725	1
1104	1305	1721	1
899	1704	1718	1
1484	1742	1764	1
838	1111	1742	1
1257	1262	1725	1
1628	1686	1706	1
833	1663	1719	1
1020	1821	1825	1
310	312	1745	1
842	843	1715	1
1019	1827	1830	1
1016	1017	1824	1
996	1101	1720	1
1005	1704	1718	1
742	1724	1731	1
1111	1730	1755	1
792	793	1757	1
503	505	1759	1
1098	1713	1727	1
374	1668	1722	1
803	1675	1746	1
334	1736	1738	1
1424	1753	1771	1
455	1304	1787	1
1074	1405	1768	1
1030	1032	1771	1
984	1751	1755	1
945	1283	1795	1
1257	1258	1725	1
100	201	1714	1
1515	1801	1825	1
1464	1473	1736	1
1251	1761	1793	1
1254	1839	1842	1
969	1737	1748	1
1489	1675	1746	1
254	257	1767	1
379	423	1776	1
705	1411	1788	1
961	1538	1716	1
129	219	1732	1
843	1709	1715	1
319	705	1723	1
599	1710	1720	1
1005	1038	1718	1
622	1424	1753	1
995	1098	1727	1
798	1227	1826	1
599	1720	1739	1
1422	1652	1719	1
992	1571	1721	1
954	1545	1724	1
993	1122	1717	1
340	1716	1729	1
252	585	1767	1
231	747	1684	1
689	984	1755	1
1019	1128	1830	1
182	1300	1732	1
608	623	1753	1
128	182	1732	1
868	1645	1717	1
374	1640	1722	1
312	314	1726	1
621	1382	1779	1
128	129	1732	1
953	1712	1735	1
833	1624	1747	1
1097	1750	1758	1
498	833	1747	1
1469	1471	1729	1
998	1640	1722	1
510	736	1765	1
610	622	1753	1
742	1731	1737	1
837	1004	1770	1
984	1685	1751	1
1427	1491	1731	1
1101	1710	1720	1
737	1685	1749	1
1110	1473	1738	1
1469	1729	1734	1
438	1658	1727	1
1533	1735	1774	1
689	690	1730	1
251	585	1781	1
1026	1542	1728	1
998	1722	1758	1
542	1486	1777	1
1466	1469	1734	1
681	793	1785	1
923	1097	1772	1
1252	1253	1744	1
583	621	1779	1
930	999	1801	1
1232	1614	1786	1
686	804	1789	1
474	1561	1785	1
1491	1724	1731	1
1471	1716	1729	1
741	742	1737	1
1466	1734	1740	1
599	1654	1739	1
1103	1304	1787	1
1082	1741	1746	1
1467	1726	1736	1
334	1726	1736	1
380	1773	1776	1
1119	1828	1829	1
989	1664	1733	1
832	1635	1758	1
1635	1722	1758	1
1465	1466	1740	1
1439	1441	1774	1
1685	1749	1751	1
1211	1446	1816	1
1020	1801	1825	1
620	838	1742	1
334	1604	1738	1
1231	1234	1791	1
1108	1762	1770	1
725	728	1743	1
1251	1761	1766	1
654	1539	1792	1
803	1082	1746	1
310	619	1745	1
1437	1439	1783	1
791	1664	1733	1
619	1740	1745	1
1082	1673	1741	1
1428	1447	1748	1
1441	1735	1774	1
953	1707	1735	1
1044	1144	1798	1
472	1437	1793	1
1000	1002	1739	1
437	1828	1829	1
1109	1110	1751	1
601	832	1750	1
1654	1739	1763	1
1439	1774	1783	1
1109	1751	1755	1
1279	1281	1754	1
969	1748	1756	1
498	667	1747	1
894	1102	1797	1
1428	1737	1748	1
1108	1770	1782	1
1276	1279	1754	1
737	1604	1749	1
1604	1738	1749	1
1305	1773	1776	1
1340	1777	1778	1
1110	1738	1749	1
608	610	1753	1
922	1803	1810	1
995	1727	1762	1
792	1066	1757	1
1109	1111	1755	1
1645	1717	1752	1
1285	1792	1810	1
517	1485	1796	1
1658	1727	1762	1
969	1571	1756	1
1066	1757	1760	1
1283	1601	1795	1
1066	1271	1760	1
499	731	1803	1
505	508	1759	1
1017	1824	1827	1
1122	1717	1752	1
309	472	1761	1
1132	1655	1775	1
1483	1484	1764	1
1002	1739	1763	1
1002	1127	1763	1
311	1761	1766	1
998	1097	1758	1
508	510	1765	1
542	1071	1769	1
508	1759	1765	1
252	254	1767	1
879	1645	1752	1
1510	1658	1762	1
1437	1783	1793	1
1285	1676	1792	1
1074	1301	1768	1
1003	1683	1786	1
378	437	1804	1
1571	1756	1773	1
1653	1677	1784	1
1304	1305	1780	1
1110	1749	1751	1
623	1653	1784	1
703	1654	1763	1
1014	1617	1811	1
837	995	1770	1
1127	1763	1775	1
117	118	1808	1
703	1763	1775	1
1030	1424	1771	1
1004	1008	1782	1
1340	1341	1777	1
923	1065	1772	1
1373	1759	1765	1
379	380	1776	1
217	1228	1832	1
745	1533	1774	1
423	1776	1780	1
583	636	1779	1
394	1486	1778	1
1505	1565	1807	1
1008	1782	1790	1
745	1774	1783	1
1008	1039	1790	1
251	654	1781	1
1504	1817	1820	1
1032	1771	1784	1
977	1108	1782	1
703	1655	1775	1
1009	1340	1778	1
1254	1744	1839	1
745	1606	1783	1
995	1762	1770	1
474	681	1785	1
1305	1721	1773	1
1456	1792	1810	1
1007	1009	1794	1
1103	1283	1787	1
1411	1412	1788	1
1234	1723	1791	1
686	1006	1789	1
1032	1033	1806	1
977	1782	1790	1
705	1723	1791	1
1677	1784	1806	1
1571	1721	1773	1
1007	1011	1802	1
1033	1806	1809	1
1614	1683	1786	1
394	1778	1794	1
1251	1606	1793	1
1606	1783	1793	1
977	1637	1790	1
1286	1803	1810	1
394	1509	1794	1
736	1800	1805	1
1539	1676	1792	1
225	226	1799	1
831	1446	1816	1
1022	1265	1838	1
1039	1790	1798	1
1371	1373	1805	1
1102	1601	1795	1
623	1771	1784	1
1219	1519	1815	1
894	1141	1797	1
1014	1811	1819	1
1009	1778	1794	1
517	1270	1796	1
443	460	1814	1
1305	1776	1780	1
1022	1235	1837	1
1011	1802	1807	1
345	1639	1819	1
1007	1794	1802	1
1012	1118	1822	1
1117	1834	1836	1
542	1769	1777	1
1637	1790	1798	1
922	1456	1810	1
1044	1637	1798	1
1118	1804	1813	1
1063	1519	1815	1
1032	1784	1806	1
994	1443	1812	1
1509	1794	1802	1
1565	1807	1811	1
1015	1119	1828	1
731	922	1803	1
736	1648	1800	1
460	1817	1820	1
522	1509	1802	1
338	345	1823	1
1264	1265	1840	1
1341	1769	1777	1
999	1801	1835	1
343	378	1804	1
1116	1821	1825	1
844	1020	1821	1
994	1700	1812	1
930	1515	1801	1
345	1819	1822	1
1013	1380	1813	1
736	1765	1805	1
1016	1660	1820	1
396	437	1829	1
1022	1837	1838	1
1034	1264	1841	1
1114	1684	1799	1
226	1684	1799	1
1114	1799	1818	1
522	1802	1807	1
850	1806	1809	1
850	1677	1806	1
931	1034	1843	1
1373	1765	1805	1
522	1505	1807	1
1010	1119	1817	1
805	1336	1831	1
118	193	1808	1
850	1024	1809	1
1285	1286	1810	1
1010	1504	1817	1
779	805	1831	1
95	217	1832	1
1011	1617	1811	1
206	1307	1852	1
185	1307	1853	1
93	174	1834	1
1120	1855	1856	1
1006	1789	1826	1
1565	1811	1819	1
1227	1789	1826	1
1265	1838	1840	1
343	1804	1823	1
206	1344	1851	1
1011	1807	1811	1
1118	1804	1823	1
1264	1840	1841	1
931	1843	1848	1
845	1020	1835	1
437	1804	1813	1
185	1853	1855	1
435	443	1814	1
1307	1852	1853	1
831	1021	1816	1
1063	1273	1815	1
988	1700	1812	1
460	1814	1817	1
1565	1639	1819	1
886	1504	1824	1
988	1812	1821	1
1114	1115	1818	1
206	1851	1852	1
460	1660	1820	1
667	1515	1825	1
1034	1841	1843	1
1012	1014	1822	1
1243	1848	1850	1
844	988	1821	1
435	1814	1829	1
177	1344	1849	1
1014	1819	1822	1
338	343	1823	1
1119	1814	1829	1
1119	1814	1817	1
1020	1801	1835	1
437	1813	1828	1
667	1116	1825	1
1380	1813	1828	1
1006	1217	1826	1
1015	1380	1828	1
396	435	1829	1
886	903	1827	1
1016	1820	1824	1
903	1827	1830	1
903	1134	1830	1
886	1824	1827	1
1344	1849	1851	1
205	1347	1846	1
177	1347	1847	1
94	95	1832	1
779	1053	1831	1
1504	1820	1824	1
1053	1831	1833	1
1053	1207	1833	1
94	1832	1834	1
93	94	1834	1
1021	1235	1836	1
205	1337	1845	1
845	1115	1835	1
1347	1846	1847	1
205	1845	1846	1
169	1337	1844	1
1023	1842	1844	1
1021	1117	1836	1
1242	1243	1848	1
852	1023	1842	1
1337	1844	1845	1
177	1847	1849	1
1244	1312	1854	1
823	824	1850	1
116	117	1856	1
1025	1120	1855	1
999	1835	1839	1
999	1839	1842	1
174	1627	1837	1
1627	1837	1838	1
218	1627	1838	1
174	1836	1837	1
185	1855	1856	1
1115	1744	1839	1
218	1838	1840	1
931	1848	1850	1
218	1620	1840	1
824	1850	1854	1
1115	1835	1839	1
1620	1840	1841	1
1235	1836	1837	1
181	1620	1841	1
1254	1842	1844	1
852	999	1842	1
169	1254	1844	1
181	1309	1843	1
181	1841	1843	1
1023	1670	1845	1
1309	1843	1848	1
1670	1845	1846	1
1024	1670	1846	1
1024	1846	1847	1
1023	1844	1845	1
1242	1309	1848	1
1024	1809	1847	1
1031	1033	1851	1
823	931	1850	1
1031	1851	1852	1
1029	1031	1852	1
1033	1849	1851	1
1029	1852	1853	1
1027	1029	1853	1
1243	1244	1854	1
1027	1853	1855	1
1025	1027	1855	1
116	185	1856	1
1033	1809	1849	1
1809	1847	1849	1
1243	1850	1854	1
1239	1871	1936	1
808	1325	1857	1
216	1157	1866	1
767	808	1857	1
766	1049	1857	1
1320	1326	1860	1
766	767	1857	1
1237	1239	1871	1
1135	1157	1872	1
1129	1330	1926	1
813	1326	1860	1
811	813	1860	1
748	1293	1915	1
170	1151	1903	1
1049	1857	1858	1
1180	1450	1880	1
1325	1857	1858	1
1317	1381	1889	1
1316	1318	1859	1
1316	1327	1859	1
1035	1247	1895	1
1290	1544	1891	1
644	698	1863	1
44	45	1864	1
811	826	1860	1
748	1293	1927	1
1183	1867	1873	1
1086	1188	1868	1
896	1172	1869	1
51	216	1866	1
50	187	1866	1
638	1516	1868	1
1085	1086	1868	1
699	896	1869	1
190	1177	1870	1
1157	1866	1875	1
42	222	1870	1
41	190	1870	1
208	1354	1861	1
67	1151	1909	1
764	890	1871	1
940	941	1872	1
943	1135	1872	1
1173	1302	1877	1
702	1694	1862	1
1300	1342	1896	1
1408	1409	1876	1
1194	1630	1933	1
178	1152	1901	1
176	1156	1902	1
1223	1330	1926	1
698	1578	1930	1
189	1407	1877	1
209	1351	1893	1
194	1315	1911	1
213	1183	1873	1
879	1647	1878	1
195	1554	1880	1
1361	1362	1882	1
213	1205	1873	1
887	1871	1936	1
1407	1408	1862	1
173	1580	1898	1
887	1360	1883	1
179	1364	1897	1
890	1357	1939	1
178	1154	1919	1
176	1289	1920	1
644	700	1863	1
45	1554	1864	1
1199	1200	1865	1
1495	1496	1904	1
638	1600	1887	1
1319	1322	1889	1
1050	1129	1894	1
1391	1395	1894	1
1128	1830	1879	1
1049	1131	1897	1
1183	1184	1867	1
748	1610	1915	1
168	1401	1900	1
1047	1048	1898	1
136	168	1900	1
135	215	1900	1
151	178	1901	1
152	210	1901	1
53	176	1902	1
52	216	1902	1
1107	1199	1931	1
59	165	1904	1
119	193	1905	1
80	194	1906	1
965	1121	1907	1
137	168	1908	1
66	199	1909	1
131	173	1910	1
130	219	1910	1
50	51	1866	1
702	1862	1869	1
78	1381	1911	1
79	194	1911	1
1085	1516	1868	1
699	702	1869	1
636	1630	1912	1
193	1808	1913	1
846	919	1914	1
919	1120	1913	1
1247	1248	1915	1
219	1732	1896	1
941	1578	1890	1
41	42	1870	1
198	1222	1917	1
1179	1180	1880	1
149	209	1919	1
150	178	1919	1
55	1544	1920	1
54	176	1920	1
2	43	1922	1
2	44	1922	1
223	1328	1923	1
224	1366	1924	1
3	83	1923	1
3	82	1923	1
4	122	1924	1
4	121	1924	1
162	1223	1926	1
1089	1124	1927	1
748	1518	1927	1
199	1246	1895	1
1048	1403	1881	1
1131	1132	1882	1
1238	1357	1939	1
6	7	1937	1
890	1357	1914	1
1600	1887	1916	1
208	1861	1892	1
764	887	1871	1
179	1354	1928	1
1189	1191	1921	1
1525	1526	1885	1
171	1352	1884	1
940	943	1872	1
214	1544	1891	1
1159	1205	1873	1
1	160	1925	1
1	5	1925	1
1126	1151	1903	1
1400	1403	1881	1
1193	1195	1874	1
1694	1862	1934	1
187	1454	1875	1
1123	1290	1891	1
638	1868	1887	1
222	1870	1888	1
1324	1325	1938	1
1130	1151	1909	1
1408	1862	1934	1
171	1261	1884	1
165	1525	1885	1
200	1865	1874	1
183	1409	1876	1
1127	1362	1903	1
138	1395	1908	1
1172	1173	1877	1
1134	1830	1879	1
203	1496	1918	1
189	1302	1877	1
879	1752	1878	1
1454	1875	1890	1
210	1378	1879	1
195	1450	1880	1
215	1570	1881	1
207	1361	1882	1
1357	1359	1914	1
214	1526	1891	1
936	1360	1883	1
642	1600	1916	1
1325	1861	1938	1
1193	1874	1899	1
1125	1496	1918	1
1246	1247	1895	1
1121	1122	1884	1
1081	1133	1885	1
5	6	1886	1
1188	1190	1887	1
1875	1890	1935	1
1177	1179	1888	1
1154	1155	1893	1
81	1328	1906	1
120	1366	1905	1
186	1381	1889	1
1300	1732	1896	1
1317	1319	1889	1
1453	1454	1890	1
208	1346	1892	1
1050	1391	1894	1
1035	1618	1895	1
642	1916	1933	1
1188	1868	1887	1
1554	1880	1932	1
1177	1870	1888	1
1342	1343	1896	1
1452	1453	1930	1
1223	1329	1917	1
1124	1292	1918	1
1394	1395	1908	1
1407	1877	1940	1
1126	1127	1903	1
1150	1329	1917	1
1124	1125	1918	1
1452	1863	1929	1
1047	1138	1898	1
1325	1858	1928	1
1190	1887	1916	1
1191	1193	1899	1
135	136	1900	1
890	1871	1939	1
151	152	1901	1
52	53	1902	1
1049	1858	1897	1
170	1362	1903	1
59	60	1904	1
80	81	1906	1
119	120	1905	1
1313	1328	1906	1
1358	1366	1905	1
965	1150	1907	1
137	138	1908	1
66	67	1909	1
130	131	1910	1
1325	1861	1928	1
642	1630	1933	1
163	1249	1921	1
78	79	1911	1
1452	1863	1930	1
636	1303	1912	1
1120	1808	1913	1
846	890	1914	1
1248	1293	1915	1
1861	1892	1938	1
1190	1192	1916	1
1222	1223	1917	1
203	1292	1918	1
1554	1864	1932	1
1862	1869	1940	1
44	1864	1922	1
1303	1912	1931	1
1408	1876	1934	1
149	150	1919	1
54	55	1920	1
1192	1916	1933	1
221	1886	1925	1
160	221	1925	1
43	222	1922	1
83	223	1923	1
122	224	1924	1
941	1890	1935	1
162	1259	1926	1
1089	1518	1927	1
1407	1862	1940	1
1239	1299	1936	1
887	1883	1936	1
1323	1324	1938	1
1172	1877	1940	1
1179	1880	1932	1
698	1863	1930	1
1237	1871	1939	1
941	1872	1935	1
1107	1303	1931	1
1192	1194	1933	1
221	1886	1941	1
1051	1694	1934	1
7	196	1937	1
1237	1238	1939	1
1173	1174	1941	1
222	1864	1922	1
1354	1861	1928	1
700	1863	1929	1
1157	1872	1935	1
1249	1899	1921	1
1157	1875	1935	1
1323	1892	1938	1
1051	1876	1934	1
1172	1869	1940	1
5	1886	1925	1
1299	1883	1936	1
1191	1899	1921	1
1179	1888	1932	1
1174	1886	1941	1


End