MeshVersionFormatted 3

Dimension
3

Vertices
513
0	0	0		1
1	0	0		1
1	1	0		1
0	1	0		1
0.05	0	0		1
0.1	0	0		1
0.15	0	0		1
0.2	0	0		1
0.25	0	0		1
0.3	0	0		1
0.35	0	0		1
0.4	0	0		1
0.45	0	0		1
0.5	0	0		1
0.55	0	0		1
0.6	0	0		1
0.65	0	0		1
0.7	0	0		1
0.75	0	0		1
0.8	0	0		1
0.85	0	0		1
0.9	0	0		1
0.95	0	0		1
1	0.05	0		1
1	0.1	0		1
1	0.15	0		1
1	0.2	0		1
1	0.25	0		1
1	0.3	0		1
1	0.35	0		1
1	0.4	0		1
1	0.45	0		1
1	0.5	0		1
1	0.55	0		1
1	0.6	0		1
1	0.65	0		1
1	0.7	0		1
1	0.75	0		1
1	0.8	0		1
1	0.85	0		1
1	0.9	0		1
1	0.95	0		1
0.95	1	0		1
0.9	1	0		1
0.85	1	0		1
0.8	1	0		1
0.75	1	0		1
0.7	1	0		1
0.65	1	0		1
0.6	1	0		1
0.55	1	0		1
0.5	1	0		1
0.45	1	0		1
0.4	1	0		1
0.35	1	0		1
0.3	1	0		1
0.25	1	0		1
0.2	1	0		1
0.15	1	0		1
0.1	1	0		1
0.05	1	0		1
0	0.95	0		1
0	0.9	0		1
0	0.85	0		1
0	0.8	0		1
0	0.75	0		1
0	0.7	0		1
0	0.65	0		1
0	0.6	0		1
0	0.55	0		1
0	0.5	0		1
0	0.45	0		1
0	0.4	0		1
0	0.35	0		1
0	0.3	0		1
0	0.25	0		1
0	0.2	0		1
0	0.15	0		1
0	0.1	0		1
0	0.05	0		1
0.475	0.956699	0		1
0.0504666	0.477188	0		1
0.525	0.0433013	0		1
0.966008	0.52345	0		1
0.0433013	0.675	0		1
0.675	0.956699	0		1
0.325	0.0433013	0		1
0.956129	0.325515	0		1
0.325	0.956699	0		1
0.0422554	0.325	0		1
0.962822	0.674273	0		1
0.675	0.0433013	0		1
0.825	0.956699	0		1
0.0444272	0.82546	0		1
0.0418822	0.178035	0		1
0.827002	0.0419101	0		1
0.175	0.956699	0		1
0.951658	0.82976	0		1
0.955573	0.17454	0		1
0.175	0.0433013	0		1
0.4272	0.044645	0		1
0.955132	0.422543	0		1
0.0395714	0.576095	0		1
0.575	0.956699	0		1
0.923066	0.957815	0		1
0.0452849	0.920409	0		1
0.0424082	0.0749186	0		1
0.923066	0.0421848	0		1
0.425	0.956699	0		1
0.45	0.913397	0		1
0.4	0.913397	0		1
0.425	0.870096	0		1
0.475	0.870096	0		1
0.45	0.826795	0		1
0.5	0.826795	0		1
0.475	0.783494	0		1
0.525	0.783494	0		1
0.5	0.740192	0		1
0.45	0.740192	0		1
0.475	0.696891	0		1
0.525	0.696891	0		1
0.5	0.65359	0		1
0.55	0.65359	0		1
0.525	0.610289	0		1
0.475	0.610289	0		1
0.5	0.566987	0		1
0.55	0.566987	0		1
0.525	0.523686	0		1
0.475	0.523686	0		1
0.5	0.480385	0		1
0.45	0.480385	0		1
0.55	0.480385	0		1
0.475	0.437083	0		1
0.425	0.437083	0		1
0.4	0.480385	0		1
0.375	0.437083	0		1
0.45	0.393782	0		1
0.35	0.480385	0		1
0.325	0.437083	0		1
0.3	0.480385	0		1
0.275	0.437083	0		1
0.3	0.393782	0		1
0.325	0.523686	0		1
0.275	0.523686	0		1
0.3	0.566987	0		1
0.25	0.566987	0		1
0.275	0.610289	0		1
0.25	0.393782	0		1
0.275	0.350481	0		1
0.575	0.696891	0		1
0.6	0.65359	0		1
0.625	0.696891	0		1
0.65	0.65359	0		1
0.675	0.696891	0		1
0.7	0.65359	0		1
0.725	0.696891	0		1
0.75	0.65359	0		1
0.725	0.610289	0		1
0.5	0.393782	0		1
0.475	0.350481	0		1
0.525	0.350481	0		1
0.5	0.30718	0		1
0.55	0.30718	0		1
0.525	0.263878	0		1
0.475	0.263878	0		1
0.575	0.263878	0		1
0.6	0.30718	0		1
0.625	0.263878	0		1
0.65	0.30718	0		1
0.675	0.263878	0		1
0.7	0.30718	0		1
0.725	0.263878	0		1
0.75	0.30718	0		1
0.725	0.350481	0		1
0.4	0.826795	0		1
0.65	0.740192	0		1
0.775	0.696891	0		1
0.75	0.740192	0		1
0.775	0.263878	0		1
0.75	0.220577	0		1
0.6	0.220812	0		1
0.775	0.610289	0		1
0.75	0.566987	0		1
0.775	0.350481	0		1
0.225	0.610289	0		1
0.25	0.65359	0		1
0.225	0.523686	0		1
0.225	0.350481	0		1
0.25	0.30718	0		1
0.3	0.30718	0		1
0.275	0.263878	0		1
0.225	0.263878	0		1
0.25	0.220577	0		1
0.3	0.220577	0		1
0.5	0.220577	0		1
0.8	0.740192	0		1
0.775	0.783494	0		1
0.2	0.393782	0		1
0.425	0.696891	0		1
0.75	0.393782	0		1
0.7	0.393782	0		1
0.2	0.220577	0		1
0.798092	0.221679	0		1
0.8	0.566987	0		1
0.2	0.65359	0		1
0.225	0.696891	0		1
0.8	0.393782	0		1
0.275	0.696891	0		1
0.25	0.740192	0		1
0.2	0.740192	0		1
0.225	0.783494	0		1
0.7	0.566987	0		1
0.45	0.220577	0		1
0.55	0.826795	0		1
0.225	0.177276	0		1
0.774682	0.177459	0		1
0.724947	0.177306	0		1
0.473033	0.178411	0		1
0.424672	0.177465	0		1
0.825	0.610289	0		1
0.17572	0.264294	0		1
0.823938	0.264491	0		1
0.175	0.177276	0		1
0.818392	0.174923	0		1
0.174678	0.783308	0		1
0.824359	0.783124	0		1
0.175	0.610289	0		1
0.199946	0.826764	0		1
0.249991	0.82679	0		1
0.35	0.566987	0		1
0.3	0.740192	0		1
0.425	0.350481	0		1
0.725	0.523686	0		1
0.675	0.523686	0		1
0.799893	0.826733	0		1
0.749982	0.826785	0		1
0.749938	0.13401	0		1
0.15	0.740192	0		1
0.85	0.740192	0		1
0.85	0.566987	0		1
0.825	0.523686	0		1
0.149616	0.826573	0		1
0.849234	0.828258	0		1
0.22499	0.87009	0		1
0.325	0.696891	0		1
0.625	0.350481	0		1
0.425	0.263878	0		1
0.4	0.740192	0		1
0.825	0.350481	0		1
0.85	0.393782	0		1
0.625	0.610289	0		1
0.55	0.393782	0		1
0.149955	0.653616	0		1
0.525	0.177276	0		1
0.175	0.350481	0		1
0.15	0.393782	0		1
0.175	0.437083	0		1
0.775	0.437083	0		1
0.274997	0.870094	0		1
0.299998	0.826794	0		1
0.774979	0.870084	0		1
0.724994	0.870092	0		1
0.699996	0.826793	0		1
0.674998	0.870095	0		1
0.649999	0.826794	0		1
0.625	0.870096	0		1
0.699981	0.134221	0		1
0.875	0.610289	0		1
0.441517	0.135553	0		1
0.4	0.133975	0		1
0.2	0.13421	0		1
0.15	0.134249	0		1
0.25	0.134014	0		1
0.126268	0.437816	0		1
0.150211	0.480507	0		1
0.0929721	0.396222	0		1
0.126174	0.609611	0		1
0.150196	0.566874	0		1
0.575	0.783494	0		1
0.85	0.65359	0		1
0.674988	0.177322	0		1
0.654359	0.13061	0		1
0.374945	0.177307	0		1
0.349991	0.134215	0		1
0.7	0.480385	0		1
0.65	0.480385	0		1
0.625	0.523686	0		1
0.249998	0.913396	0		1
0.324999	0.870096	0		1
0.749995	0.913395	0		1
0.873737	0.350618	0		1
0.121917	0.179959	0		1
0.873491	0.522815	0		1
0.849748	0.48024	0		1
0.10029	0.131676	0		1
0.898046	0.479178	0		1
0.225	0.0906733	0		1
0.725	0.0906733	0		1
0.367642	0.0905439	0		1
0.1257	0.0866651	0		1
0.774049	0.0926302	0		1
0.275	0.0906733	0		1
0.906805	0.395786	0		1
0.0928824	0.652147	0		1
0.896668	0.652783	0		1
0.921613	0.612416	0		1
0.106042	0.562533	0		1
0.103102	0.479855	0		1
0.199998	0.913396	0		1
0.375	0.956699	0		1
0.0448912	0.423314	0		1
0.0433013	0.375	0		1
0.674999	0.783493	0		1
0.525	0.956699	0		1
0.55	0.913397	0		1
0.0404718	0.528686	0		1
0.200035	0.480405	0		1
0.575	0.0433013	0		1
0.55	0.0863674	0		1
0.6	0.0866025	0		1
0.567617	0.130019	0		1
0.5022	0.0879071	0		1
0.6	0.826795	0		1
0.375	0.696891	0		1
0.4	0.65359	0		1
0.35	0.65359	0		1
0.623033	0.0421657	0		1
0.95036	0.476444	0		1
0.475733	0.0435075	0		1
0.35	0.740192	0		1
0.043127	0.275	0		1
0.0938046	0.303433	0		1
0.0847219	0.249653	0		1
0.625	0.783494	0		1
0.0494432	0.127829	0		1
0.874678	0.956885	0		1
0.899624	0.913615	0		1
0.953942	0.91856	0		1
0.924455	0.87421	0		1
0.849884	0.913465	0		1
0.958756	0.724879	0		1
0.956201	0.775773	0		1
0.918482	0.795007	0		1
0.908849	0.746328	0		1
0.125409	0.956935	0		1
0.150068	0.913437	0		1
0.0997022	0.914848	0		1
0.124898	0.870307	0		1
0.0747387	0.871554	0		1
0.098295	0.826482	0		1
0.07326	0.77892	0		1
0.12307	0.782379	0		1
0.0987857	0.737639	0		1
0.124541	0.696507	0		1
0.875	0.0433013	0		1
0.899678	0.0864165	0		1
0.95395	0.0814439	0		1
0.925	0.129904	0		1
0.875	0.129904	0		1
0.903517	0.172644	0		1
0.926977	0.220995	0		1
0.882852	0.219719	0		1
0.903936	0.259889	0		1
0.0428741	0.225457	0		1
0.5	0.913397	0		1
0.275	0.177282	0		1
0.375	0.610289	0		1
0.675	0.350481	0		1
0.65	0.393782	0		1
0.6	0.393782	0		1
0.851115	0.0859323	0		1
0.375	0.523686	0		1
0.425	0.523686	0		1
0.225006	0.437087	0		1
0.65	0.566987	0		1
0.250007	0.480389	0		1
0.325	0.350481	0		1
0.35	0.30718	0		1
0.325	0.263878	0		1
0.7	0.740192	0		1
0.325	0.610289	0		1
0.375	0.783494	0		1
0.125	0.350481	0		1
0.200033	0.566968	0		1
0.956699	0.375	0		1
0.325	0.783493	0		1
0.950309	0.269983	0		1
0.0469426	0.730731	0		1
0.042974	0.626573	0		1
0.799823	0.307282	0		1
0.724996	0.783491	0		1
0.45	0.30718	0		1
0.45	0.566987	0		1
0.6	0.740192	0		1
0.625	0.956699	0		1
0.775	0.523686	0		1
0.35	0.393782	0		1
0.575	0.610289	0		1
0.45	0.65359	0		1
0.399936	0.220614	0		1
0.425	0.783494	0		1
0.55	0.740192	0		1
0.3	0.65359	0		1
0.847355	0.308608	0		1
0.128101	0.521985	0		1
0.525	0.437083	0		1
0.55	0.220852	0		1
0.20012	0.307249	0		1
0.174916	0.696831	0		1
0.675	0.610289	0		1
0.274998	0.783493	0		1
0.175596	0.523404	0		1
0.575	0.350481	0		1
0.699989	0.22059	0		1
0.425	0.610289	0		1
0.8	0.65359	0		1
0.898907	0.56746	0		1
0.4	0.393782	0		1
0.794348	0.130276	0		1
0.575	0.437083	0		1
0.152614	0.222318	0		1
0.349999	0.826795	0		1
0.4	0.566987	0		1
0.375	0.350481	0		1
0.649996	0.220626	0		1
0.525	0.870096	0		1
0.174919	0.870095	0		1
0.4	0.30718	0		1
0.6	0.566987	0		1
0.627888	0.175171	0		1
0.725	0.437083	0		1
0.825	0.696891	0		1
0.15	0.30718	0		1
0.575	0.523686	0		1
0.375	0.870096	0		1
0.374989	0.263885	0		1
0.299998	0.134257	0		1
0.875022	0.698297	0		1
0.349992	0.220582	0		1
0.324997	0.1773	0		1
0.6	0.480385	0		1
0.6	0.913397	0		1
0.575	0.870096	0		1
0.625	0.437083	0		1
0.75	0.480385	0		1
0.65	0.913397	0		1
0.675	0.437083	0		1
0.699998	0.913396	0		1
0.799958	0.480361	0		1
0.824951	0.437055	0		1
0.875	0.437083	0		1
0.724999	0.956698	0		1
0.35	0.913397	0		1
0.774999	0.956698	0		1
0.299999	0.913397	0		1
0.799976	0.913406	0		1
0.274999	0.956698	0		1
0.225	0.956699	0		1
0.824828	0.87034	0		1
0.874671	0.873019	0		1
0.955621	0.572764	0		1
0.774556	0.0438812	0		1
0.724977	0.0402453	0		1
0.45572	0.0898033	0		1
0.525	0.128493	0		1
0.675913	0.0930305	0		1
0.578987	0.175708	0		1
0.378933	0.0448231	0		1
0.323526	0.0985982	0		1
0.275	0.0418902	0		1
0.225	0.0401417	0		1
0.175036	0.0935773	0		1
0.125627	0.0343677	0		1
0.899992	0.306698	0		1
0.0765337	0.958936	0		1
0.0794937	0.0453515	0		1
0.0807928	0.204009	0		1
0.873195	0.784972	0		1
0.128685	0.263286	0		1
0.922918	0.690367	0		1
0.0797125	0.350019	0		1
0.918672	0.350723	0		1
0.080797	0.698518	0		1
0.0794671	0.093288	0		1
0.0793968	0.596222	0		1
0.965224	0.625	0		1
0.0835399	0.442879	0		1
0.917068	0.442207	0		1
0.0328902	0.873484	0		1
0.966254	0.874748	0		1
0.96661	0.125567	0		1
0.084056	0.518458	0		1
0.915944	0.518458	0		1
0.032926	0.777022	0		1
0.967372	0.225	0		1
0.89964	0.836311	0		1
0.864464	0.268768	0		1
0.839351	0.225137	0		1
0.963397	0.963397	0		1
0.0366025	0.0366025	0		1
0.0366025	0.963397	0		1
0.963397	0.0366025	0		1
0.638198	0.0797889	0		1
0.488198	0.140788	0		1
0.412225	0.0920609	0		1
0.612327	0.125403	0		1
0.860114	0.171945	0		1
0.836069	0.125931	0		1
0.812013	0.0796668	0		1
0.0796372	0.165525	0		1
0.113746	0.223845	0		1
0.934606	0.648359	0		1
0.0693341	0.553448	0		1

Triangles
944
417	461	493	1
88	387	474	1
239	344	438	1
84	461	493	1
298	301	462	1
298	462	463	1
297	302	470	1
297	470	471	1
332	383	433	1
87	299	468	1
87	299	469	1
92	298	466	1
100	297	471	1
92	298	463	1
100	297	472	1
254	321	465	1
254	321	467	1
87	302	469	1
87	302	470	1
100	300	472	1
100	300	473	1
363	387	474	1
430	467	506	1
322	464	504	1
101	468	505	1
321	467	506	1
299	468	505	1
269	464	504	1
276	311	312	1
102	303	385	1
300	476	484	1
300	473	476	1
85	304	389	1
361	363	387	1
351	353	388	1
106	347	349	1
344	438	480	1
362	498	507	1
224	498	507	1
243	478	496	1
332	433	479	1
239	344	478	1
351	388	494	1
361	387	495	1
276	311	487	1
102	303	488	1
24	25	357	1
41	42	338	1
343	478	496	1
332	383	481	1
304	389	485	1
106	349	489	1
94	349	350	1
99	358	360	1
82	308	492	1
296	328	493	1
24	357	502	1
42	338	499	1
94	350	351	1
99	360	361	1
88	474	482	1
85	304	483	1
306	417	461	1
98	339	496	1
106	347	475	1
276	312	481	1
303	385	482	1
82	316	492	1
84	328	493	1
295	335	510	1
82	308	487	1
296	328	488	1
225	242	352	1
98	343	496	1
295	335	484	1
360	361	362	1
238	352	353	1
238	353	354	1
242	350	352	1
225	238	352	1
350	351	352	1
332	333	479	1
361	362	363	1
253	354	409	1
94	349	489	1
98	339	490	1
99	358	491	1
103	485	513	1
238	354	409	1
253	304	354	1
351	352	353	1
242	348	350	1
242	348	427	1
346	348	427	1
309	346	427	1
97	309	346	1
58	97	458	1
97	309	458	1
74	90	312	1
109	111	310	1
54	109	310	1
278	405	412	1
201	431	447	1
52	53	81	1
71	72	82	1
89	310	453	1
93	336	340	1
275	405	412	1
214	279	323	1
89	453	455	1
44	45	336	1
279	323	334	1
52	81	314	1
71	82	316	1
176	313	334	1
51	104	314	1
70	103	316	1
187	317	376	1
16	318	327	1
45	93	336	1
318	320	327	1
113	115	426	1
81	109	110	1
73	74	312	1
70	71	316	1
51	52	314	1
278	307	405	1
176	334	394	1
33	34	84	1
14	15	83	1
342	343	344	1
314	315	365	1
98	342	343	1
39	98	342	1
154	156	380	1
245	326	403	1
76	331	364	1
43	44	105	1
73	311	312	1
176	313	380	1
317	374	376	1
331	333	364	1
55	89	310	1
62	63	106	1
245	324	330	1
33	84	328	1
230	367	381	1
14	83	329	1
230	372	423	1
275	317	412	1
326	367	381	1
81	110	365	1
264	446	448	1
32	102	328	1
53	81	109	1
279	334	394	1
13	101	329	1
245	324	326	1
288	455	457	1
104	314	315	1
266	442	443	1
366	437	440	1
113	365	426	1
248	324	330	1
326	381	403	1
252	370	413	1
55	56	89	1
348	349	350	1
44	105	336	1
141	374	376	1
141	148	374	1
79	107	335	1
154	176	380	1
13	14	329	1
32	33	328	1
74	75	90	1
97	345	346	1
265	323	334	1
230	367	423	1
53	54	109	1
90	331	332	1
265	313	334	1
108	355	356	1
347	348	349	1
346	347	348	1
75	90	331	1
315	365	426	1
110	113	365	1
22	108	355	1
83	322	329	1
212	375	410	1
54	55	310	1
59	97	345	1
108	356	357	1
355	356	371	1
187	317	412	1
356	359	371	1
285	431	447	1
246	369	370	1
156	178	380	1
341	342	344	1
345	346	347	1
248	330	382	1
36	37	91	1
58	59	97	1
260	289	422	1
356	357	358	1
37	91	341	1
83	318	319	1
38	341	342	1
17	92	327	1
81	314	365	1
246	368	369	1
174	201	368	1
17	18	92	1
38	39	342	1
246	370	413	1
39	40	98	1
336	337	340	1
115	214	426	1
209	211	411	1
251	375	410	1
79	80	107	1
72	82	311	1
57	58	458	1
229	259	260	1
259	260	289	1
83	319	322	1
193	194	366	1
148	198	374	1
256	257	274	1
78	95	335	1
198	256	257	1
274	275	308	1
197	235	236	1
257	274	275	1
171	174	368	1
236	261	262	1
261	262	290	1
358	359	360	1
201	368	369	1
110	111	112	1
161	163	413	1
22	23	108	1
59	60	345	1
209	231	411	1
193	215	366	1
175	382	401	1
235	236	261	1
178	197	391	1
21	96	355	1
143	230	372	1
77	95	364	1
248	382	401	1
138	143	372	1
15	83	318	1
215	271	273	1
284	437	440	1
210	225	238	1
175	382	422	1
129	131	373	1
262	263	264	1
96	355	371	1
78	79	335	1
77	78	95	1
110	112	113	1
75	76	331	1
273	297	302	1
109	110	111	1
138	140	143	1
131	135	373	1
161	252	413	1
215	273	366	1
135	138	372	1
76	77	364	1
210	238	409	1
331	332	333	1
236	262	263	1
144	145	146	1
198	255	256	1
21	22	355	1
16	17	327	1
20	21	96	1
143	144	145	1
208	231	245	1
191	194	379	1
140	143	144	1
169	171	368	1
271	273	297	1
167	169	246	1
72	73	311	1
37	38	341	1
257	275	317	1
231	245	330	1
93	340	456	1
197	226	235	1
287	375	429	1
253	277	304	1
185	186	205	1
231	330	386	1
171	173	174	1
212	234	375	1
185	205	227	1
135	372	373	1
231	386	411	1
356	358	359	1
234	286	287	1
129	373	393	1
158	212	410	1
185	227	384	1
252	370	420	1
234	287	375	1
264	265	266	1
15	16	318	1
144	146	187	1
178	380	391	1
171	172	173	1
174	200	201	1
217	267	281	1
146	187	384	1
263	313	391	1
319	320	321	1
169	246	368	1
138	139	140	1
178	196	197	1
179	203	222	1
146	147	185	1
263	264	265	1
143	145	230	1
227	253	277	1
173	174	184	1
174	184	200	1
227	278	384	1
190	377	378	1
236	263	391	1
145	146	147	1
10	11	87	1
135	136	138	1
149	190	377	1
162	164	165	1
173	184	390	1
145	230	381	1
184	249	390	1
205	227	253	1
184	200	207	1
147	185	186	1
200	207	258	1
152	176	394	1
372	373	423	1
160	162	392	1
267	281	282	1
163	167	413	1
149	189	190	1
169	170	171	1
146	185	384	1
250	291	303	1
148	188	198	1
212	233	234	1
190	191	379	1
277	278	307	1
234	285	286	1
150	394	402	1
179	222	390	1
270	284	299	1
191	193	194	1
144	187	376	1
142	149	377	1
207	249	250	1
279	394	402	1
158	183	212	1
119	199	248	1
249	250	291	1
219	269	270	1
139	142	397	1
12	13	101	1
272	295	300	1
204	240	241	1
313	380	391	1
265	266	323	1
162	165	392	1
160	232	392	1
114	175	401	1
181	425	430	1
159	252	406	1
187	384	412	1
172	173	179	1
189	190	191	1
116	118	119	1
31	32	102	1
31	102	385	1
215	223	271	1
125	126	393	1
152	154	176	1
30	31	385	1
184	207	249	1
164	165	195	1
30	88	385	1
126	129	393	1
29	30	88	1
126	128	129	1
122	124	125	1
167	168	169	1
119	248	401	1
165	247	392	1
227	277	278	1
131	134	135	1
67	68	85	1
218	219	269	1
208	245	403	1
293	294	296	1
270	283	284	1
112	114	175	1
114	116	401	1
173	179	390	1
241	293	294	1
208	209	231	1
197	236	391	1
112	113	114	1
170	171	172	1
140	144	376	1
183	212	233	1
121	123	150	1
119	120	199	1
150	151	152	1
240	241	293	1
233	234	285	1
219	270	283	1
165	195	213	1
128	129	130	1
145	147	381	1
105	336	337	1
190	378	379	1
165	213	247	1
124	125	126	1
211	229	411	1
213	247	400	1
325	326	367	1
28	29	387	1
68	69	389	1
188	198	255	1
213	219	400	1
29	88	387	1
275	308	405	1
150	152	394	1
136	139	397	1
68	85	389	1
142	377	397	1
287	429	434	1
158	182	183	1
123	150	151	1
156	177	178	1
118	119	120	1
217	281	414	1
198	257	374	1
182	183	204	1
213	218	219	1
263	265	313	1
133	137	159	1
122	125	399	1
199	248	324	1
159	161	252	1
126	127	128	1
48	49	86	1
195	213	218	1
204	241	396	1
151	152	153	1
193	202	215	1
137	160	232	1
128	130	132	1
124	126	127	1
120	121	122	1
69	70	103	1
122	123	124	1
115	117	214	1
121	150	402	1
117	214	279	1
155	157	158	1
229	260	411	1
49	50	395	1
149	188	189	1
137	159	160	1
118	120	121	1
50	51	104	1
121	122	123	1
324	325	326	1
140	141	376	1
116	119	401	1
151	153	251	1
160	161	162	1
162	163	164	1
199	324	325	1
133	134	137	1
142	148	149	1
114	115	116	1
125	393	415	1
278	384	412	1
66	67	388	1
129	130	131	1
204	220	240	1
183	204	396	1
134	135	136	1
168	169	170	1
117	279	402	1
157	158	182	1
249	291	404	1
120	199	399	1
67	85	388	1
217	237	267	1
117	118	402	1
69	103	389	1
163	166	167	1
219	283	400	1
183	233	396	1
252	406	420	1
116	117	118	1
256	274	276	1
113	114	115	1
125	399	415	1
118	121	402	1
382	386	422	1
124	127	398	1
195	218	254	1
318	319	320	1
120	122	399	1
130	131	133	1
123	151	398	1
136	138	139	1
123	124	398	1
166	167	168	1
226	235	243	1
199	325	399	1
222	390	404	1
249	390	404	1
179	180	203	1
196	197	226	1
139	140	141	1
232	418	424	1
210	211	225	1
147	186	403	1
206	209	210	1
159	160	161	1
167	246	413	1
191	192	193	1
49	86	395	1
153	154	155	1
205	253	409	1
266	323	443	1
151	251	398	1
225	228	242	1
247	428	436	1
203	216	224	1
257	317	374	1
152	153	154	1
186	205	206	1
186	208	403	1
177	178	196	1
255	256	383	1
50	104	395	1
131	133	134	1
141	142	148	1
115	116	117	1
182	204	220	1
325	399	415	1
132	406	420	1
260	386	411	1
377	378	424	1
139	141	142	1
148	149	188	1
137	232	418	1
325	367	415	1
166	168	181	1
147	381	403	1
155	158	410	1
161	162	163	1
281	425	430	1
133	159	406	1
155	156	157	1
130	132	406	1
237	267	298	1
172	179	180	1
189	191	192	1
130	133	406	1
229	244	259	1
220	268	280	1
26	27	99	1
337	338	339	1
164	195	407	1
180	216	217	1
223	271	272	1
186	206	208	1
163	164	166	1
200	258	431	1
154	155	156	1
153	155	410	1
220	240	268	1
330	382	386	1
153	251	410	1
202	215	223	1
170	172	414	1
237	298	301	1
273	366	437	1
188	189	408	1
369	370	444	1
216	217	237	1
7	8	100	1
166	181	407	1
192	202	221	1
157	182	416	1
256	276	383	1
180	203	216	1
134	137	418	1
397	418	424	1
136	397	418	1
268	280	305	1
156	157	177	1
240	293	417	1
247	392	428	1
220	280	416	1
195	254	407	1
206	210	409	1
393	415	423	1
206	208	209	1
164	166	407	1
205	206	409	1
192	193	202	1
196	226	239	1
369	444	447	1
134	136	418	1
209	210	211	1
189	192	408	1
188	255	408	1
172	180	414	1
281	414	425	1
211	228	229	1
182	220	416	1
251	375	429	1
192	221	408	1
367	415	423	1
45	46	93	1
112	175	435	1
180	217	414	1
168	181	425	1
240	268	417	1
216	224	419	1
128	132	434	1
211	225	228	1
228	229	244	1
272	292	295	1
373	393	423	1
157	177	416	1
289	422	435	1
64	65	94	1
378	428	436	1
168	170	425	1
201	369	447	1
244	288	309	1
223	272	292	1
237	301	419	1
377	397	424	1
268	305	306	1
315	442	443	1
170	414	425	1
251	398	429	1
281	282	430	1
200	201	431	1
244	259	288	1
216	237	419	1
127	398	429	1
232	392	428	1
260	386	422	1
132	434	441	1
105	337	338	1
175	422	435	1
202	221	421	1
258	431	445	1
378	424	428	1
196	239	432	1
127	429	434	1
280	416	432	1
228	242	427	1
268	306	417	1
177	416	432	1
255	408	433	1
86	446	448	1
127	128	434	1
202	223	421	1
250	303	451	1
177	196	432	1
194	366	440	1
294	449	450	1
244	309	427	1
232	424	428	1
273	302	437	1
239	432	438	1
286	287	441	1
255	383	433	1
223	292	421	1
247	400	436	1
111	112	435	1
378	379	436	1
194	379	439	1
280	432	438	1
214	323	443	1
221	408	433	1
400	436	439	1
228	244	427	1
287	434	441	1
379	436	439	1
283	400	439	1
280	305	438	1
194	439	440	1
258	445	449	1
283	439	440	1
283	284	440	1
132	420	441	1
262	264	448	1
233	285	445	1
104	315	442	1
241	294	449	1
285	431	445	1
207	250	450	1
89	455	457	1
214	426	443	1
48	86	452	1
104	395	442	1
286	444	447	1
258	449	450	1
315	426	443	1
286	441	444	1
395	442	446	1
264	266	446	1
233	396	445	1
370	420	444	1
285	286	447	1
250	450	451	1
86	395	446	1
266	442	446	1
46	93	454	1
420	441	444	1
340	456	459	1
396	445	449	1
56	57	457	1
262	290	448	1
241	396	449	1
259	288	455	1
207	258	450	1
243	459	460	1
294	296	451	1
111	310	453	1
86	448	452	1
47	48	452	1
235	243	459	1
288	309	458	1
47	452	454	1
294	450	451	1
290	452	454	1
46	47	454	1
289	453	455	1
337	339	460	1
93	454	456	1
290	448	452	1
259	289	455	1
111	435	453	1
56	89	457	1
261	290	456	1
289	435	453	1
57	457	458	1
261	456	459	1
288	457	458	1
290	454	456	1
340	459	460	1
235	261	459	1
337	340	460	1
353	388	483	1
305	480	512	1
307	485	513	1
343	344	478	1
34	35	461	1
322	329	464	1
18	92	463	1
20	96	462	1
319	321	465	1
267	298	466	1
11	87	468	1
12	101	468	1
254	407	467	1
302	437	469	1
181	430	467	1
10	87	470	1
271	297	472	1
8	100	471	1
272	300	472	1
284	299	469	1
7	100	473	1
419	508	509	1
224	507	508	1
224	419	508	1
301	419	509	1
282	430	506	1
282	503	506	1
345	347	475	1
60	61	475	1
5	6	476	1
34	84	461	1
19	20	462	1
19	462	463	1
101	329	464	1
18	19	463	1
319	322	465	1
267	282	466	1
181	407	467	1
11	12	468	1
284	437	469	1
9	10	470	1
9	470	471	1
8	9	471	1
271	272	472	1
6	7	473	1
95	364	477	1
101	464	505	1
322	465	504	1
282	466	503	1
91	480	512	1
226	243	478	1
362	363	497	1
221	421	479	1
362	497	498	1
95	335	510	1
360	362	507	1
35	461	486	1
94	351	494	1
99	361	495	1
341	344	480	1
305	438	480	1
291	404	474	1
90	332	481	1
82	311	487	1
102	328	488	1
107	476	484	1
60	345	475	1
333	364	477	1
277	304	485	1
306	461	486	1
36	91	486	1
96	462	509	1
274	276	487	1
303	451	488	1
63	106	489	1
40	98	490	1
64	94	489	1
26	99	491	1
6	473	476	1
307	405	492	1
293	417	493	1
66	388	494	1
65	94	494	1
28	387	495	1
27	99	495	1
103	389	485	1
304	354	483	1
243	460	496	1
301	462	509	1
203	224	498	1
1	80	500	1
1	5	500	1
2	23	502	1
2	24	502	1
108	357	502	1
3	43	499	1
3	42	499	1
4	61	501	1
4	62	501	1
105	338	499	1
92	327	503	1
269	270	505	1
218	254	504	1
107	335	484	1
291	303	482	1
276	383	481	1
226	239	478	1
92	466	503	1
269	464	505	1
254	465	504	1
221	433	479	1
85	388	483	1
404	474	497	1
363	474	497	1
91	341	480	1
90	312	481	1
88	385	482	1
291	474	482	1
353	354	483	1
292	421	511	1
41	338	490	1
25	357	491	1
295	300	484	1
277	307	485	1
35	36	486	1
292	295	510	1
274	308	487	1
296	451	488	1
292	477	511	1
63	64	489	1
25	26	491	1
338	339	490	1
40	41	490	1
357	358	491	1
308	405	492	1
293	296	493	1
65	66	494	1
27	28	495	1
421	479	511	1
339	460	496	1
292	477	510	1
61	475	501	1
5	476	500	1
307	492	513	1
222	404	497	1
222	497	498	1
203	222	498	1
80	107	500	1
23	108	502	1
43	105	499	1
62	106	501	1
320	327	503	1
218	269	504	1
270	299	505	1
91	486	512	1
320	503	506	1
320	321	506	1
359	360	507	1
359	371	508	1
371	508	509	1
359	507	508	1
96	371	509	1
95	477	510	1
305	306	512	1
103	316	513	1
106	475	501	1
107	476	500	1
333	479	511	1
333	477	511	1
306	486	512	1
316	492	513	1


End