MeshVersionFormatted 3

Dimension
3

Vertices
544
0	0	1		1
0	0	0		1
0	1	1		1
0	1	0		1
1	0	1		1
1	0	0		1
1	1	1		1
1	1	0		1
0	0	1		1
0	0	0		1
0	1	1		1
0	1	0		1
1	0	1		1
1	0	0		1
1	1	1		1
1	1	0		1
0	0	0.166667		1
0	0	0.333333		1
0	0	0.5		1
0	0	0.666667		1
0	0	0.833333		1
0	0.166667	1		1
0	0.333333	1		1
0	0.5	1		1
0	0.666667	1		1
0	0.833333	1		1
0	1	0.166667		1
0	1	0.333333		1
0	1	0.5		1
0	1	0.666667		1
0	1	0.833333		1
0	0.166667	0		1
0	0.333333	0		1
0	0.5	0		1
0	0.666667	0		1
0	0.833333	0		1
1	0	0.166667		1
1	0	0.333333		1
1	0	0.5		1
1	0	0.666667		1
1	0	0.833333		1
1	0.166667	1		1
1	0.333333	1		1
1	0.5	1		1
1	0.666667	1		1
1	0.833333	1		1
1	1	0.166667		1
1	1	0.333333		1
1	1	0.5		1
1	1	0.666667		1
1	1	0.833333		1
1	0.166667	0		1
1	0.333333	0		1
1	0.5	0		1
1	0.666667	0		1
1	0.833333	0		1
0.166667	0	0		1
0.333333	0	0		1
0.5	0	0		1
0.666667	0	0		1
0.833333	0	0		1
0.166667	0	1		1
0.333333	0	1		1
0.5	0	1		1
0.666667	0	1		1
0.833333	0	1		1
0.166667	1	0		1
0.333333	1	0		1
0.5	1	0		1
0.666667	1	0		1
0.833333	1	0		1
0.166667	1	1		1
0.333333	1	1		1
0.5	1	1		1
0.666667	1	1		1
0.833333	1	1		1
0	0	0.166667		1
0	0	0.333333		1
0	0	0.5		1
0	0	0.666667		1
0	0	0.833333		1
0	0.166667	1		1
0	0.333333	1		1
0	0.5	1		1
0	0.666667	1		1
0	0.833333	1		1
0	1	0.166667		1
0	1	0.333333		1
0	1	0.5		1
0	1	0.666667		1
0	1	0.833333		1
0	0.166667	0		1
0	0.333333	0		1
0	0.5	0		1
0	0.666667	0		1
0	0.833333	0		1
1	0	0.166667		1
1	0	0.333333		1
1	0	0.5		1
1	0	0.666667		1
1	0	0.833333		1
1	0.166667	1		1
1	0.333333	1		1
1	0.5	1		1
1	0.666667	1		1
1	0.833333	1		1
1	1	0.166667		1
1	1	0.333333		1
1	1	0.5		1
1	1	0.666667		1
1	1	0.833333		1
1	0.166667	0		1
1	0.333333	0		1
1	0.5	0		1
1	0.666667	0		1
1	0.833333	0		1
0.166667	0	0		1
0.333333	0	0		1
0.5	0	0		1
0.666667	0	0		1
0.833333	0	0		1
0.166667	0	1		1
0.333333	0	1		1
0.5	0	1		1
0.666667	0	1		1
0.833333	0	1		1
0.166667	1	0		1
0.333333	1	0		1
0.5	1	0		1
0.666667	1	0		1
0.833333	1	0		1
0.166667	1	1		1
0.333333	1	1		1
0.5	1	1		1
0.666667	1	1		1
0.833333	1	1		1
0	0.583333	0.855662		1
0	0.581511	0.150843		1
0	0.149383	0.597788		1
0	0.850617	0.597788		1
0	0.13563	0.24588		1
0	0.861162	0.247706		1
0	0.250706	0.858871		1
0	0.749294	0.858871		1
0	0.692565	0.697529		1
0	0.504316	0.709026		1
0	0.583333	0.566987		1
0	0.42222	0.563813		1
0	0.500926	0.425064		1
0	0.666667	0.42265		1
0	0.340091	0.42137		1
0	0.440466	0.283571		1
0	0.308845	0.696747		1
0	0.168785	0.420391		1
0	0.413422	0.853384		1
0	0.831801	0.420921		1
0	0.861355	0.751496		1
0	0.138813	0.751403		1
0	0.752883	0.136949		1
0	0.241807	0.131307		1
0	0.405995	0.135163		1
0	0.582548	0.315372		1
0	0.283208	0.283319		1
0	0.712762	0.282407		1
0	0.720994	0.55024		1
0	0.277865	0.540022		1
0	0.877992	0.877992		1
0	0.122008	0.877992		1
0	0.877992	0.122008		1
0	0.12116	0.12116		1
1	0.583333	0.855662		1
1	0.581511	0.150843		1
1	0.149383	0.597788		1
1	0.850617	0.597788		1
1	0.13563	0.24588		1
1	0.861162	0.247706		1
1	0.250706	0.858871		1
1	0.749294	0.858871		1
1	0.692565	0.697529		1
1	0.504316	0.709026		1
1	0.583333	0.566987		1
1	0.42222	0.563813		1
1	0.500926	0.425064		1
1	0.666667	0.42265		1
1	0.340091	0.42137		1
1	0.440466	0.283571		1
1	0.308845	0.696747		1
1	0.168785	0.420391		1
1	0.413422	0.853384		1
1	0.831801	0.420921		1
1	0.861355	0.751496		1
1	0.138813	0.751403		1
1	0.752883	0.136949		1
1	0.241807	0.131307		1
1	0.405995	0.135163		1
1	0.582548	0.315372		1
1	0.283208	0.283319		1
1	0.712762	0.282407		1
1	0.720994	0.55024		1
1	0.277865	0.540022		1
1	0.877992	0.877992		1
1	0.122008	0.877992		1
1	0.877992	0.122008		1
1	0.12116	0.12116		1
0.855662	0	0.583333		1
0.150843	0	0.581511		1
0.597788	0	0.149383		1
0.597788	0	0.850617		1
0.151308	0	0.262374		1
0.247706	0	0.861162		1
0.858871	0	0.250706		1
0.858871	0	0.749294		1
0.697529	0	0.692565		1
0.709026	0	0.504316		1
0.566987	0	0.583333		1
0.563813	0	0.42222		1
0.425064	0	0.500926		1
0.421266	0	0.339911		1
0.42265	0	0.666667		1
0.272222	0	0.4199		1
0.696747	0	0.308845		1
0.853384	0	0.413422		1
0.422043	0	0.169175		1
0.420921	0	0.831801		1
0.751496	0	0.861355		1
0.751403	0	0.138813		1
0.136949	0	0.752883		1
0.255562	0	0.139278		1
0.313102	0	0.578434		1
0.114875	0	0.419424		1
0.30448	0	0.266128		1
0.282029	0	0.712076		1
0.55024	0	0.720994		1
0.540331	0	0.277907		1
0.877992	0	0.877992		1
0.122008	0	0.122008		1
0.877992	0	0.122008		1
0.122008	0	0.877992		1
0.855662	1	0.583333		1
0.150843	1	0.581511		1
0.597788	1	0.149383		1
0.597788	1	0.850617		1
0.24588	1	0.13563		1
0.247706	1	0.861162		1
0.858871	1	0.250706		1
0.858871	1	0.749294		1
0.697529	1	0.692565		1
0.709026	1	0.504316		1
0.566987	1	0.583333		1
0.563813	1	0.42222		1
0.425064	1	0.500926		1
0.42265	1	0.666667		1
0.42137	1	0.340091		1
0.283571	1	0.440466		1
0.696747	1	0.308845		1
0.853384	1	0.413422		1
0.420391	1	0.168785		1
0.420921	1	0.831801		1
0.751496	1	0.861355		1
0.751403	1	0.138813		1
0.136949	1	0.752883		1
0.131307	1	0.241807		1
0.135163	1	0.405995		1
0.315372	1	0.582548		1
0.283319	1	0.283208		1
0.282407	1	0.712762		1
0.55024	1	0.720994		1
0.540022	1	0.277865		1
0.877992	1	0.877992		1
0.877992	1	0.122008		1
0.122008	1	0.877992		1
0.12116	1	0.12116		1
0.597788	0.850617	0		1
0.597788	0.149383	0		1
0.150843	0.581511	0		1
0.855662	0.583333	0		1
0.151308	0.262374	0		1
0.858871	0.250706	0		1
0.247706	0.861162	0		1
0.858871	0.749294	0		1
0.697529	0.692565	0		1
0.709026	0.504316	0		1
0.566987	0.583333	0		1
0.563813	0.42222	0		1
0.425064	0.500926	0		1
0.421266	0.339911	0		1
0.42265	0.666667	0		1
0.272222	0.4199	0		1
0.855814	0.417504	0		1
0.420921	0.831801	0		1
0.422043	0.169175	0		1
0.696768	0.308965	0		1
0.751496	0.861355	0		1
0.136949	0.752883	0		1
0.751405	0.138827	0		1
0.255562	0.139278	0		1
0.313102	0.578434	0		1
0.114875	0.419424	0		1
0.30448	0.266128	0		1
0.282029	0.712076	0		1
0.55024	0.720994	0		1
0.540336	0.277931	0		1
0.877992	0.877992	0		1
0.122008	0.122008	0		1
0.122008	0.877992	0		1
0.877992	0.122008	0		1
0.597788	0.850617	1		1
0.597788	0.149383	1		1
0.150843	0.581511	1		1
0.855662	0.583333	1		1
0.151308	0.262374	1		1
0.858871	0.250706	1		1
0.247706	0.861162	1		1
0.858871	0.749294	1		1
0.697529	0.692565	1		1
0.709026	0.504316	1		1
0.566987	0.583333	1		1
0.563813	0.42222	1		1
0.425064	0.500926	1		1
0.421266	0.339911	1		1
0.42265	0.666667	1		1
0.272222	0.4199	1		1
0.855814	0.417504	1		1
0.420921	0.831801	1		1
0.422043	0.169175	1		1
0.696768	0.308965	1		1
0.751496	0.861355	1		1
0.136949	0.752883	1		1
0.751405	0.138827	1		1
0.255562	0.139278	1		1
0.313102	0.578434	1		1
0.114875	0.419424	1		1
0.30448	0.266128	1		1
0.282029	0.712076	1		1
0.55024	0.720994	1		1
0.540336	0.277931	1		1
0.877992	0.877992	1		1
0.122008	0.122008	1		1
0.122008	0.877992	1		1
0.877992	0.122008	1		1
0	0.583333	0.855662		1
0	0.581511	0.150843		1
0	0.149383	0.597788		1
0	0.850617	0.597788		1
0	0.13563	0.24588		1
0	0.861162	0.247706		1
0	0.250706	0.858871		1
0	0.749294	0.858871		1
0	0.692565	0.697529		1
0	0.504316	0.709026		1
0	0.583333	0.566987		1
0	0.42222	0.563813		1
0	0.500926	0.425064		1
0	0.666667	0.42265		1
0	0.340091	0.42137		1
0	0.440466	0.283571		1
0	0.308845	0.696747		1
0	0.168785	0.420391		1
0	0.413422	0.853384		1
0	0.831801	0.420921		1
0	0.861355	0.751496		1
0	0.138813	0.751403		1
0	0.752883	0.136949		1
0	0.241807	0.131307		1
0	0.405995	0.135163		1
0	0.582548	0.315372		1
0	0.283208	0.283319		1
0	0.712762	0.282407		1
0	0.720994	0.55024		1
0	0.277865	0.540022		1
0	0.877992	0.877992		1
0	0.122008	0.877992		1
0	0.877992	0.122008		1
0	0.12116	0.12116		1
1	0.583333	0.855662		1
1	0.581511	0.150843		1
1	0.149383	0.597788		1
1	0.850617	0.597788		1
1	0.13563	0.24588		1
1	0.861162	0.247706		1
1	0.250706	0.858871		1
1	0.749294	0.858871		1
1	0.692565	0.697529		1
1	0.504316	0.709026		1
1	0.583333	0.566987		1
1	0.42222	0.563813		1
1	0.500926	0.425064		1
1	0.666667	0.42265		1
1	0.340091	0.42137		1
1	0.440466	0.283571		1
1	0.308845	0.696747		1
1	0.168785	0.420391		1
1	0.413422	0.853384		1
1	0.831801	0.420921		1
1	0.861355	0.751496		1
1	0.138813	0.751403		1
1	0.752883	0.136949		1
1	0.241807	0.131307		1
1	0.405995	0.135163		1
1	0.582548	0.315372		1
1	0.283208	0.283319		1
1	0.712762	0.282407		1
1	0.720994	0.55024		1
1	0.277865	0.540022		1
1	0.877992	0.877992		1
1	0.122008	0.877992		1
1	0.877992	0.122008		1
1	0.12116	0.12116		1
0.855662	0	0.583333		1
0.150843	0	0.581511		1
0.597788	0	0.149383		1
0.597788	0	0.850617		1
0.151308	0	0.262374		1
0.247706	0	0.861162		1
0.858871	0	0.250706		1
0.858871	0	0.749294		1
0.697529	0	0.692565		1
0.709026	0	0.504316		1
0.566987	0	0.583333		1
0.563813	0	0.42222		1
0.425064	0	0.500926		1
0.421266	0	0.339911		1
0.42265	0	0.666667		1
0.272222	0	0.4199		1
0.696747	0	0.308845		1
0.853384	0	0.413422		1
0.422043	0	0.169175		1
0.420921	0	0.831801		1
0.751496	0	0.861355		1
0.751403	0	0.138813		1
0.136949	0	0.752883		1
0.255562	0	0.139278		1
0.313102	0	0.578434		1
0.114875	0	0.419424		1
0.30448	0	0.266128		1
0.282029	0	0.712076		1
0.55024	0	0.720994		1
0.540331	0	0.277907		1
0.877992	0	0.877992		1
0.122008	0	0.122008		1
0.877992	0	0.122008		1
0.122008	0	0.877992		1
0.855662	1	0.583333		1
0.150843	1	0.581511		1
0.597788	1	0.149383		1
0.597788	1	0.850617		1
0.24588	1	0.13563		1
0.247706	1	0.861162		1
0.858871	1	0.250706		1
0.858871	1	0.749294		1
0.697529	1	0.692565		1
0.709026	1	0.504316		1
0.566987	1	0.583333		1
0.563813	1	0.42222		1
0.425064	1	0.500926		1
0.42265	1	0.666667		1
0.42137	1	0.340091		1
0.283571	1	0.440466		1
0.696747	1	0.308845		1
0.853384	1	0.413422		1
0.420391	1	0.168785		1
0.420921	1	0.831801		1
0.751496	1	0.861355		1
0.751403	1	0.138813		1
0.136949	1	0.752883		1
0.131307	1	0.241807		1
0.135163	1	0.405995		1
0.315372	1	0.582548		1
0.283319	1	0.283208		1
0.282407	1	0.712762		1
0.55024	1	0.720994		1
0.540022	1	0.277865		1
0.877992	1	0.877992		1
0.877992	1	0.122008		1
0.122008	1	0.877992		1
0.12116	1	0.12116		1
0.597788	0.850617	0		1
0.597788	0.149383	0		1
0.150843	0.581511	0		1
0.855662	0.583333	0		1
0.151308	0.262374	0		1
0.858871	0.250706	0		1
0.247706	0.861162	0		1
0.858871	0.749294	0		1
0.697529	0.692565	0		1
0.709026	0.504316	0		1
0.566987	0.583333	0		1
0.563813	0.42222	0		1
0.425064	0.500926	0		1
0.421266	0.339911	0		1
0.42265	0.666667	0		1
0.272222	0.4199	0		1
0.420921	0.831801	0		1
0.855814	0.417504	0		1
0.422043	0.169175	0		1
0.696768	0.308965	0		1
0.751496	0.861355	0		1
0.751405	0.138827	0		1
0.136949	0.752883	0		1
0.255562	0.139278	0		1
0.313102	0.578434	0		1
0.114875	0.419424	0		1
0.30448	0.266128	0		1
0.282029	0.712076	0		1
0.55024	0.720994	0		1
0.540336	0.277931	0		1
0.877992	0.877992	0		1
0.122008	0.122008	0		1
0.122008	0.877992	0		1
0.877992	0.122008	0		1
0.597788	0.850617	1		1
0.597788	0.149383	1		1
0.150843	0.581511	1		1
0.855662	0.583333	1		1
0.151308	0.262374	1		1
0.858871	0.250706	1		1
0.247706	0.861162	1		1
0.858871	0.749294	1		1
0.697529	0.692565	1		1
0.709026	0.504316	1		1
0.566987	0.583333	1		1
0.563813	0.42222	1		1
0.425064	0.500926	1		1
0.421266	0.339911	1		1
0.42265	0.666667	1		1
0.272222	0.4199	1		1
0.855814	0.417504	1		1
0.420921	0.831801	1		1
0.422043	0.169175	1		1
0.696768	0.308965	1		1
0.751496	0.861355	1		1
0.136949	0.752883	1		1
0.751405	0.138827	1		1
0.255562	0.139278	1		1
0.313102	0.578434	1		1
0.114875	0.419424	1		1
0.30448	0.266128	1		1
0.282029	0.712076	1		1
0.55024	0.720994	1		1
0.540336	0.277931	1		1
0.877992	0.877992	1		1
0.122008	0.122008	1		1
0.122008	0.877992	1		1
0.877992	0.122008	1		1

Triangles
1080
1	21	168	1
1	21	238	1
1	22	168	1
1	22	338	1
1	62	238	1
1	62	338	1
2	17	170	1
2	17	236	1
2	32	170	1
2	32	304	1
2	57	236	1
2	57	304	1
3	26	167	1
3	26	339	1
3	31	167	1
3	31	271	1
3	72	271	1
3	72	339	1
4	27	169	1
4	27	272	1
4	36	169	1
4	36	305	1
4	67	272	1
4	67	305	1
5	41	202	1
5	41	235	1
5	42	202	1
5	42	340	1
5	66	235	1
5	66	340	1
6	37	204	1
6	37	237	1
6	52	204	1
6	52	306	1
6	61	237	1
6	61	306	1
7	46	201	1
7	46	337	1
7	51	201	1
7	51	269	1
7	76	269	1
7	76	337	1
8	47	203	1
8	47	270	1
8	56	203	1
8	56	303	1
8	71	270	1
8	71	303	1
9	81	372	1
9	81	442	1
9	82	372	1
9	82	542	1
9	122	442	1
9	122	542	1
10	77	374	1
10	77	440	1
10	92	374	1
10	92	508	1
10	117	440	1
10	117	508	1
11	86	371	1
11	86	543	1
11	91	371	1
11	91	475	1
11	132	475	1
11	132	543	1
12	87	373	1
12	87	476	1
12	96	373	1
12	96	509	1
12	127	476	1
12	127	509	1
13	101	406	1
13	101	439	1
13	102	406	1
13	102	544	1
13	126	439	1
13	126	544	1
14	97	408	1
14	97	441	1
14	112	408	1
14	112	510	1
14	121	441	1
14	121	510	1
15	106	405	1
15	106	541	1
15	111	405	1
15	111	473	1
15	136	473	1
15	136	541	1
16	107	407	1
16	107	474	1
16	116	407	1
16	116	507	1
16	131	474	1
16	131	507	1
17	18	141	1
17	18	209	1
17	141	170	1
17	209	236	1
18	19	154	1
18	19	230	1
18	141	154	1
18	209	230	1
19	20	139	1
19	20	206	1
19	139	154	1
19	206	230	1
20	21	158	1
20	21	227	1
20	139	158	1
20	206	227	1
21	158	168	1
21	227	238	1
22	23	143	1
22	23	311	1
22	143	168	1
22	311	338	1
23	24	155	1
23	24	332	1
23	143	155	1
23	311	332	1
24	25	137	1
24	25	309	1
24	137	155	1
24	309	332	1
25	26	144	1
25	26	328	1
25	137	144	1
25	309	328	1
26	144	167	1
26	328	339	1
27	28	142	1
27	28	262	1
27	142	169	1
27	262	272	1
28	29	156	1
28	29	263	1
28	142	156	1
28	262	263	1
29	30	140	1
29	30	240	1
29	140	156	1
29	240	263	1
30	31	157	1
30	31	261	1
30	140	157	1
30	240	261	1
31	157	167	1
31	261	271	1
32	33	160	1
32	33	277	1
32	160	170	1
32	277	304	1
33	34	161	1
33	34	298	1
33	160	161	1
33	277	298	1
34	35	138	1
34	35	275	1
34	138	161	1
34	275	298	1
35	36	159	1
35	36	294	1
35	138	159	1
35	275	294	1
36	159	169	1
36	294	305	1
37	38	175	1
37	38	211	1
37	175	204	1
37	211	237	1
38	39	188	1
38	39	222	1
38	175	188	1
38	211	222	1
39	40	173	1
39	40	205	1
39	173	188	1
39	205	222	1
40	41	192	1
40	41	212	1
40	173	192	1
40	205	212	1
41	192	202	1
41	212	235	1
42	43	177	1
42	43	312	1
42	177	202	1
42	312	340	1
43	44	189	1
43	44	323	1
43	177	189	1
43	312	323	1
44	45	171	1
44	45	310	1
44	171	189	1
44	310	323	1
45	46	178	1
45	46	314	1
45	171	178	1
45	310	314	1
46	178	201	1
46	314	337	1
47	48	176	1
47	48	245	1
47	176	203	1
47	245	270	1
48	49	190	1
48	49	256	1
48	176	190	1
48	245	256	1
49	50	174	1
49	50	239	1
49	174	190	1
49	239	256	1
50	51	191	1
50	51	246	1
50	174	191	1
50	239	246	1
51	191	201	1
51	246	269	1
52	53	194	1
52	53	278	1
52	194	204	1
52	278	306	1
53	54	195	1
53	54	289	1
53	194	195	1
53	278	289	1
54	55	172	1
54	55	276	1
54	172	195	1
54	276	289	1
55	56	193	1
55	56	280	1
55	172	193	1
55	276	280	1
56	193	203	1
56	280	303	1
57	58	228	1
57	58	296	1
57	228	236	1
57	296	304	1
58	59	223	1
58	59	291	1
58	223	228	1
58	291	296	1
59	60	207	1
59	60	274	1
59	207	223	1
59	274	291	1
60	61	226	1
60	61	295	1
60	207	226	1
60	274	295	1
61	226	237	1
61	295	306	1
62	63	210	1
62	63	330	1
62	210	238	1
62	330	338	1
63	64	224	1
63	64	325	1
63	210	224	1
63	325	330	1
64	65	208	1
64	65	308	1
64	208	224	1
64	308	325	1
65	66	225	1
65	66	329	1
65	208	225	1
65	308	329	1
66	225	235	1
66	329	340	1
67	68	243	1
67	68	279	1
67	243	272	1
67	279	305	1
68	69	257	1
68	69	290	1
68	243	257	1
68	279	290	1
69	70	241	1
69	70	273	1
69	241	257	1
69	273	290	1
70	71	260	1
70	71	293	1
70	241	260	1
70	273	293	1
71	260	270	1
71	293	303	1
72	73	244	1
72	73	313	1
72	244	271	1
72	313	339	1
73	74	258	1
73	74	324	1
73	244	258	1
73	313	324	1
74	75	242	1
74	75	307	1
74	242	258	1
74	307	324	1
75	76	259	1
75	76	327	1
75	242	259	1
75	307	327	1
76	259	269	1
76	327	337	1
77	78	345	1
77	78	413	1
77	345	374	1
77	413	440	1
78	79	358	1
78	79	434	1
78	345	358	1
78	413	434	1
79	80	343	1
79	80	410	1
79	343	358	1
79	410	434	1
80	81	362	1
80	81	431	1
80	343	362	1
80	410	431	1
81	362	372	1
81	431	442	1
82	83	347	1
82	83	515	1
82	347	372	1
82	515	542	1
83	84	359	1
83	84	536	1
83	347	359	1
83	515	536	1
84	85	341	1
84	85	513	1
84	341	359	1
84	513	536	1
85	86	348	1
85	86	532	1
85	341	348	1
85	513	532	1
86	348	371	1
86	532	543	1
87	88	346	1
87	88	466	1
87	346	373	1
87	466	476	1
88	89	360	1
88	89	467	1
88	346	360	1
88	466	467	1
89	90	344	1
89	90	444	1
89	344	360	1
89	444	467	1
90	91	361	1
90	91	465	1
90	344	361	1
90	444	465	1
91	361	371	1
91	465	475	1
92	93	364	1
92	93	481	1
92	364	374	1
92	481	508	1
93	94	365	1
93	94	502	1
93	364	365	1
93	481	502	1
94	95	342	1
94	95	479	1
94	342	365	1
94	479	502	1
95	96	363	1
95	96	499	1
95	342	363	1
95	479	499	1
96	363	373	1
96	499	509	1
97	98	379	1
97	98	415	1
97	379	408	1
97	415	441	1
98	99	392	1
98	99	426	1
98	379	392	1
98	415	426	1
99	100	377	1
99	100	409	1
99	377	392	1
99	409	426	1
100	101	396	1
100	101	416	1
100	377	396	1
100	409	416	1
101	396	406	1
101	416	439	1
102	103	381	1
102	103	516	1
102	381	406	1
102	516	544	1
103	104	393	1
103	104	527	1
103	381	393	1
103	516	527	1
104	105	375	1
104	105	514	1
104	375	393	1
104	514	527	1
105	106	382	1
105	106	518	1
105	375	382	1
105	514	518	1
106	382	405	1
106	518	541	1
107	108	380	1
107	108	449	1
107	380	407	1
107	449	474	1
108	109	394	1
108	109	460	1
108	380	394	1
108	449	460	1
109	110	378	1
109	110	443	1
109	378	394	1
109	443	460	1
110	111	395	1
110	111	450	1
110	378	395	1
110	443	450	1
111	395	405	1
111	450	473	1
112	113	398	1
112	113	482	1
112	398	408	1
112	482	510	1
113	114	399	1
113	114	494	1
113	398	399	1
113	482	494	1
114	115	376	1
114	115	480	1
114	376	399	1
114	480	494	1
115	116	397	1
115	116	484	1
115	376	397	1
115	480	484	1
116	397	407	1
116	484	507	1
117	118	432	1
117	118	500	1
117	432	440	1
117	500	508	1
118	119	427	1
118	119	495	1
118	427	432	1
118	495	500	1
119	120	411	1
119	120	478	1
119	411	427	1
119	478	495	1
120	121	430	1
120	121	498	1
120	411	430	1
120	478	498	1
121	430	441	1
121	498	510	1
122	123	414	1
122	123	534	1
122	414	442	1
122	534	542	1
123	124	428	1
123	124	529	1
123	414	428	1
123	529	534	1
124	125	412	1
124	125	512	1
124	412	428	1
124	512	529	1
125	126	429	1
125	126	533	1
125	412	429	1
125	512	533	1
126	429	439	1
126	533	544	1
127	128	447	1
127	128	483	1
127	447	476	1
127	483	509	1
128	129	461	1
128	129	493	1
128	447	461	1
128	483	493	1
129	130	445	1
129	130	477	1
129	445	461	1
129	477	493	1
130	131	464	1
130	131	497	1
130	445	464	1
130	477	497	1
131	464	474	1
131	497	507	1
132	133	448	1
132	133	517	1
132	448	475	1
132	517	543	1
133	134	462	1
133	134	528	1
133	448	462	1
133	517	528	1
134	135	446	1
134	135	511	1
134	446	462	1
134	511	528	1
135	136	463	1
135	136	531	1
135	446	463	1
135	511	531	1
136	463	473	1
136	531	541	1
137	144	145	1
137	145	146	1
137	146	155	1
138	152	161	1
138	152	162	1
138	159	164	1
138	162	164	1
139	153	158	1
139	153	166	1
139	154	166	1
140	145	157	1
140	145	165	1
140	156	165	1
141	154	163	1
141	160	163	1
141	160	170	1
142	156	164	1
142	159	164	1
142	159	169	1
143	153	155	1
143	153	158	1
143	158	168	1
144	145	157	1
144	157	167	1
145	146	147	1
145	147	165	1
146	147	148	1
146	148	153	1
146	153	155	1
147	148	149	1
147	149	150	1
147	150	165	1
148	149	151	1
148	151	166	1
148	153	166	1
149	150	162	1
149	151	152	1
149	152	162	1
150	156	164	1
150	156	165	1
150	162	164	1
151	152	163	1
151	154	163	1
151	154	166	1
152	161	163	1
160	161	163	1
171	178	179	1
171	179	180	1
171	180	189	1
172	186	195	1
172	186	196	1
172	193	198	1
172	196	198	1
173	187	192	1
173	187	200	1
173	188	200	1
174	179	191	1
174	179	199	1
174	190	199	1
175	188	197	1
175	194	197	1
175	194	204	1
176	190	198	1
176	193	198	1
176	193	203	1
177	187	189	1
177	187	192	1
177	192	202	1
178	179	191	1
178	191	201	1
179	180	181	1
179	181	199	1
180	181	182	1
180	182	187	1
180	187	189	1
181	182	183	1
181	183	184	1
181	184	199	1
182	183	185	1
182	185	200	1
182	187	200	1
183	184	196	1
183	185	186	1
183	186	196	1
184	190	198	1
184	190	199	1
184	196	198	1
185	186	197	1
185	188	197	1
185	188	200	1
186	195	197	1
194	195	197	1
205	212	213	1
205	213	214	1
205	214	222	1
206	220	229	1
206	220	230	1
206	227	232	1
206	229	232	1
207	221	226	1
207	221	234	1
207	223	234	1
208	213	225	1
208	213	233	1
208	224	233	1
209	220	230	1
209	220	231	1
209	228	231	1
209	228	236	1
210	224	232	1
210	227	232	1
210	227	238	1
211	221	222	1
211	221	226	1
211	226	237	1
212	213	225	1
212	225	235	1
213	214	215	1
213	215	233	1
214	215	216	1
214	216	221	1
214	221	222	1
215	216	217	1
215	217	219	1
215	219	233	1
216	217	218	1
216	218	234	1
216	221	234	1
217	218	220	1
217	219	229	1
217	220	229	1
218	220	231	1
218	223	231	1
218	223	234	1
219	224	232	1
219	224	233	1
219	229	232	1
223	228	231	1
239	246	247	1
239	247	248	1
239	248	256	1
240	254	263	1
240	254	264	1
240	261	266	1
240	264	266	1
241	255	260	1
241	255	268	1
241	257	268	1
242	247	259	1
242	247	267	1
242	258	267	1
243	257	265	1
243	262	265	1
243	262	272	1
244	258	266	1
244	261	266	1
244	261	271	1
245	255	256	1
245	255	260	1
245	260	270	1
246	247	259	1
246	259	269	1
247	248	249	1
247	249	267	1
248	249	250	1
248	250	255	1
248	255	256	1
249	250	251	1
249	251	252	1
249	252	267	1
250	251	253	1
250	253	268	1
250	255	268	1
251	252	264	1
251	253	254	1
251	254	264	1
252	258	266	1
252	258	267	1
252	264	266	1
253	254	265	1
253	257	265	1
253	257	268	1
254	263	265	1
262	263	265	1
273	281	293	1
273	281	301	1
273	290	301	1
274	291	302	1
274	292	295	1
274	292	302	1
275	288	297	1
275	288	298	1
275	294	300	1
275	297	300	1
276	280	281	1
276	281	282	1
276	282	289	1
277	288	298	1
277	288	299	1
277	296	299	1
277	296	304	1
278	289	292	1
278	292	295	1
278	295	306	1
279	290	300	1
279	294	300	1
279	294	305	1
280	281	293	1
280	293	303	1
281	282	283	1
281	283	301	1
282	283	284	1
282	284	292	1
282	289	292	1
283	284	285	1
283	285	287	1
283	287	301	1
284	285	286	1
284	286	302	1
284	292	302	1
285	286	288	1
285	287	297	1
285	288	297	1
286	288	299	1
286	291	299	1
286	291	302	1
287	290	300	1
287	290	301	1
287	297	300	1
291	296	299	1
307	315	327	1
307	315	335	1
307	324	335	1
308	325	336	1
308	326	329	1
308	326	336	1
309	322	331	1
309	322	332	1
309	328	334	1
309	331	334	1
310	314	315	1
310	315	316	1
310	316	323	1
311	322	332	1
311	322	333	1
311	330	333	1
311	330	338	1
312	323	326	1
312	326	329	1
312	329	340	1
313	324	334	1
313	328	334	1
313	328	339	1
314	315	327	1
314	327	337	1
315	316	317	1
315	317	335	1
316	317	318	1
316	318	326	1
316	323	326	1
317	318	319	1
317	319	321	1
317	321	335	1
318	319	320	1
318	320	336	1
318	326	336	1
319	320	322	1
319	321	331	1
319	322	331	1
320	322	333	1
320	325	333	1
320	325	336	1
321	324	334	1
321	324	335	1
321	331	334	1
325	330	333	1
341	348	349	1
341	349	350	1
341	350	359	1
342	356	365	1
342	356	366	1
342	363	368	1
342	366	368	1
343	357	362	1
343	357	370	1
343	358	370	1
344	349	361	1
344	349	369	1
344	360	369	1
345	358	367	1
345	364	367	1
345	364	374	1
346	360	368	1
346	363	368	1
346	363	373	1
347	357	359	1
347	357	362	1
347	362	372	1
348	349	361	1
348	361	371	1
349	350	351	1
349	351	369	1
350	351	352	1
350	352	357	1
350	357	359	1
351	352	353	1
351	353	354	1
351	354	369	1
352	353	355	1
352	355	370	1
352	357	370	1
353	354	366	1
353	355	356	1
353	356	366	1
354	360	368	1
354	360	369	1
354	366	368	1
355	356	367	1
355	358	367	1
355	358	370	1
356	365	367	1
364	365	367	1
375	382	383	1
375	383	384	1
375	384	393	1
376	390	399	1
376	390	400	1
376	397	402	1
376	400	402	1
377	391	396	1
377	391	404	1
377	392	404	1
378	383	395	1
378	383	403	1
378	394	403	1
379	392	401	1
379	398	401	1
379	398	408	1
380	394	402	1
380	397	402	1
380	397	407	1
381	391	393	1
381	391	396	1
381	396	406	1
382	383	395	1
382	395	405	1
383	384	385	1
383	385	403	1
384	385	386	1
384	386	391	1
384	391	393	1
385	386	387	1
385	387	388	1
385	388	403	1
386	387	389	1
386	389	404	1
386	391	404	1
387	388	400	1
387	389	390	1
387	390	400	1
388	394	402	1
388	394	403	1
388	400	402	1
389	390	401	1
389	392	401	1
389	392	404	1
390	399	401	1
398	399	401	1
409	416	417	1
409	417	418	1
409	418	426	1
410	424	433	1
410	424	434	1
410	431	436	1
410	433	436	1
411	425	430	1
411	425	438	1
411	427	438	1
412	417	429	1
412	417	437	1
412	428	437	1
413	424	434	1
413	424	435	1
413	432	435	1
413	432	440	1
414	428	436	1
414	431	436	1
414	431	442	1
415	425	426	1
415	425	430	1
415	430	441	1
416	417	429	1
416	429	439	1
417	418	419	1
417	419	437	1
418	419	420	1
418	420	425	1
418	425	426	1
419	420	421	1
419	421	423	1
419	423	437	1
420	421	422	1
420	422	438	1
420	425	438	1
421	422	424	1
421	423	433	1
421	424	433	1
422	424	435	1
422	427	435	1
422	427	438	1
423	428	436	1
423	428	437	1
423	433	436	1
427	432	435	1
443	450	451	1
443	451	452	1
443	452	460	1
444	458	467	1
444	458	468	1
444	465	470	1
444	468	470	1
445	459	464	1
445	459	472	1
445	461	472	1
446	451	463	1
446	451	471	1
446	462	471	1
447	461	469	1
447	466	469	1
447	466	476	1
448	462	470	1
448	465	470	1
448	465	475	1
449	459	460	1
449	459	464	1
449	464	474	1
450	451	463	1
450	463	473	1
451	452	453	1
451	453	471	1
452	453	454	1
452	454	459	1
452	459	460	1
453	454	455	1
453	455	456	1
453	456	471	1
454	455	457	1
454	457	472	1
454	459	472	1
455	456	468	1
455	457	458	1
455	458	468	1
456	462	470	1
456	462	471	1
456	468	470	1
457	458	469	1
457	461	469	1
457	461	472	1
458	467	469	1
466	467	469	1
477	485	497	1
477	485	505	1
477	493	505	1
478	495	506	1
478	496	498	1
478	496	506	1
479	492	501	1
479	492	502	1
479	499	504	1
479	501	504	1
480	484	485	1
480	485	486	1
480	486	494	1
481	492	502	1
481	492	503	1
481	500	503	1
481	500	508	1
482	494	496	1
482	496	498	1
482	498	510	1
483	493	504	1
483	499	504	1
483	499	509	1
484	485	497	1
484	497	507	1
485	486	487	1
485	487	505	1
486	487	488	1
486	488	496	1
486	494	496	1
487	488	489	1
487	489	491	1
487	491	505	1
488	489	490	1
488	490	506	1
488	496	506	1
489	490	492	1
489	491	501	1
489	492	501	1
490	492	503	1
490	495	503	1
490	495	506	1
491	493	504	1
491	493	505	1
491	501	504	1
495	500	503	1
511	519	531	1
511	519	539	1
511	528	539	1
512	529	540	1
512	530	533	1
512	530	540	1
513	526	535	1
513	526	536	1
513	532	538	1
513	535	538	1
514	518	519	1
514	519	520	1
514	520	527	1
515	526	536	1
515	526	537	1
515	534	537	1
515	534	542	1
516	527	530	1
516	530	533	1
516	533	544	1
517	528	538	1
517	532	538	1
517	532	543	1
518	519	531	1
518	531	541	1
519	520	521	1
519	521	539	1
520	521	522	1
520	522	530	1
520	527	530	1
521	522	523	1
521	523	525	1
521	525	539	1
522	523	524	1
522	524	540	1
522	530	540	1
523	524	526	1
523	525	535	1
523	526	535	1
524	526	537	1
524	529	537	1
524	529	540	1
525	528	538	1
525	528	539	1
525	535	538	1
529	534	537	1


End