MeshVersionFormatted 3

Dimension
3

Vertices
44
0	0	0		1
1	0	0		1
1	1	0		1
0	1	0		1
0.2	0	0		1
0.4	0	0		1
0.6	0	0		1
0.8	0	0		1
1	0.2	0		1
1	0.4	0		1
1	0.6	0		1
1	0.8	0		1
0.8	1	0		1
0.6	1	0		1
0.4	1	0		1
0.2	1	0		1
0	0.8	0		1
0	0.6	0		1
0	0.4	0		1
0	0.2	0		1
0.163707	0.488665	0		1
0.83535	0.4903	0		1
0.493918	0.132376	0		1
0.498365	0.827739	0		1
0.300748	0.830703	0		1
0.39616	0.670734	0		1
0.600202	0.675519	0		1
0.5	0.480385	0		1
0.8147	0.689149	0		1
0.830577	0.300184	0		1
0.169382	0.300114	0		1
0.18819	0.683641	0		1
0.315785	0.186528	0		1
0.694476	0.840999	0		1
0.685921	0.172487	0		1
0.321461	0.387381	0		1
0.668523	0.385325	0		1
0.476883	0.317411	0		1
0.14641	0.85359	0		1
0.85359	0.85359	0		1
0.14641	0.14641	0		1
0.85359	0.14641	0		1
0.310303	0.541798	0		1
0.689697	0.541798	0		1

Triangles
66
35	37	38	1
23	35	38	1
25	26	32	1
33	36	38	1
27	29	34	1
31	33	36	1
30	35	37	1
26	32	43	1
27	29	44	1
10	11	22	1
14	15	24	1
18	19	21	1
24	26	27	1
6	7	23	1
26	27	28	1
11	12	29	1
15	16	25	1
19	20	31	1
10	22	30	1
24	25	26	1
11	22	29	1
9	10	30	1
15	24	25	1
19	21	31	1
23	33	38	1
17	18	32	1
13	14	34	1
5	6	33	1
7	8	35	1
24	27	34	1
18	21	32	1
14	24	34	1
6	23	33	1
7	23	35	1
21	31	36	1
22	30	37	1
4	17	39	1
3	13	40	1
1	5	41	1
1	20	41	1
4	16	39	1
3	12	40	1
2	9	42	1
2	8	42	1
28	37	38	1
22	29	44	1
26	28	43	1
27	28	44	1
21	32	43	1
28	36	43	1
28	37	44	1
8	35	42	1
13	34	40	1
17	32	39	1
5	33	41	1
12	29	40	1
16	25	39	1
20	31	41	1
9	30	42	1
30	35	42	1
29	34	40	1
25	32	39	1
31	33	41	1
28	36	38	1
21	36	43	1
22	37	44	1


End